<svg width="26" height="26" fill="none" xmlns="http://www.w3.org/2000/svg"><g clip-path="url(#clip0)"><path d="M22.383 20.991C11.857 26 5.326 21.809 1.145 19.264c-.259-.16-.699.037-.317.476 1.393 1.689 5.958 5.76 11.917 5.76 5.962 0 9.51-3.254 9.953-3.822.441-.563.13-.873-.316-.687zm2.955-1.632c-.282-.368-1.718-.437-2.622-.326-.905.108-2.264.661-2.146.993.061.125.185.069.807.013.623-.062 2.37-.283 2.734.193.365.479-.558 2.761-.726 3.13-.163.367.062.462.368.217.302-.245.848-.88 1.214-1.778.364-.903.586-2.162.371-2.442z" fill="#F90"/><path fill-rule="evenodd" clip-rule="evenodd" d="M15.306 10.77c0 1.315.034 2.41-.63 3.578-.537.949-1.386 1.532-2.335 1.532-1.295 0-2.05-.986-2.05-2.443 0-2.875 2.576-3.397 5.015-3.397v.73zm3.402 8.223a.704.704 0 01-.797.08c-1.12-.93-1.319-1.361-1.936-2.248-1.85 1.888-3.16 2.453-5.56 2.453-2.838 0-5.049-1.751-5.049-5.257 0-2.738 1.485-4.603 3.597-5.514 1.831-.806 4.389-.949 6.343-1.172V6.9c0-.802.062-1.751-.408-2.444-.412-.621-1.2-.877-1.893-.877-1.286 0-2.434.659-2.714 2.025-.057.304-.28.603-.583.617l-3.274-.35c-.275-.063-.58-.285-.503-.708C6.685 1.196 10.267 0 13.475 0c1.642 0 3.786.437 5.081 1.68 1.642 1.532 1.485 3.577 1.485 5.802v5.257c0 1.58.655 2.273 1.272 3.127.218.304.266.67-.01.897-.688.574-1.912 1.642-2.585 2.24l-.01-.01" fill="#000"/><path d="M22.383 20.991C11.857 26 5.326 21.809 1.145 19.264c-.259-.16-.699.037-.317.476 1.393 1.689 5.958 5.76 11.917 5.76 5.962 0 9.51-3.254 9.953-3.822.441-.563.13-.873-.316-.687zm2.955-1.632c-.282-.368-1.718-.437-2.622-.326-.905.108-2.264.661-2.146.993.061.125.185.069.807.013.623-.062 2.37-.283 2.734.193.365.479-.558 2.761-.726 3.13-.163.367.062.462.368.217.302-.245.848-.88 1.214-1.778.364-.903.586-2.162.371-2.442z" fill="#F90"/><path fill-rule="evenodd" clip-rule="evenodd" d="M15.306 10.77c0 1.315.034 2.41-.63 3.578-.537.949-1.386 1.532-2.335 1.532-1.295 0-2.05-.986-2.05-2.443 0-2.875 2.576-3.397 5.015-3.397v.73zm3.402 8.223a.704.704 0 01-.797.08c-1.12-.93-1.319-1.361-1.936-2.248-1.85 1.888-3.16 2.453-5.56 2.453-2.838 0-5.049-1.751-5.049-5.257 0-2.738 1.485-4.603 3.597-5.514 1.831-.806 4.389-.949 6.343-1.172V6.9c0-.802.062-1.751-.408-2.444-.412-.621-1.2-.877-1.893-.877-1.286 0-2.434.659-2.714 2.025-.057.304-.28.603-.583.617l-3.274-.35c-.275-.063-.58-.285-.503-.708C6.685 1.196 10.267 0 13.475 0c1.642 0 3.786.437 5.081 1.68 1.642 1.532 1.485 3.577 1.485 5.802v5.257c0 1.58.655 2.273 1.272 3.127.218.304.266.67-.01.897-.688.574-1.912 1.642-2.585 2.24l-.01-.01" fill="#fff"/></g><defs><clipPath id="clip0"><path fill="#fff" d="M0 0h26v26H0z"/></clipPath></defs></svg>