<svg width="20" height="24" fill="none" xmlns="http://www.w3.org/2000/svg"><path d="M1.5 8.004a1.5 1.5 0 00-1.5 1.5v6.998a1.5 1.5 0 003 0V9.503a1.5 1.5 0 00-1.5-1.5zm16.995 0a1.5 1.5 0 00-1.5 1.5v6.998a1.5 1.5 0 003 0V9.503a1.5 1.5 0 00-1.5-1.5zm-2.999 0H4.5a.5.5 0 00-.5.5v7.998a2.5 2.5 0 002 2.45V22.5a1.5 1.5 0 002.999 0v-3.499h2v3.5a1.5 1.5 0 002.999 0v-3.55a2.5 2.5 0 002-2.45V8.505a.5.5 0 00-.5-.5zm-1.864-5.927L14.85.86a.5.5 0 10-.707-.706l-1.42 1.42a6.841 6.841 0 00-5.452 0L5.852.151a.5.5 0 00-.706.706l1.218 1.22a5.276 5.276 0 00-2.365 4.426.5.5 0 00.5.5h10.997a.5.5 0 00.5-.5 5.276 5.276 0 00-2.364-4.427z" fill="#3790EC"/><path d="M7.498 5.004a.5.5 0 100-1 .5.5 0 000 1zm4.999 0a.5.5 0 100-1 .5.5 0 000 1z" fill="#FAFAFA"/></svg>