<svg width="138" height="93" viewBox="0 0 138 93" fill="none" xmlns="http://www.w3.org/2000/svg">
<path d="M8.9625 26.5121C26.1057 13.7876 48.6531 8.72922 70.8322 14.6744C94.6218 21.0488 112.448 38.5964 120.218 60.1935L130.331 57.7694L112.817 90.19L83.5753 68.9424L95.4539 66.1051C92.6785 49.46 82.6089 34.6295 67.7867 26.0756C63.652 23.6854 59.1592 21.7909 54.3419 20.4766C54.2499 20.4519 54.1585 20.4251 54.0687 20.401C33.3125 14.5424 16.3759 21.8089 8.9625 26.5121Z" fill="#A6C1DC"/>
<path d="M8.96247 26.5124C16.3758 21.8092 39.703 10.678 67.7866 26.0759C52.9923 26.0742 38.9318 31.9027 28.4663 41.9073L30.1266 25.9769L10.31 26.4775L8.96247 26.5124Z" fill="#7EA0C3"/>
</svg>
