<svg width="133" height="134" viewBox="0 0 133 134" fill="none" xmlns="http://www.w3.org/2000/svg">
<path d="M113.407 25.4292C115.855 46.6379 108.962 68.6937 92.7241 84.9287C75.3089 102.344 51.1993 109.008 28.6103 104.939L25.6533 114.909L6.33324 83.5309L39.3551 68.8306L35.873 80.5364C51.6757 86.4555 69.5542 85.1501 84.3732 76.5907C88.5104 74.205 92.3975 71.2614 95.9445 67.7467C96.0118 67.6793 96.0808 67.6136 96.1465 67.5478C111.598 52.5018 113.774 34.2009 113.407 25.4292Z" fill="#A6C1DC"/>
<path d="M113.407 25.4287C113.773 34.2004 111.749 59.968 84.3727 76.5902C91.7713 63.7788 93.7539 48.6878 90.3224 34.6221L103.288 44.0251L112.763 26.6131L113.407 25.4287Z" fill="#7EA0C3"/>
</svg>
