<svg width="133" height="134" viewBox="0 0 133 134" fill="none" xmlns="http://www.w3.org/2000/svg">
<path d="M19.7119 108.968C17.2637 87.7591 24.1568 65.7033 40.395 49.4682C57.8102 32.053 81.9199 25.3891 104.509 29.4581L107.466 19.488L126.786 50.8661L93.7641 65.5664L97.2462 53.8605C81.4434 47.9415 63.565 49.2469 48.746 57.8063C44.6087 60.1919 40.7216 63.1356 37.1747 66.6503C37.1073 66.7176 37.0384 66.7834 36.9726 66.8491C21.5209 81.8952 19.3455 100.196 19.7119 108.968Z" fill="#A6C1DC"/>
<path d="M19.7124 108.968C19.346 100.197 21.3697 74.429 48.7465 57.8068C41.3478 70.6182 39.3652 85.7092 42.7967 99.7749L29.8308 90.3719L20.3559 107.784L19.7124 108.968Z" fill="#7EA0C3"/>
</svg>
