<svg width="141" height="118" viewBox="0 0 141 118" fill="none" xmlns="http://www.w3.org/2000/svg">
<path d="M123.031 93.6388C103.179 101.493 80.0906 100.543 60.206 89.0601C38.8768 76.7457 26.1999 55.1823 24.2838 32.3099L13.8881 32.0341L39.1965 5.25114L61.9427 33.3431L49.7344 33.0093C48.1072 49.8056 53.9953 66.7369 66.0986 78.8357C69.4737 82.2145 73.3231 85.2073 77.6361 87.7237C77.7185 87.7713 77.7999 87.8209 77.8804 87.8674C96.413 98.8984 114.653 96.263 123.031 93.6388Z" fill="#A6C1DC"/>
<path d="M123.032 93.6386C114.653 96.2628 89.2402 100.977 66.0987 78.8354C80.3885 82.6661 95.4785 80.6754 108.177 73.7203L102.45 88.6781L121.721 93.3235L123.032 93.6386Z" fill="#7EA0C3"/>
</svg>
