<svg width="1920" height="862" viewBox="0 0 1920 862" fill="none" xmlns="http://www.w3.org/2000/svg">
<g clip-path="url(#clip0)">
<rect x="-4" width="1924" height="656" fill="url(#paint0_linear)"/>
<path d="M267 438.441H-299V452.526H267V438.441Z" fill="#95AEC7"/>
<path d="M267 430.526H-299V444.616H267V430.526Z" fill="#A6C1DC"/>
<path d="M246.115 150.156H-278.11V422.803H246.115V150.156Z" fill="#EDF0F7"/>
<path d="M236.7 156.278H-268.7V417.916H236.7V156.278Z" fill="#D8E6F4"/>
<path d="M-268.7 417.911H236.7V303.607C232.24 304.928 230.238 309.696 235.858 315.53C220.977 309.917 208.974 323.647 218.442 336.877C190.711 335.224 190.09 350.76 189.19 361.982C176.114 355.97 161.007 357.171 162.811 366.393C153.829 358.406 136.87 360.91 129.441 369.604C124.481 349.155 89.673 338.713 74.0466 348.8C77.1594 338.463 50.7369 334.575 36.78 344.749C30.9826 326.232 11.5266 331.12 7.91828 346.354C0.0569709 339.366 -14.179 343.148 -11.9226 355.576C-24.9992 347.959 -43.1177 357.484 -35.1409 373.218C-40.0531 370.156 -51.9028 371.997 -54.4815 382.435C-58.5276 371.718 -78.7294 372.458 -80.4421 383.021C-89.0684 365.778 -119.446 373.309 -125.219 394.781C-132.089 382.839 -151.93 387.654 -155.817 398.174C-164.165 385.876 -186.324 381.195 -199.271 390.46C-197.467 387.255 -205.583 377.23 -213.247 381.839C-213.247 381.839 -212.795 362.597 -231.736 361.794C-215.956 345.758 -242.109 315.088 -260.598 316.289C-245.347 307.49 -254.594 289.997 -268.695 298.397V417.911H-268.7Z" fill="#A6C1DC"/>
<g opacity="0.3">
<path opacity="0.3" d="M121.874 417.656H209.166L47.3451 156.1H-39.9473L121.874 417.656Z" fill="white"/>
<path opacity="0.3" d="M75.1579 417.656H91.3856L-70.4352 156.1H-86.663L75.1579 417.656Z" fill="white"/>
</g>
<path d="M-286.212 143V430.752H254.212V143H-286.212ZM241.29 420.688H-273.285V153.058H241.29V420.688Z" fill="white"/>
<path d="M115.47 155.605H103.399V421.299H115.47V155.605Z" fill="#EDF0F7"/>
<path d="M118.357 146.974H106.291V428.368H118.357V146.974Z" fill="white"/>
<path d="M1512.17 675.814C1499.87 676.399 1476.38 685.032 1495.81 690.661C1515.24 696.291 1569.19 697.571 1577.89 687.589C1586.58 677.606 1566.12 673.253 1512.17 675.814Z" fill="#DBE7F3"/>
<path d="M1572.67 608.72C1574.91 607.313 1573.94 601.818 1571.25 600.448C1568.56 599.073 1565.34 598.962 1563.28 597.584C1561.22 596.209 1558.67 593.672 1554.93 595.149C1551.21 596.626 1547.62 598.426 1545.31 596.843C1543 595.264 1539.8 592.179 1535.55 591.59C1532.94 591.234 1527.98 596.626 1525.03 595.681C1522.08 594.72 1518.01 592.068 1515.71 592.596C1513.38 593.12 1512.97 598.005 1510.41 597.485C1507.84 596.954 1504.24 595.681 1499.63 597.162C1495.01 598.635 1491.66 601.286 1489.48 600.967C1487.31 600.648 1484.78 602.203 1485.67 604.203C1486.58 606.216 1481.59 609.968 1505.45 612.39C1517.45 613.728 1555.32 615.483 1572.67 608.72Z" fill="#809DBB"/>
<path d="M1565.53 599.478C1570.18 600.464 1568.54 602.653 1565.17 603.242C1561.79 603.851 1554.21 599.862 1549 601.438C1543.8 603.017 1537.22 608.503 1529.75 605.652C1522.26 602.796 1513.76 605.418 1507.28 605.12C1500.8 604.829 1491.79 602.902 1493.67 601.888C1495.5 600.91 1496.15 598.733 1501.44 598.508C1506.73 598.283 1508.37 601.29 1510.92 599.858C1513.49 598.418 1512.48 596.393 1516.59 596.544C1520.71 596.696 1521.62 600.456 1527.65 599.331C1533.67 598.197 1535.87 593.075 1538.42 594.437C1540.97 595.792 1544.12 599.707 1548.82 598.197C1558.95 594.965 1556.14 597.518 1565.53 599.478Z" fill="#65819D"/>
<path d="M1555.74 597.518C1559.01 597.408 1568.41 600.947 1564.41 601.033C1560.41 601.114 1555.32 598.692 1552.48 599.613C1549.65 600.533 1551.06 597.69 1555.74 597.518Z" fill="#6A8BAC"/>
<path d="M1536.88 598.111C1535.21 598.631 1532.88 601.114 1528.96 601.368C1525.04 601.618 1526.79 604.04 1530.88 604.203C1534.97 604.371 1541.23 596.778 1536.88 598.111Z" fill="#6A8BAC"/>
<path d="M1496.85 605.958C1493.34 604.203 1489.35 602.117 1488.43 603.704C1487.51 605.292 1495.68 609.71 1504.69 609.804C1513.7 609.886 1514.2 607.885 1508.61 607.464C1503.03 607.051 1502.36 608.72 1496.85 605.958Z" fill="#65819D"/>
<path d="M1567.42 604.203C1570.51 602.493 1573.67 603.119 1570.5 605.623C1567.33 608.135 1559.32 612.059 1550.48 611.056C1541.64 610.054 1544.31 606.376 1552.56 606.134C1560.82 605.877 1561.24 607.628 1567.42 604.203Z" fill="#65819D"/>
<path d="M1576.31 612.116C1576.31 612.116 1569.96 654.113 1564.9 680.097C1530.66 693.472 1499 680.097 1499 680.097L1486.68 613.167L1576.31 612.116Z" fill="#A6C1DC"/>
<path d="M1574.21 609.412L1572.71 618.388C1572.71 618.388 1491.9 613.188 1502.18 650.517C1509.39 676.673 1563.46 673.494 1563.46 673.494L1562.81 677.389C1562.81 677.389 1532.38 689.36 1501.7 677.389C1488.64 666.502 1489.39 610.463 1489.39 610.463L1574.21 609.412Z" fill="#95AEC7"/>
<path d="M1551 626.595C1554.59 624.128 1565.01 619.308 1566.91 625.81C1568.82 632.311 1567.59 659.641 1554.67 660.103C1541.75 660.545 1534.54 637.92 1551 626.595Z" fill="#B6D1ED"/>
<path d="M1562.14 631.869C1562.89 631.341 1565.09 630.326 1565.49 631.701C1565.89 633.068 1565.64 638.849 1562.91 638.943C1560.17 639.045 1558.65 634.254 1562.14 631.869Z" fill="#C7E0FA"/>
<path d="M1477.71 611.236C1477.71 613.135 1479.29 614.252 1481.14 614.669C1536.27 627.078 1583.58 614.669 1583.58 614.669C1585.47 614.669 1587.01 613.135 1587.01 611.236V605.394C1587.01 603.5 1585.47 601.965 1583.58 601.965C1583.58 601.965 1532.6 610.864 1481.14 601.965C1479.25 601.965 1477.71 603.504 1477.71 605.394V611.236V611.236Z" fill="#B9D1EA"/>
<path d="M1506.97 529.017C1520.16 522.59 1526.92 489.646 1514.25 478.01C1503.3 467.958 1491.5 487.948 1493.15 501.928C1494.81 515.908 1498.96 526.137 1506.97 529.017Z" fill="#95AEC7"/>
<path d="M1535.6 453.888C1550.23 454.948 1572.57 429.831 1567.43 413.404C1562.99 399.216 1542.77 410.585 1537.21 423.514C1531.64 436.443 1530.11 447.379 1535.6 453.888Z" fill="#809DBB"/>
<path d="M1523.37 460.577C1527.92 446.61 1508.94 418.862 1491.78 419.905C1476.96 420.806 1483.12 443.189 1494.31 451.711C1505.5 460.23 1515.74 464.345 1523.37 460.577Z" fill="#B6D1ED"/>
<path d="M1495.53 511.715C1504.63 500.19 1496.43 467.578 1479.97 462.607C1465.76 458.311 1463.79 481.447 1471.34 493.32C1478.89 505.193 1487.07 512.603 1495.53 511.715Z" fill="#65809D"/>
<path d="M1530.04 430.87C1541.53 421.738 1541.01 388.116 1526.13 379.495C1513.28 372.053 1506.07 394.122 1510.7 407.411C1515.33 420.707 1521.59 429.794 1530.04 430.87Z" fill="#809DBB"/>
<path d="M1482.16 483.46C1486.47 502.448 1500.4 526.235 1527.13 553.888C1525.55 511.379 1529.36 429.778 1529.74 427.626C1530.6 422.835 1531.64 421.595 1531.56 427.266C1531.41 438.173 1531.07 470.662 1531.03 502.968C1535.58 502.063 1549.35 496.184 1573.04 460.046C1574.42 456.944 1576.83 457.288 1575.11 460.733C1573.43 464.092 1552.47 499.834 1531.03 507.718C1531.03 532.212 1531.22 555.983 1531.84 569.488C1534.06 618.04 1534.32 592.519 1534.39 594.597C1533.85 598.377 1529.45 595.231 1528.65 594.597C1528.64 578.195 1526.56 576.264 1526.75 559.804C1487.78 519.349 1481.38 490.313 1480.33 482.891C1479.95 480.22 1481.38 480.326 1482.16 483.46Z" fill="#A6C1DC"/>
<path d="M1513.9 596.426L1514.25 596.368C1515.59 596.152 1516.86 595.951 1517.29 595.325L1517.41 595.157C1518.14 594.09 1519.37 592.306 1522.02 591.823C1524.25 591.422 1526.22 590.686 1526.87 589.25C1527.26 587.908 1529.57 587.208 1529.71 587.302C1530.26 587.67 1531 587.928 1533.06 587.515C1533.21 587.433 1533.5 587.253 1533.68 587.224C1536.25 586.819 1538.71 590.833 1539.54 591.708C1540.43 592.666 1541.55 593.23 1542.96 593.431C1543.85 593.558 1544.39 594.143 1544.78 594.572C1545.22 595.047 1545.4 595.215 1545.8 595.215C1545.91 595.215 1546.04 595.198 1546.18 595.17C1546.58 595.088 1546.91 595.047 1547.2 595.047C1548.21 595.047 1548.68 595.538 1549.08 595.972C1549.36 596.266 1549.68 596.602 1550.33 596.966C1550.96 597.322 1552.32 597.637 1552.79 598.741C1552.99 599.183 1550.45 599.359 1548.37 599.359C1547.42 599.359 1546.44 599.212 1545.61 598.942C1545.15 598.795 1544.59 598.717 1543.93 598.717C1542.2 598.717 1540.25 599.277 1539.52 599.797C1538.92 600.222 1537.89 600.427 1536.37 600.427C1534.49 600.427 1531.96 600.096 1530.21 599.621C1528.52 599.167 1526.08 599.462 1523.12 600.472C1521.9 600.885 1520.3 601.143 1518.95 601.143C1517.51 601.143 1516.42 600.869 1515.72 600.321C1515.02 599.777 1513.37 599.625 1512.38 599.535C1511.87 599.49 1511.48 599.453 1511.19 599.38C1510.5 599.208 1509.38 599.122 1509.39 598.729C1509.4 598.426 1510.34 597.007 1513.9 596.426Z" fill="#65809D"/>
<path d="M1534.9 588.259C1535.73 588.259 1535.34 589.622 1538.13 591.61C1540.07 592.985 1538.07 593.922 1535.78 592.085C1533.39 590.17 1533.39 588.259 1534.9 588.259Z" fill="#809DBB"/>
<path d="M1540.89 593.701C1542.16 593.664 1544.01 594.548 1543.02 594.842C1542.03 595.137 1538.54 593.779 1540.89 593.701Z" fill="#6A8AAC"/>
<path d="M1537.02 597.064C1538.19 597.555 1539.51 599.134 1538.48 598.991C1537.46 598.844 1534.85 596.148 1537.02 597.064Z" fill="#809DBB"/>
<path d="M1547.8 596.577C1549.21 596.937 1551.59 598.304 1549.19 597.976C1546.81 597.641 1545.93 596.094 1547.8 596.577Z" fill="#809DBB"/>
<path d="M1542.47 595.91C1544.04 596.148 1546.51 596.978 1545.04 597.273C1543.57 597.567 1540.08 597.457 1538.69 595.505C1537.38 593.685 1540.78 595.652 1542.47 595.91Z" fill="#809DBB"/>
<path d="M1532.93 597.915C1534.23 598.111 1536.29 598.799 1535.07 599.044C1533.84 599.29 1530.94 599.196 1529.78 597.575C1528.7 596.066 1531.52 597.702 1532.93 597.915Z" fill="#809DBB"/>
<path d="M1534.02 592.081C1535 592.858 1538.21 594.658 1537.15 595.137C1536.08 595.616 1533 594.045 1532.59 592.977C1532.19 591.913 1533.29 591.492 1534.02 592.081Z" fill="#809DBB"/>
<path d="M1530.67 592.977C1529.84 592.977 1529.16 594.008 1528.07 594.695C1526.05 595.955 1527.32 597.731 1529.61 595.894C1532 593.987 1532.19 592.977 1530.67 592.977Z" fill="#809DBB"/>
<path d="M1523.92 592.261C1522.66 592.22 1520.8 593.104 1521.79 593.402C1522.79 593.697 1526.28 592.334 1523.92 592.261Z" fill="#6A8AAC"/>
<path d="M1524.4 597.514C1523.23 598.009 1521.91 599.588 1522.93 599.441C1523.96 599.294 1526.57 596.593 1524.4 597.514Z" fill="#6A8AAC"/>
<path d="M1515.95 596.577C1514.54 596.937 1512.17 598.304 1514.55 597.976C1516.94 597.641 1517.83 596.094 1515.95 596.577Z" fill="#809DBB"/>
<path d="M1521.83 595.501C1520.26 595.738 1517.79 596.569 1519.26 596.859C1520.73 597.154 1524.22 597.044 1525.61 595.092C1526.92 593.275 1523.52 595.243 1521.83 595.501Z" fill="#809DBB"/>
<path d="M1527.86 588.546C1526.89 589.495 1526.5 592.163 1527.56 592.748C1528.63 593.333 1531.27 591.267 1531.68 589.966C1532.08 588.665 1528.59 587.826 1527.86 588.546Z" fill="#809DBB"/>
<path d="M1524.99 554.948C1526.4 540.325 1501.86 517.365 1485.33 522.115C1471.06 526.215 1481.93 546.728 1494.7 552.612C1507.48 558.495 1518.36 560.283 1524.99 554.948Z" fill="#7EA0C4"/>
<path d="M1528.85 494.654C1542.04 488.227 1548.8 455.283 1536.13 443.647C1525.19 433.599 1513.38 453.585 1515.04 467.565C1516.69 481.545 1520.84 491.774 1528.85 494.654Z" fill="#65809D"/>
<path d="M1530.28 565.242C1544.85 567.005 1568.37 542.997 1564.02 526.341C1560.27 511.956 1539.53 522.34 1533.35 534.982C1527.17 547.624 1525.12 558.475 1530.28 565.242Z" fill="#65809D"/>
<path d="M1563.71 480.633C1578.35 479.708 1597.11 451.81 1589.81 436.226C1583.5 422.765 1565 436.762 1561.22 450.32C1557.44 463.879 1557.4 474.922 1563.71 480.633Z" fill="#6E8EAF"/>
<path d="M1554.17 486.676C1567.85 481.378 1577.34 449.118 1565.69 436.459C1555.63 425.527 1542.2 444.453 1542.67 458.519C1543.15 472.589 1546.43 483.133 1554.17 486.676Z" fill="#B6D1ED"/>
<path d="M1534.26 504.35C1540.45 517.672 1573.23 524.999 1585.07 512.517C1595.29 501.732 1575.53 489.573 1561.55 490.988C1547.56 492.404 1537.28 496.385 1534.26 504.35Z" fill="#95AEC7"/>
<path d="M1528.22 530.441C1536.52 518.331 1526.15 486.345 1509.39 482.491C1494.92 479.16 1494.51 502.378 1502.84 513.716C1511.18 525.057 1519.83 531.897 1528.22 530.441Z" fill="#B6D1ED"/>
<path d="M1744.99 670.976C1702.06 671.77 1620.09 683.477 1687.89 691.112C1755.7 698.753 1943.94 700.49 1974.27 686.945C2004.6 673.407 1933.23 667.503 1744.99 670.976Z" fill="#DBE7F3"/>
<path d="M1715.01 687.379H1931.59V315.567H1715.01V687.379Z" fill="#8FAAC5"/>
<path d="M1730.64 687.377H1915.96V328.69H1730.64V687.377Z" fill="#657A9D"/>
<path d="M1734.6 670.37H1912.1V434.035H1734.6V670.37Z" fill="#A6C1DC"/>
<path d="M1821.99 671.157H1825.45V432.325H1821.99V671.157Z" fill="#657A9D"/>
<path d="M1730.64 430.927H1915.96V417.437H1730.64V430.927Z" fill="#A6C1DC"/>
<path d="M1730.64 687.1H1915.96V673.615H1730.64V687.1Z" fill="#8FAAC5"/>
<path d="M1896.6 340.781H1881.88V414.857H1896.6V340.781Z" fill="#809DBB"/>
<path d="M1819.87 339.811L1797.36 410.384L1811.4 414.852L1833.9 344.288L1819.87 339.811Z" fill="#809DBB"/>
<path d="M1866.8 339.385L1855.08 412.529L1869.62 414.852L1881.35 341.712L1866.8 339.385Z" fill="#6E8EAF"/>
<path d="M1833.89 339.664L1812.7 410.641L1826.81 414.852L1848.01 343.876L1833.89 339.664Z" fill="#B6D1ED"/>
<path d="M1849.27 339.385L1837.55 412.529L1852.1 414.852L1863.82 341.712L1849.27 339.385Z" fill="#7EA0C3"/>
<path d="M1774.26 339.385L1762.54 412.529L1777.09 414.852L1788.8 341.712L1774.26 339.385Z" fill="#6E8EAF"/>
<path d="M1792.25 339.385L1780.53 412.529L1795.08 414.852L1806.8 341.712L1792.25 339.385Z" fill="#95AEC7"/>
<path d="M1815.93 542.341C1815.93 545.404 1813.45 547.882 1810.39 547.882C1807.33 547.882 1804.85 545.404 1804.85 542.341C1804.85 539.282 1807.33 536.799 1810.39 536.799C1813.45 536.799 1815.93 539.282 1815.93 542.341Z" fill="#657A9D"/>
<path d="M1843.08 542.341C1843.08 545.404 1840.61 547.882 1837.55 547.882C1834.48 547.882 1832.01 545.404 1832.01 542.341C1832.01 539.282 1834.48 536.799 1837.55 536.799C1840.61 536.799 1843.08 539.282 1843.08 542.341Z" fill="#657A9D"/>
<path d="M1743.92 277.411C1743.92 277.411 1747.68 277.478 1752.11 280.59C1762.36 287.815 1765.45 286.517 1773.83 280.302C1781.35 285.648 1741.03 300.099 1737.13 290.559C1736.55 283.622 1733.8 278.71 1743.92 277.411Z" fill="#65809D"/>
<path d="M1741.6 278.618C1741.6 278.618 1745.56 278.104 1749.99 281.216C1757.24 286.327 1760.81 287.457 1765.25 285.489C1761.69 286.247 1757.97 284.944 1751.87 280.781C1746.42 277.075 1742.14 277.745 1742.14 277.745C1740.19 277.993 1740.35 278.525 1739.25 279.035C1739.95 278.871 1740.73 278.729 1741.6 278.618Z" fill="#536B86"/>
<path d="M1741.75 278.135C1741.75 278.135 1745.71 277.62 1750.13 280.737C1757.38 285.844 1760.96 286.983 1765.39 285.01C1761.83 285.768 1758.12 284.465 1752.01 280.302C1746.57 276.596 1742.28 277.266 1742.28 277.266C1740.34 277.518 1740.5 278.046 1739.4 278.551C1740.09 278.387 1740.87 278.245 1741.75 278.135Z" fill="#C8D9EA"/>
<path d="M1773.83 280.298C1773.26 280.724 1772.71 281.123 1772.19 281.495C1774.34 284.062 1767.69 288.206 1759.42 291.119C1769.19 288.042 1777.63 283.007 1773.83 280.298Z" fill="#FDC300"/>
<path d="M1738.23 292.05C1741.57 294.843 1750.3 293.85 1758.39 291.434C1757.13 290.693 1755.74 289.78 1754.18 288.681C1749.75 285.564 1745.79 286.079 1745.79 286.079C1739.68 286.868 1738.27 288.973 1738.23 292.05Z" fill="#536B86"/>
<path d="M1753.65 218.848C1753.65 218.848 1753.21 222.075 1755.64 224.522C1752.97 224.318 1752.9 224.664 1753.41 225.488C1753.91 226.313 1753.86 226.801 1752.41 226.734C1750.95 226.668 1748.48 226.543 1748.66 227.492C1748.83 228.441 1748.68 228.893 1747.22 228.68C1745.75 228.467 1744.09 227.745 1744.26 228.498C1744.42 229.261 1744.54 230.116 1743.2 229.655C1741.85 229.194 1740.86 228.361 1739.76 229.084C1739.69 228.8 1740 227.856 1741.2 227.802C1742.4 227.749 1743.42 227.802 1742.98 227.164C1742.54 226.521 1741.82 225.524 1743.2 225.307C1744.58 225.089 1746.6 225.014 1745.9 224.203C1745.21 223.392 1744.38 222.257 1745.69 221.76C1747 221.259 1749.91 221.924 1749.55 221.135C1749.19 220.346 1748.88 219.597 1750 219.167C1751.13 218.728 1752.86 218.675 1753.65 218.848Z" fill="#607A97"/>
<path d="M1753.18 225.014C1752.41 224.921 1751.01 222.509 1750.04 221.233C1749.33 220.302 1749.63 219.579 1749.92 219.202C1748.91 219.641 1749.2 220.368 1749.55 221.131C1749.91 221.92 1747 221.255 1745.69 221.756C1745.63 221.778 1745.57 221.805 1745.52 221.831C1745.73 221.796 1745.98 221.756 1746.28 221.711C1747.71 221.508 1749.16 222.314 1749.78 222.82C1750.84 223.666 1752.39 224.828 1752.15 225.785C1752.05 226.207 1750.96 226.579 1750.43 226.681C1750.59 226.685 1752.25 226.721 1752.4 226.73C1753.85 226.796 1753.91 226.308 1753.4 225.484C1753.3 225.307 1753.21 225.151 1753.18 225.014Z" fill="#536B86"/>
<path d="M1748.66 227.492C1748.64 227.408 1748.65 227.333 1748.67 227.262C1748.32 227.12 1747.89 226.362 1747.33 225.661C1746.45 224.562 1745.96 223.782 1745.35 223.17C1745.23 223.041 1745.15 223.015 1745.12 223.05C1745.28 223.445 1745.61 223.853 1745.91 224.207C1746.49 224.881 1745.18 225.05 1743.93 225.209C1744.88 225.103 1746.07 225.165 1746.93 226.442C1747.67 227.532 1746.77 228.294 1746.43 228.529C1746.69 228.587 1746.95 228.64 1747.22 228.68C1748.68 228.889 1748.83 228.441 1748.66 227.492Z" fill="#536B86"/>
<path d="M1742.4 225.865C1742.35 226.264 1742.71 226.778 1742.98 227.16C1743.33 227.674 1742.74 227.736 1741.87 227.771C1741.87 227.771 1741.88 227.771 1741.88 227.776C1742.99 227.878 1743.5 228.419 1743.83 229.097C1744.09 229.62 1743.07 229.5 1742.6 229.425C1742.79 229.505 1742.99 229.585 1743.2 229.655C1744.54 230.116 1744.41 229.261 1744.26 228.498C1744.23 228.383 1744.25 228.299 1744.3 228.246C1743.46 227.545 1742.69 226.34 1742.4 225.865Z" fill="#536B86"/>
<path d="M1747.51 223.884C1747.73 223.977 1748.1 224.105 1748.19 224.261C1748.38 224.73 1748.74 224.859 1749.15 224.788C1749.57 224.722 1749.66 224.327 1749.54 224.048C1749.42 223.768 1749.63 223.534 1749.66 223.378C1749.83 222.381 1749.08 221.973 1748.44 221.938C1747.85 221.907 1747.34 222.08 1747.09 222.682C1746.83 223.285 1747.3 223.791 1747.51 223.884ZM1748.6 223.157C1748.52 222.904 1748.63 222.642 1748.83 222.576C1749.05 222.505 1749.28 222.656 1749.37 222.908C1749.45 223.161 1749.34 223.423 1749.14 223.494C1748.92 223.56 1748.69 223.409 1748.6 223.157ZM1748.88 223.72C1749.14 223.711 1749.05 224.19 1749.05 224.19C1749.02 224.336 1748.84 224.225 1748.7 224.043C1748.56 223.857 1748.63 223.724 1748.88 223.72ZM1747.64 222.798C1747.84 222.696 1748.09 222.807 1748.21 223.041C1748.34 223.276 1748.27 223.551 1748.08 223.653C1747.88 223.755 1747.62 223.644 1747.5 223.409C1747.38 223.174 1747.44 222.9 1747.64 222.798Z" fill="#37495C"/>
<path d="M1750.85 223.312C1750.85 223.312 1750.81 222.833 1750.51 222.908C1750.21 222.984 1750.24 223.48 1750.36 223.742C1749.97 224.065 1748.67 225.821 1748.67 225.821C1748.67 225.821 1748.08 225.728 1748.04 226.02C1748 226.313 1748.49 226.348 1748.49 226.348C1748.49 226.348 1748.64 226.725 1748.88 226.654C1749.1 226.592 1749.07 226.22 1748.92 226.007C1749.14 225.794 1750.68 223.937 1750.68 223.937C1750.68 223.937 1751.27 224.048 1751.34 223.751C1751.41 223.458 1751.02 223.232 1750.85 223.312Z" fill="#37495C"/>
<path d="M1750.37 225.4C1750.37 225.4 1750.83 224.943 1750.98 225.151C1751.13 225.364 1750.98 225.666 1750.83 225.679C1750.98 225.972 1750.78 226.246 1750.55 226.184C1750.32 226.122 1750.23 225.794 1750.23 225.794L1747.04 224.73C1747.04 224.73 1746.69 225.147 1746.44 224.979C1746.24 224.846 1746.32 224.571 1746.59 224.469C1746.38 224.181 1746.56 224.003 1746.74 224.003C1746.92 224.003 1747.14 224.371 1747.14 224.371L1750.37 225.4Z" fill="#37495C"/>
<path d="M1758.91 233.415C1758.72 233.432 1758.56 233.308 1758.52 233.126C1757.5 228.21 1752.89 217.208 1752.85 217.097C1752.77 216.911 1752.86 216.698 1753.04 216.618C1753.23 216.543 1753.44 216.627 1753.52 216.813C1753.71 217.265 1758.2 227.989 1759.23 232.976C1759.27 233.175 1759.15 233.366 1758.95 233.406C1758.94 233.41 1758.92 233.415 1758.91 233.415Z" fill="#A6C1DC"/>
<path d="M1753.85 215.944C1753.9 216.516 1753.48 217.017 1752.9 217.07C1752.33 217.119 1751.83 216.698 1751.78 216.126C1751.73 215.554 1752.15 215.053 1752.73 215.004C1753.29 214.951 1753.8 215.372 1753.85 215.944Z" fill="#95AEC7"/>
<path d="M1753.65 215.776C1753.68 216.197 1753.37 216.565 1752.96 216.6C1752.54 216.636 1752.17 216.325 1752.13 215.909C1752.1 215.488 1752.41 215.12 1752.82 215.084C1753.25 215.049 1753.61 215.355 1753.65 215.776Z" fill="#A6C1DC"/>
<path d="M1749.19 230.87C1749.19 230.87 1752.82 238.317 1753.52 238.903C1756.75 238.832 1767.24 236.939 1767.24 236.939L1767.63 228.844C1767.63 228.844 1765.37 226.517 1757.56 227.377C1749.82 228.232 1749.19 230.87 1749.19 230.87Z" fill="#95AEC7"/>
<path d="M1751.15 233.375C1751.76 234.022 1753.83 236.052 1763.33 235.143C1767.87 235.316 1767.23 236.934 1767.23 236.934L1767.62 228.84C1767.62 228.84 1765.45 226.982 1757.64 227.847C1749.9 228.702 1750.18 232.351 1751.15 233.375Z" fill="#A6C1DC"/>
<path d="M1767.21 236.668C1767.51 237.741 1764.57 239.08 1760.76 239.599C1756.95 240.117 1753.62 239.67 1753.33 238.601C1753.03 237.528 1755.88 236.243 1759.69 235.724C1763.5 235.197 1766.92 235.596 1767.21 236.668Z" fill="#58738F"/>
<path d="M1766.37 236.926C1766.6 237.763 1764.08 238.81 1760.73 239.262C1757.39 239.714 1754.5 239.408 1754.26 238.57C1754.03 237.732 1756.56 236.686 1759.9 236.23C1763.24 235.777 1766.14 236.088 1766.37 236.926Z" fill="#65809D"/>
<path d="M1755.37 236.806L1750.86 229.239L1751.04 229.172L1755.55 236.739L1755.37 236.806Z" fill="#58738F"/>
<path d="M1758.52 235.955L1755.46 227.74L1755.66 227.696L1758.72 235.91L1758.52 235.955Z" fill="#58738F"/>
<path d="M1761.66 235.56L1760.79 227.253L1761 227.244L1761.86 235.551L1761.66 235.56Z" fill="#58738F"/>
<path d="M1765.09 235.675L1764.88 235.662L1765.88 228.037L1766.09 228.051L1765.09 235.675Z" fill="#58738F"/>
<path d="M1764.58 298.726C1764.55 298.726 1764.51 298.726 1764.48 298.721C1764.04 298.668 1763.73 298.265 1763.79 297.826C1765.88 281.455 1763.95 266.307 1761.97 253C1761.13 247.405 1760.29 242.618 1759.48 238.544C1759.33 238.136 1759.28 237.493 1759.95 237.329C1760.74 237.187 1761.06 237.985 1761.02 238.357C1761.83 242.431 1762.71 247.175 1763.54 252.747C1765.54 266.161 1767.48 281.473 1765.37 298.03C1765.32 298.433 1764.98 298.726 1764.58 298.726Z" fill="#58738F"/>
<path d="M1735.04 247.995C1735.04 247.995 1742.58 251.28 1744.57 244.728C1749.34 247.405 1753.99 246.199 1754.53 242.529C1757.94 246.324 1764.3 245.069 1764.62 241.11C1768.32 244.599 1773.54 244.573 1774.11 241.234C1776.03 244.701 1782.02 245.034 1782.63 242.063C1786.47 245.814 1790.85 265.505 1782.71 277.558C1782.42 273.232 1777.91 273.719 1775.98 277.053C1774.83 273.258 1769.86 273.99 1768.01 277.394C1766.45 273.223 1761.95 275.116 1760.76 278.494C1759.35 275.302 1754.98 276.964 1752.97 280.604C1751.94 277.199 1748.4 278.569 1746.16 282.67C1745.98 269.464 1744.18 256.967 1735.04 247.995Z" fill="#A4C2E1"/>
<path d="M1747.43 278.764C1750.94 267.677 1745.54 254.551 1739.26 251.195C1741.01 251.195 1744.08 249.591 1744.66 247.255C1742.7 248.744 1740.99 248.926 1739.84 248.779C1737.41 249.023 1735.05 247.99 1735.05 247.99C1744.18 256.963 1745.98 269.459 1746.16 282.665C1748.15 279.017 1751.16 277.536 1752.54 279.637C1752.54 279.637 1752.54 279.637 1752.54 279.637C1751.81 277.74 1749.48 276.574 1747.43 278.764Z" fill="#82A6CB"/>
<path d="M1749.91 247.986C1749.91 247.986 1754.29 247.84 1755.16 244.776C1758.22 246.962 1763.62 247.108 1765.37 243.318C1767.85 245.796 1773.11 246.089 1774.42 243.318C1777.48 245.215 1780.1 245.942 1781.27 245.215C1780.25 246.089 1776.75 246.381 1774.71 245.508C1772.95 246.82 1767.12 247.259 1765.52 244.923C1764.06 246.966 1759.97 249.006 1755.74 246.235C1754.58 248.132 1752.25 248.279 1749.91 247.986Z" fill="#82A6CB"/>
<path d="M1755.16 249.006C1755.16 249.006 1752.54 250.025 1749.62 249.883C1746.71 249.737 1745.1 250.903 1748.46 254.99C1751.81 259.073 1754.29 269.14 1752.69 276.725C1752.83 278.618 1753.85 277.598 1755.16 275.705C1756.48 273.808 1759.25 274.686 1760.71 276.725C1763.33 271.911 1765.96 275.12 1768 274.101C1770.05 273.077 1773.98 271.472 1775 273.369C1776.02 275.267 1777.77 273.954 1778.94 272.93C1780.1 271.911 1782.29 272.35 1783.46 274.828C1786.08 268.989 1788.86 258.927 1783.46 245.362C1783.17 244.635 1783.75 250.468 1780.25 252.508C1780.69 250.757 1777.92 246.089 1774.56 247.113C1771.21 248.132 1768.14 248.279 1766.39 247.698C1764.64 247.113 1763.92 247.844 1760.85 248.864C1757.79 249.883 1757.94 248.132 1755.16 249.006Z" fill="#B6D1ED"/>
<path d="M1739.51 250.056C1740.32 250.056 1741.34 249.795 1742.54 248.943C1742.58 248.912 1742.59 248.846 1742.56 248.802C1742.53 248.753 1742.46 248.744 1742.42 248.779C1739.46 250.889 1737.66 249.294 1737.58 249.223C1737.54 249.183 1737.48 249.187 1737.44 249.232C1737.4 249.276 1737.4 249.338 1737.44 249.373C1737.46 249.387 1738.21 250.056 1739.51 250.056Z" fill="#5F86AE"/>
<path d="M1780.84 249.258C1780.87 249.258 1780.9 249.245 1780.92 249.214C1783.25 246.004 1782.71 243.961 1782.68 243.877C1782.67 243.823 1782.61 243.788 1782.56 243.806C1782.5 243.823 1782.47 243.881 1782.49 243.93C1782.49 243.952 1783.02 245.969 1780.75 249.094C1780.72 249.139 1780.73 249.205 1780.77 249.236C1780.8 249.249 1780.81 249.258 1780.84 249.258Z" fill="#5F86AE"/>
<path d="M1746.71 275.51C1746.76 275.51 1746.8 275.47 1746.81 275.417C1747.97 263.408 1742.46 256.307 1742.41 256.236C1742.38 256.191 1742.31 256.182 1742.26 256.218C1742.22 256.253 1742.21 256.315 1742.25 256.364C1742.3 256.435 1747.75 263.475 1746.6 275.399C1746.6 275.457 1746.64 275.506 1746.69 275.51C1746.7 275.51 1746.7 275.51 1746.71 275.51Z" fill="#5F86AE"/>
<path d="M1745.89 283.441C1745.69 283.45 1745.51 283.295 1745.51 283.091C1745.5 282.9 1745.63 282.74 1745.82 282.709C1745.89 282.687 1746.17 282.576 1746.46 282.457C1758.81 277.483 1771.33 275.696 1782.66 277.288C1782.87 277.319 1783 277.505 1782.98 277.705C1782.95 277.908 1782.76 278.046 1782.56 278.019C1771.36 276.446 1758.97 278.214 1746.73 283.139C1746.09 283.405 1746 283.436 1745.89 283.441Z" fill="#A6C1DC"/>
<path d="M1734.45 248.234C1734.28 248.243 1734.11 248.145 1734.04 247.977C1733.95 247.764 1734.05 247.511 1734.26 247.414C1734.32 247.392 1740.27 244.816 1749.18 242.782C1757.4 240.902 1769.9 239.107 1782.77 241.217C1783 241.257 1783.16 241.474 1783.12 241.709C1783.08 241.939 1782.87 242.099 1782.63 242.059C1769.9 239.971 1757.51 241.753 1749.37 243.615C1740.54 245.632 1734.66 248.176 1734.6 248.199C1734.55 248.221 1734.5 248.234 1734.45 248.234Z" fill="#A6C1DC"/>
<path d="M1738.23 278.01C1738.28 281.335 1737.18 286.987 1746.2 289.204C1755.21 291.42 1764.46 288.042 1768.62 283.503C1772.78 278.964 1783.19 270.727 1789.19 271.467C1795.2 272.208 1803.37 277.301 1805.37 285.932C1808.04 297.449 1800.37 309.631 1791.62 313.173C1784.62 316.01 1759.36 316.945 1747.01 312.331C1731.26 306.444 1730.83 286.641 1738.23 278.01Z" fill="#A6C1DC"/>
<path d="M1794.78 310.916C1787.77 313.749 1762.51 314.684 1750.17 310.074C1734.45 304.192 1731.16 294.678 1759.77 291.207C1759.69 290.773 1759.58 289.917 1759.5 288.805C1755.48 290.002 1750.82 290.334 1746.21 289.199C1737.19 286.983 1739.17 281.911 1739.11 278.587C1731.71 287.222 1732.35 306.634 1748.1 312.521C1760.44 317.136 1784.62 316.01 1791.62 313.173C1793.46 312.428 1795.26 311.293 1796.92 309.861C1796.22 310.265 1795.5 310.624 1794.78 310.916Z" fill="#95AEC7"/>
<path d="M1787.57 272.66C1787.58 273.613 1788.31 275.36 1788.97 277.031C1790.35 280.524 1794.99 298.965 1787.71 308.891C1789.56 311.001 1792.41 310.886 1794.03 308.984C1795.65 307.082 1797.38 296.31 1796.46 288.184C1795.54 280.054 1792.76 275.196 1792.88 273.719C1792.99 272.243 1793.9 270.075 1791.81 269.393C1789.36 268.59 1787.54 271.139 1787.57 272.66Z" fill="#65809D"/>
<path d="M1801.81 280.085C1801.85 280.143 1801.92 280.174 1801.99 280.174C1801.99 280.174 1801.99 280.174 1801.99 280.174C1802.12 280.174 1802.22 280.072 1802.22 279.948C1802.22 279.895 1802.2 279.846 1802.17 279.806C1801.48 278.636 1800.58 277.439 1799.49 276.326C1796.3 273.524 1792.43 271.862 1789.2 271.463C1783.19 270.723 1772.79 278.959 1768.63 283.499C1764.47 288.038 1755.22 291.416 1746.21 289.199C1737.6 287.08 1738.21 281.836 1738.23 278.467C1737.97 278.591 1737.73 278.738 1737.52 278.906C1737.22 279.323 1736.92 279.762 1736.65 280.218C1736.2 281.393 1736.17 282.891 1736.59 284.332C1737.35 286.947 1739.45 289.133 1742.49 290.498C1745.16 291.7 1748.36 292.333 1751.75 292.333C1758.25 292.333 1764.66 290.108 1768.9 286.389C1773.27 282.554 1783.5 273.578 1790.79 273.578C1791.9 273.578 1792.91 273.79 1793.8 274.203C1793.81 274.207 1793.82 274.207 1793.82 274.211C1795.91 274.934 1800.17 277.913 1801.81 280.085Z" fill="#65809D"/>
<path d="M1744.44 277.377C1744.44 277.377 1738.62 276.689 1737.23 278.795C1735.67 281.171 1736.27 286.721 1742.57 289.55C1750.61 293.158 1762.24 291.176 1768.74 285.476C1774.58 280.356 1786.7 269.925 1793.89 273.254C1795.97 273.963 1800.26 276.902 1801.99 279.203C1799.83 275.479 1794.54 270.412 1788.13 270.647C1781.71 270.887 1775.86 274.961 1767.94 282.607C1761.78 288.548 1750.86 290.29 1744.27 287.599C1737.69 284.904 1738.98 279.442 1740.11 278.729C1741.24 278.019 1743.24 277.935 1743.24 277.935L1744.44 277.377Z" fill="#B6D1ED"/>
<path d="M1740.11 278.724C1739.6 279.048 1739.06 280.329 1739.21 281.889C1738.88 280.121 1739.48 278.605 1740.03 278.25C1741.16 277.536 1743.16 277.461 1743.16 277.461L1743.49 277.306C1744.06 277.341 1744.44 277.381 1744.44 277.381L1743.22 277.935C1743.22 277.931 1741.23 278.011 1740.11 278.724Z" fill="#DBECFD"/>
<path d="M1742.5 289.071C1750.54 292.679 1762.17 290.698 1768.67 284.997C1774.51 279.877 1786.62 269.446 1793.82 272.775C1795.55 273.369 1798.84 275.524 1800.88 277.554C1801.31 278.117 1801.68 278.671 1801.99 279.198C1800.25 276.902 1795.97 273.963 1793.88 273.249C1786.69 269.925 1774.57 280.355 1768.73 285.471C1762.24 291.172 1750.6 293.154 1742.56 289.545C1738.51 287.723 1736.82 284.771 1736.54 282.266C1736.98 284.664 1738.7 287.364 1742.5 289.071Z" fill="#DBECFD"/>
<path d="M1737.56 278.414C1738.9 277.199 1742.03 277.212 1743.56 277.306L1743.09 277.523C1743.09 277.523 1741.09 277.603 1739.97 278.316C1739.32 278.729 1738.61 280.741 1739.41 282.887C1739.89 284.558 1741.25 286.367 1744.26 287.595C1750.85 290.285 1761.77 288.543 1767.93 282.603C1775.85 274.956 1781.71 270.882 1788.12 270.643C1793.08 270.461 1797.37 273.453 1800.06 276.543C1798.09 274.548 1795.42 272.802 1793.89 272.279C1785.77 268.67 1773.96 279.194 1768.12 284.314C1761.61 290.015 1750.99 292.134 1742.95 288.525C1736.75 285.746 1736.09 280.834 1737.56 278.414Z" fill="#DBECFD"/>
<path d="M1788.27 271.361C1788.28 272.314 1789.01 274.056 1789.67 275.732C1791.05 279.225 1796.24 298.393 1788.96 308.319C1790.81 310.429 1793.12 309.587 1794.74 307.685C1796.36 305.783 1798.09 295.015 1797.17 286.885C1796.24 278.755 1793.47 273.897 1793.59 272.416C1793.7 270.935 1794.61 268.772 1792.52 268.094C1790.06 267.287 1788.24 269.836 1788.27 271.361Z" fill="#DBECFD"/>
<path d="M1790.28 275.528C1789.62 273.852 1788.89 272.106 1788.88 271.157C1788.86 270.12 1789.71 268.604 1791.02 268.001C1791.48 267.903 1791.98 267.921 1792.52 268.094C1792.68 268.147 1792.82 268.209 1792.95 268.28C1791.45 268.768 1790.47 270.439 1790.48 271.56C1790.5 272.514 1791.22 274.256 1791.88 275.931C1793.27 279.425 1798.45 298.593 1791.17 308.514C1791.49 308.877 1791.82 309.148 1792.16 309.347C1791.27 309.392 1790.38 309.037 1789.57 308.115C1796.85 298.185 1791.67 279.017 1790.28 275.528Z" fill="#B6D1ED"/>
<path d="M1834.52 288.805C1840.75 308.882 1862.07 320.115 1882.15 313.882C1902.23 307.654 1913.45 286.327 1907.22 266.25C1901 246.173 1879.67 234.948 1859.6 241.172C1839.52 247.405 1828.3 268.728 1834.52 288.805Z" fill="#A6C1DC"/>
<path d="M1855.28 255.318C1860.74 250.029 1856.84 244.324 1846.98 251.971C1840.78 256.776 1832.65 274.77 1838.22 287.178C1839.96 267.526 1844.26 266.002 1855.28 255.318Z" fill="#B6D1ED"/>
<path d="M1866.75 306.315C1885.19 300.592 1895.5 281.007 1889.78 262.575C1887.24 254.387 1881.97 247.822 1875.29 243.531C1888.2 245.41 1899.55 254.44 1903.67 267.735C1909.39 286.172 1899.08 305.765 1880.64 311.484C1870.37 314.667 1859.77 312.867 1851.38 307.49C1856.37 308.217 1861.6 307.906 1866.75 306.315Z" fill="#95AEC7"/>
<path d="M1834.04 286.907C1833.66 285.445 1833.37 283.986 1833.18 282.523C1834.33 279.544 1835.82 276.751 1837.71 274.207C1836.43 271.037 1835.28 268.413 1834.43 266.538C1834.74 265.532 1835.1 264.556 1835.48 263.585C1836.21 265.137 1837.6 268.178 1839.28 272.256C1840.33 271.042 1841.47 269.88 1842.69 268.785C1840.92 261.564 1841.75 255.659 1842.86 251.807C1844.03 250.526 1845.28 249.316 1846.63 248.203C1846.02 249.32 1842.36 256.688 1844.58 267.194C1847.43 264.929 1850.71 262.965 1854.38 261.298C1852 251.421 1857.03 244.586 1861.31 240.742C1862.9 240.326 1864.5 240.002 1866.1 239.802C1862.66 242.01 1853.88 248.895 1856.43 260.434C1871.75 254.223 1890.69 254.387 1903.67 258.266C1904.18 259.148 1904.66 260.061 1905.11 260.997C1892.59 256.568 1872.79 256.049 1857 262.557C1862.24 278.454 1882.8 283.303 1907.72 286.916C1907.54 287.63 1907.35 288.348 1907.13 289.044C1881.67 285.343 1860.63 280.28 1854.96 263.43C1851.75 264.915 1848.33 266.91 1845.16 269.57C1846.76 275.071 1856.18 302.237 1887.44 311.754C1886.46 312.224 1885.45 312.659 1884.42 313.058C1861.06 304.967 1847.91 286.105 1843.37 271.175C1842.27 272.216 1841.22 273.36 1840.22 274.588C1843.87 283.756 1848.3 296.837 1849.94 309.312C1849.1 308.762 1848.3 308.168 1847.51 307.552C1845.79 296.483 1841.98 285.094 1838.7 276.667C1836.7 279.566 1835.08 282.971 1834.04 286.907Z" fill="#65809D"/>
<path d="M779.496 721.426C779.496 731.351 745.585 739.398 703.749 739.398C661.917 739.398 628.006 731.356 628.006 721.426C628.006 711.501 661.917 703.454 703.754 703.454C745.585 703.454 779.496 711.501 779.496 721.426Z" fill="#DBE7F3"/>
<path d="M676.457 676.363C676.457 676.363 680.562 673.404 685.495 672.03C691.727 670.299 695.072 673.278 689.303 677.602C683.701 678.312 673.851 678.211 673.851 678.211L676.457 676.363Z" fill="#809DBB"/>
<path d="M712.078 677.531C712.465 677.258 723.714 671.656 733.194 670.177C748.645 667.765 761.642 673.089 746.413 685.649C731.118 685.658 712.078 677.531 712.078 677.531Z" fill="#809DBB"/>
<path d="M746.556 671.135C749.351 673.635 747.598 675.9 736.841 679.586C729.702 679.59 719.755 679.552 710.536 676.875C709.906 677.182 709.523 677.384 709.46 677.43C709.46 677.43 728.5 685.557 743.795 685.548C755.208 677.052 752.666 673.24 746.556 671.135Z" fill="#6F8AA7"/>
<path d="M748.061 682.103C734.168 669.148 693.904 669.337 673.998 677.72C667.678 678.052 668.674 684.187 673.208 692.062C677.747 699.936 701.262 726.464 741.829 717.573C748.208 693.923 748.061 682.103 748.061 682.103Z" fill="#B6D1ED"/>
<path d="M725.693 705.676C693.08 711.765 679.516 692.289 671.931 685.519C671.931 685.519 672.927 696.835 693.467 709.009C704.976 715.833 716.326 717.342 733.349 718.291C729.97 715.762 726.344 710.538 725.693 705.676Z" fill="#A6BED6"/>
<path d="M723.987 717.879C723.234 718.527 722.108 718.959 721.217 719.228C726.197 719.56 731.55 719.35 737.261 718.442C740.715 709.252 742.959 678.682 742.959 678.682C742.959 678.682 738.03 675.152 732.025 675.573C734.399 676.295 735.879 677.955 732.492 678.304C729.101 678.653 726.785 675.186 726.785 675.186C726.785 675.186 725.004 677.064 727.016 678.972C729.029 680.88 727.403 683.666 723.84 682.456C720.28 681.241 711.859 684.208 711.859 684.208C711.859 684.208 722.415 682.884 720.81 686.586C719.209 690.288 714.355 689.763 714.355 689.763C714.355 689.763 715.074 692.36 717.81 691.898C720.545 691.431 722.096 695.709 718.99 696.966C715.885 698.226 713.032 694.117 713.032 694.117C713.032 694.117 711.401 696.772 714.721 698.651C718.036 700.525 720.608 703.857 719.209 705.332C717.809 706.807 713.519 702.735 709.8 705.445C712.809 705.5 718.205 706.794 717.625 709.555C717.045 712.316 712.553 710.601 712.553 710.601C712.553 710.601 715.053 716.157 721.407 714.161C720.02 716.157 715.961 715.871 716.015 717.963C717.692 716.997 725.394 716.665 723.987 717.879Z" fill="#9AB7D3"/>
<path d="M733.349 718.287C729.97 715.761 726.348 710.538 725.697 705.676C722.167 706.336 718.86 706.693 715.763 706.803C717.036 707.467 717.877 708.374 717.629 709.551C717.049 712.312 712.557 710.597 712.557 710.597C712.557 710.597 715.057 716.152 721.411 714.156C720.364 715.665 717.797 715.871 716.62 716.783C717.629 716.93 718.654 717.064 719.696 717.186C721.94 716.993 724.264 717.094 724.155 717.648C727.037 717.9 730.088 718.106 733.349 718.287Z" fill="#95AEC7"/>
<path d="M678.171 678.111C678.171 678.111 680.083 662.071 670.254 662C669.28 662.857 666.531 678.754 670.914 687.133C678.894 680.258 678.171 678.111 678.171 678.111Z" fill="#B6D1ED"/>
<path d="M748.061 682.103C746.565 680.708 744.758 679.464 742.707 678.367C741.598 678.548 740.4 678.838 739.102 679.27C732.773 681.384 727.571 687.628 725.592 695.512C723.197 705.063 726.407 714.459 732.941 719.001C735.807 718.711 738.77 718.245 741.833 717.573C748.208 693.923 748.061 682.103 748.061 682.103Z" fill="#B6D1ED"/>
<path d="M756.141 703.088C753.7 712.82 746.018 719.279 738.984 717.514C731.95 715.749 728.227 706.429 730.668 696.697C733.11 686.964 740.791 680.506 747.825 682.271C754.86 684.036 758.583 693.356 756.141 703.088Z" fill="#536B86"/>
<path d="M747.825 682.271C746.88 682.035 745.926 681.951 744.972 681.998C750.107 685.254 752.523 693.263 750.439 701.579C748.325 710.005 742.283 715.972 736.139 716.278C737.013 716.833 737.963 717.257 738.988 717.514C746.023 719.279 753.704 712.82 756.145 703.088C758.583 693.356 754.86 684.036 747.825 682.271Z" fill="#415770"/>
<path d="M678.512 689.515C681.609 688.023 687.542 688.204 695.009 689.94C702.48 691.675 715.667 695.188 711.196 702.273C706.725 709.362 666.897 731.318 650.837 723.804C634.785 716.291 654.026 701.31 678.512 689.515Z" fill="#A6C1DC"/>
<path d="M651.127 721.207C666.935 728.603 706.141 706.988 710.54 700.012C710.906 699.436 710.612 696.264 706.468 694.566C697.53 702.68 665.031 719.325 651.185 712.845C650.059 712.316 649.122 711.748 648.349 711.148C644.197 716.316 648.278 719.875 651.127 721.207Z" fill="#95AEC7"/>
<path d="M684.319 674.488C683.151 675.619 684.886 677.371 686.962 678.371C692.294 680.939 712.179 681.918 720.617 678.615C724.773 676.989 725.058 674.463 724.802 672.963C711.75 670.98 696.467 671.677 684.319 674.488Z" fill="#95AEC7"/>
<path d="M688.042 673.711C684.542 674.379 686.416 676.329 688.802 677.316C693.559 679.283 711.322 679.976 718.873 677.396C723.02 675.98 722.873 673.719 722.541 672.652C711.334 671.236 698.766 671.702 688.042 673.711Z" fill="#536B86"/>
<path d="M670.813 679.401C667.968 679.968 656.366 686.838 662.195 689.696C667.973 692.524 680.529 686.469 681.251 683.573C681.945 680.796 674.583 678.649 670.813 679.401Z" fill="#A6C1DC"/>
<path d="M680.575 683.086C680.609 682.956 680.323 681.834 679.041 681.506C676.251 684.506 666.523 688.389 661.666 686.179C660.825 687.41 661.754 688.692 662.266 688.944C667.809 691.65 679.877 685.864 680.575 683.086Z" fill="#95AEC7"/>
<path d="M673.952 672.173L672.187 670.98L670.347 672.047L670.775 669.66L669.38 667.916L671.406 667.639L672.385 665.492L673.208 667.702L675.209 668.122L673.692 669.765L673.952 672.173Z" fill="#9AB7D3"/>
<path opacity="0.7" d="M763.167 704.714C760.285 716.194 751.225 723.817 742.926 721.733C734.627 719.648 730.231 708.656 733.114 697.176C735.992 685.695 745.056 678.073 753.355 680.153C761.654 682.237 766.046 693.23 763.167 704.714Z" fill="#CDEAFC"/>
<path d="M754.129 680.381C753.876 680.297 753.616 680.221 753.355 680.158C745.056 678.078 735.992 685.696 733.114 697.181C731.236 704.661 732.45 711.939 735.82 716.674C732.807 711.939 731.79 705.005 733.58 697.878C736.463 686.398 745.523 678.776 753.822 680.86C755.612 681.309 757.221 682.175 758.612 683.368C757.326 682.032 755.822 681.015 754.129 680.381Z" fill="white"/>
<path opacity="0.7" d="M759.121 686.624C759.906 686.944 760.738 686.956 761.474 686.843C760.667 685.376 759.688 684.095 758.553 683.031L754.129 680.38C754.129 680.38 747.893 682.212 748.073 684.04C748.25 685.864 758.982 691.204 753.086 690.709C747.191 690.209 748.367 695.146 749.342 697.474C750.317 699.802 750.67 698.222 750.67 698.222C750.67 698.222 749.132 694.47 752.124 693.738C755.112 693.003 758.885 697.352 760.255 694.701C761.617 692.049 757.007 685.763 759.121 686.624Z" fill="white"/>
<path opacity="0.7" d="M747.779 712.677C744.06 710.421 747.061 710.211 748.611 709.647C750.166 709.084 750.158 703.853 748.435 702.853L748.447 703.378C748.447 703.378 748.061 708.488 744.754 707.004C741.447 705.521 736.694 703.815 739.035 708.328C741.375 712.845 746.481 718.068 742.27 717.005C739.808 716.383 737.274 716.295 735.593 716.333C737.413 719.039 739.913 720.976 742.926 721.733C745.594 722.401 748.338 722.065 750.935 720.922C752.137 719.737 753.254 718.539 753.923 717.61C755.94 714.816 751.498 714.93 747.779 712.677Z" fill="white"/>
<path d="M754.011 702.567C753.423 704.79 750.401 705.168 749.057 704.832C747.716 704.496 747.006 702.718 747.468 700.861C747.935 699.004 749.401 697.772 750.742 698.109C752.086 698.445 754.608 700.31 754.011 702.567Z" fill="#536B86"/>
<path d="M753.427 702.285C753.187 703.197 751.948 703.353 751.397 703.214C750.847 703.075 750.557 702.348 750.746 701.588C750.935 700.827 751.536 700.323 752.086 700.457C752.637 700.596 753.671 701.361 753.427 702.285Z" fill="#6F89A7"/>
<path opacity="0.6" d="M766.411 696.02C766.268 696.024 766.147 695.911 766.142 695.768C765.932 689.528 763.743 684.006 760.142 680.624C760.037 680.527 760.032 680.359 760.129 680.254C760.23 680.149 760.394 680.145 760.499 680.241C764.201 683.72 766.445 689.372 766.659 695.751C766.672 695.894 766.558 696.016 766.411 696.02Z" fill="white"/>
<path opacity="0.6" d="M768.638 690.646C768.512 690.65 768.399 690.562 768.374 690.431C767.214 684.296 764.213 679.174 760.133 676.379C760.016 676.295 759.986 676.136 760.066 676.018C760.146 675.9 760.31 675.867 760.427 675.951C764.617 678.825 767.701 684.069 768.886 690.339C768.911 690.482 768.819 690.62 768.68 690.646C768.668 690.641 768.651 690.646 768.638 690.646Z" fill="white"/>
<path opacity="0.6" d="M747.867 725.01C743.884 725.115 739.509 723.943 735.383 721.607C735.257 721.535 735.211 721.376 735.282 721.249C735.353 721.123 735.513 721.077 735.639 721.153C741.073 724.229 746.922 725.246 751.687 723.939C751.826 723.901 751.969 723.981 752.011 724.124C752.048 724.262 751.964 724.405 751.826 724.447C750.569 724.788 749.241 724.977 747.867 725.01Z" fill="white"/>
<path opacity="0.6" d="M747.67 727.948C744.783 728.023 741.699 727.544 738.627 726.51C738.488 726.464 738.417 726.317 738.463 726.178C738.509 726.044 738.656 725.968 738.795 726.015C744.711 728.006 750.649 727.893 755.082 725.712C755.212 725.649 755.368 725.704 755.431 725.834C755.494 725.96 755.444 726.12 755.313 726.183C753.069 727.284 750.46 727.872 747.67 727.948Z" fill="white"/>
<path d="M683.705 675.879C683.714 676.258 683.415 676.573 683.037 676.585C682.659 676.594 682.344 676.295 682.335 675.917C682.327 675.539 682.625 675.224 683.003 675.215C683.382 675.203 683.697 675.501 683.705 675.879Z" fill="#809DBB"/>
<path d="M687.538 679.527C687.546 679.905 687.248 680.22 686.869 680.229C686.491 680.237 686.176 679.939 686.168 679.56C686.159 679.182 686.458 678.867 686.836 678.854C687.214 678.85 687.529 679.149 687.538 679.527Z" fill="#809DBB"/>
<path d="M694.992 681.25C695 681.628 694.702 681.943 694.324 681.951C693.946 681.96 693.631 681.661 693.618 681.283C693.61 680.905 693.908 680.59 694.286 680.582C694.668 680.573 694.984 680.871 694.992 681.25Z" fill="#809DBB"/>
<path d="M704.153 681.531C704.161 681.909 703.863 682.225 703.484 682.237C703.106 682.246 702.791 681.947 702.783 681.569C702.774 681.191 703.073 680.876 703.451 680.863C703.829 680.855 704.144 681.153 704.153 681.531Z" fill="#809DBB"/>
<path d="M714.17 681.355C714.179 681.733 713.88 682.048 713.502 682.061C713.124 682.069 712.809 681.771 712.796 681.393C712.788 681.014 713.086 680.699 713.464 680.691C713.847 680.678 714.162 680.976 714.17 681.355Z" fill="#809DBB"/>
<path d="M723.432 678.846C723.44 679.224 723.142 679.539 722.764 679.552C722.386 679.56 722.07 679.262 722.058 678.884C722.049 678.506 722.348 678.191 722.726 678.182C723.104 678.165 723.423 678.464 723.432 678.846Z" fill="#809DBB"/>
<path d="M726.529 673.967C726.537 674.346 726.239 674.661 725.861 674.673C725.478 674.682 725.167 674.383 725.155 674.005C725.146 673.627 725.445 673.312 725.823 673.303C726.205 673.291 726.516 673.589 726.529 673.967Z" fill="#809DBB"/>
<path d="M719.961 676.959L720.07 672.543C720.087 671.963 719.625 671.48 719.045 671.467C718.461 671.45 717.982 671.913 717.969 672.492L717.86 676.921C717.852 677.195 717.952 677.443 718.116 677.632C718.377 677.556 718.629 677.476 718.873 677.396C719.276 677.258 719.638 677.111 719.961 676.959Z" fill="#394E66"/>
<path d="M713.801 678.417L712.666 674.131C712.519 673.568 711.944 673.236 711.38 673.383C710.822 673.53 710.485 674.106 710.632 674.669L711.708 678.737C712.431 678.67 713.133 678.585 713.809 678.493C713.805 678.472 713.805 678.447 713.801 678.417Z" fill="#394E66"/>
<path opacity="0.7" d="M719.314 677.232C719.402 677.199 719.49 677.165 719.575 677.127C719.596 677.119 719.617 677.111 719.642 677.102C719.738 677.06 719.831 677.022 719.923 676.976C719.928 676.976 719.932 676.972 719.936 676.972C722.991 675.56 722.844 673.614 722.541 672.648C721.65 670.261 718.058 664.517 714.465 663.824C704.22 665.672 701.804 679.027 701.804 679.027C701.837 679.035 703.476 679.065 705.35 679.06C707.872 679.031 710.376 678.896 712.662 678.64C714.326 678.447 715.856 678.199 717.184 677.875C717.205 677.871 717.221 677.867 717.238 677.863C717.423 677.817 717.608 677.77 717.789 677.724C717.805 677.72 717.818 677.716 717.835 677.711C717.986 677.669 718.137 677.627 718.284 677.585C718.327 677.573 718.369 677.56 718.411 677.548C718.57 677.497 718.726 677.447 718.877 677.396C718.999 677.354 719.121 677.312 719.234 677.27C719.259 677.258 719.285 677.245 719.314 677.232Z" fill="white"/>
<path opacity="0.7" d="M714.78 664.298C713.305 664.513 711.25 666.004 711.25 666.004C711.25 666.004 716.973 666.597 720.6 670.249C719.125 667.147 717.205 665.412 714.78 664.298Z" fill="white"/>
<path d="M505.006 773.75C505.006 783.1 466.057 790.678 418.006 790.678C369.955 790.678 331.006 783.1 331.006 773.75C331.006 764.399 369.955 756.821 418.006 756.821C466.053 756.816 505.006 764.399 505.006 773.75Z" fill="#DBE7F3"/>
<path d="M421.224 663.639C421.224 663.639 431.105 660.943 436.113 666.297C435.398 660.222 414.614 643.658 400.231 660.013C413.733 663.595 421.224 663.639 421.224 663.639Z" fill="#99B4D0"/>
<path d="M465.581 690.244C468.355 692.109 473.037 704.029 466.9 712.445C460.757 720.87 454.303 725.577 456.43 730.522C458.557 735.467 464.364 744.005 459.433 749.257C454.507 754.518 448.773 751.676 448.773 751.676L450.122 767.154C450.122 767.154 463.95 765.757 466.588 753.525C469.226 741.313 460.037 735.122 463.03 730.288C466.028 725.455 474.975 716.119 476.133 709.441C477.306 702.754 465.581 690.244 465.581 690.244Z" fill="#6F8AA7"/>
<path d="M476.138 709.437C477.063 704.165 469.976 695.302 466.943 691.778C467.493 692.605 468.029 693.695 468.511 694.98C471.621 699.147 474.979 704.686 474.342 708.414C473.164 715.107 464.227 724.443 461.234 729.271C458.226 734.09 467.42 740.296 464.777 752.508C462.704 762.102 453.767 765.027 450.014 765.84L450.126 767.149C450.126 767.149 463.955 765.752 466.593 753.521C469.231 741.308 460.041 735.117 463.035 730.284C466.033 725.45 474.979 716.115 476.138 709.437Z" fill="#B6D1ED"/>
<path d="M465.58 690.244C465.58 690.244 466.111 690.838 466.938 691.778C466.471 691.072 465.994 690.536 465.58 690.244Z" fill="#FCC353"/>
<path d="M424.631 664.836C430.482 665.659 445.498 664.428 461.093 674.245C476.673 684.068 480.757 698.85 474.712 713.569C476.279 700.115 466.817 686.268 444.485 686.54C433.31 675.535 424.631 664.836 424.631 664.836Z" fill="#B6D1ED"/>
<path d="M446.612 771.34C450.866 767.957 451.012 765.602 451.032 758.763C451.027 751.9 454.176 690.916 444.772 677.774C435.368 664.647 412.083 654.167 388.836 661.274C365.584 668.36 357.607 678.553 359.515 710.551C361.418 742.54 413.869 782.506 425.468 782.452C431.801 782.443 442.713 774.446 446.612 771.34Z" fill="#95AEC7"/>
<path d="M422.82 695.039C429.664 720.378 436.254 753.949 440.177 751.101C446.559 746.477 444.836 696.684 444.84 690.025C444.84 688.911 443.901 683.951 443.998 680.402C451.256 697.351 448.554 750.07 448.549 756.339C448.54 762.993 448.403 765.28 444.256 768.58C440.46 771.598 429.849 779.367 423.701 779.391C412.404 779.44 361.403 740.578 359.563 709.461C358.39 689.904 361.024 678.743 368.748 671.407C385.195 692.722 415.135 695.073 422.82 695.039Z" fill="#88A2BC"/>
<path d="M391.163 666.487C402.188 668.463 422.124 678.159 424.904 694.562C427.698 710.975 432.755 776.008 427.634 781.479C422.504 786.94 365.955 775.302 360.513 760.651C355.076 746 355.348 712.664 357.456 696.572C359.569 680.48 363.497 661.536 391.163 666.487Z" fill="#A6C1DC"/>
<path d="M395.378 716.981C403.725 718.081 419.359 705.582 421.496 696.489C424.154 712.109 428.968 773.988 424.095 779.177C419.209 784.39 365.399 773.302 360.24 759.376C355.071 745.426 355.319 713.7 357.324 698.402C359.549 712.571 371.104 713.773 395.378 716.981Z" fill="#B6D1ED"/>
<path d="M439.88 728.531C439.88 728.531 439.905 728.541 439.919 728.536C440.207 728.536 440.43 728.312 440.426 728.03C440.421 726.643 440.056 693.919 437.349 686.044C434.862 678.84 419.067 659.366 390.101 660.388C389.829 660.407 389.605 660.631 389.62 660.918C389.615 661.201 389.863 661.405 390.131 661.4C418.196 660.402 434.078 679.633 436.395 686.37C439.063 694.09 439.423 727.689 439.418 728.03C439.423 728.303 439.632 728.522 439.88 728.531Z" fill="#B6D1ED"/>
<path d="M407.182 727.149C413.329 730.892 415.558 738.987 416.108 747.397C416.678 755.813 416.873 779.347 410.905 782.282C400.625 787.349 358.25 771.257 355.514 763.596C352.788 755.935 349.001 716.825 358.211 714.289C365.195 712.381 390.326 716.879 407.182 727.149Z" fill="#99B4D0"/>
<path d="M401.297 729.885C406.213 732.357 408.719 737.638 409.44 747.062C410.15 756.485 409.26 781.343 400.012 783.051C391.158 784.677 356.716 772.883 353.406 765.022C349.264 755.141 348.583 724.847 354.282 719.22C359.267 714.309 390.822 724.608 401.297 729.885Z" fill="#B6D1ED"/>
<path d="M442.606 731.831C443.409 729.091 441.37 724.633 439.866 724.706C437.992 724.798 437.062 730.785 438.065 732.289C438.771 733.36 442.309 732.873 442.606 731.831Z" fill="#E0ECF9"/>
<path d="M412.457 759.065C413.27 756.319 411.231 751.866 409.737 751.944C407.858 752.041 406.923 758.013 407.921 759.522C408.622 760.588 412.161 760.097 412.457 759.065Z" fill="#E0ECF9"/>
<path d="M376.083 690.979C375.679 697.059 379.359 702.272 384.304 702.593C389.235 702.919 393.572 698.246 393.971 692.157C394.38 686.073 390.7 680.875 385.76 680.548C380.824 680.217 376.492 684.89 376.083 690.979Z" fill="#E0ECF9"/>
<path d="M377.66 691.077C377.373 695.438 379.997 699.166 383.54 699.395C387.074 699.629 390.175 696.29 390.462 691.928C390.754 687.572 388.12 683.839 384.587 683.605C381.048 683.372 377.938 686.725 377.66 691.077Z" fill="#B6D1ED"/>
<path d="M164.709 719.65C164.709 726.413 136.536 731.895 101.778 731.895C67.0207 731.895 38.8472 726.413 38.8472 719.65C38.8472 712.886 67.0207 707.404 101.778 707.404C136.536 707.404 164.709 712.886 164.709 719.65Z" fill="#DBE7F3"/>
<path d="M104.408 709.165C104.408 709.777 104.035 710.27 103.57 710.27C103.109 710.27 102.736 709.777 102.736 709.165V697.444C102.736 696.835 103.109 696.339 103.57 696.339C104.032 696.339 104.408 696.831 104.408 697.444V709.165Z" fill="#6F8AA7"/>
<path d="M95.5641 708.355H92.6912V713.309H95.5641V708.355Z" fill="#6F8AA7"/>
<path d="M113.112 715.358C113.112 716.851 111.901 718.062 110.408 718.062H96.7366C95.2438 718.062 94.0326 716.851 94.0326 715.358V707.887C94.0326 706.394 95.2438 705.183 96.7366 705.183H110.408C111.901 705.183 113.112 706.394 113.112 707.887V715.358V715.358Z" fill="#A6C1DC"/>
<path d="M107.334 711.622C107.334 713.7 105.648 715.386 103.57 715.386C101.49 715.386 99.8066 713.7 99.8066 711.622C99.8066 709.545 101.49 707.859 103.57 707.859C105.651 707.859 107.334 709.545 107.334 711.622Z" fill="#C8DBEE"/>
<path d="M105.95 710.436C105.95 711.091 105.419 711.626 104.76 711.626C104.106 711.626 103.57 711.094 103.57 710.436C103.57 709.781 104.102 709.246 104.76 709.246C105.415 709.246 105.95 709.781 105.95 710.436Z" fill="white"/>
<path d="M104.408 679.84C104.408 680.453 104.035 680.946 103.57 680.946C103.109 680.946 102.736 680.453 102.736 679.84V668.119C102.736 667.51 103.109 667.014 103.57 667.014C104.031 667.014 104.408 667.51 104.408 668.119V679.84Z" fill="#A6C1DC"/>
<path d="M109.911 675.763C109.911 676.64 109.2 677.347 108.327 677.347H98.817C97.9403 677.347 97.2327 676.636 97.2327 675.763C97.2327 674.89 97.9439 674.179 98.817 674.179H108.327C109.203 674.179 109.911 674.89 109.911 675.763Z" fill="#95AEC7"/>
<path d="M106.545 667.971C106.545 669.612 105.214 670.943 103.574 670.943C101.929 670.943 100.602 669.612 100.602 667.971C100.602 666.331 101.933 665 103.574 665C105.214 665 106.545 666.331 106.545 667.971Z" fill="#C0DAF5"/>
<path d="M75.3931 692.107C75.3931 692.107 61.7781 693.12 59.0882 716.858C58.8629 718.812 59.0882 719.421 59.0882 719.421C59.0882 719.421 59.3875 720.199 60.1902 720.262C60.9965 720.329 61.5739 719.858 61.6865 719.101C61.7992 718.344 63.7251 701.482 81.4524 697.233C82.1988 695.479 79.8081 691.888 75.3931 692.107Z" fill="#C0DAF5"/>
<path d="M64.3378 718.956C64.3378 720.051 63.4506 720.938 62.3556 720.938H58.3947C57.2997 720.938 56.4125 720.051 56.4125 718.956C56.4125 717.861 57.2997 716.977 58.3947 716.977H62.3556C63.4506 716.974 64.3378 717.861 64.3378 718.956Z" fill="#A6C1DC"/>
<path d="M131.751 692.107C131.751 692.107 145.362 693.12 148.056 716.858C148.281 718.812 148.056 719.421 148.056 719.421C148.056 719.421 147.756 720.199 146.954 720.262C146.151 720.329 145.57 719.858 145.457 719.101C145.345 718.344 143.419 701.482 125.691 697.233C124.945 695.479 127.336 691.888 131.751 692.107Z" fill="#C0DAF5"/>
<path d="M142.806 718.956C142.806 720.051 143.693 720.938 144.788 720.938H148.749C149.844 720.938 150.731 720.051 150.731 718.956C150.731 717.861 149.844 716.977 148.749 716.977H144.788C143.693 716.974 142.806 717.861 142.806 718.956Z" fill="#A6C1DC"/>
<path d="M151.411 685.287C151.495 685.16 151.576 685.03 151.654 684.896C151.661 684.885 151.664 684.878 151.668 684.868C151.742 684.734 151.812 684.6 151.879 684.466C151.883 684.459 151.883 684.452 151.89 684.445C152.474 683.224 152.682 682.009 152.682 682.009C152.682 682.009 113.298 677.087 109.453 676.464C103.774 676.464 100.148 676.464 97.6904 676.464C91.11 677.481 54.4655 682.009 54.4655 682.009C54.4655 682.009 54.6802 683.283 55.3034 684.533C55.3034 684.537 55.3069 684.537 55.3069 684.54C55.3738 684.671 55.4407 684.801 55.5147 684.928C55.5182 684.928 55.5182 684.931 55.5182 684.935C55.5921 685.061 55.6696 685.185 55.7505 685.304C55.7576 685.311 55.7611 685.322 55.7682 685.329C55.8491 685.449 55.9372 685.568 56.0287 685.681C68.4395 685.815 75.2417 693.209 76.643 694.793C83.66 703.972 97.4862 703.229 103.567 703.222C103.588 703.222 103.634 703.218 103.658 703.218C103.658 703.218 103.697 703.215 103.771 703.211C109.82 702.813 123.53 703.915 130.501 694.793C131.906 693.209 138.704 685.815 151.115 685.681C151.214 685.561 151.309 685.431 151.397 685.301C151.4 685.297 151.407 685.29 151.411 685.287Z" fill="#C0DAF5"/>
<path d="M55.4617 684.523C66.2319 683.977 113.242 682.442 151.731 684.537C151.675 684.649 151.619 684.759 151.559 684.868C151.552 684.878 151.548 684.885 151.545 684.896C151.467 685.03 151.39 685.16 151.302 685.287C151.298 685.294 151.291 685.301 151.288 685.308C151.2 685.438 151.104 685.565 151.006 685.688C138.592 685.822 131.793 693.216 130.388 694.8C123.417 703.922 109.707 702.82 103.658 703.218C103.588 703.222 103.545 703.225 103.545 703.225C103.521 703.225 103.479 703.229 103.454 703.229C97.3734 703.236 83.5437 703.975 76.5302 694.8C75.1254 693.216 68.2775 685.839 55.8666 685.709L55.4054 684.942C55.4089 684.938 55.4688 684.537 55.4617 684.523Z" fill="#A6C1DC"/>
<path d="M96.3243 691.902C96.3243 691.723 96.4687 691.578 96.6483 691.578H110.492C110.672 691.578 110.816 691.723 110.816 691.902C110.816 692.082 110.672 692.226 110.492 692.226H96.6483C96.4687 692.226 96.3243 692.082 96.3243 691.902Z" fill="#6F8AA7"/>
<path d="M96.3243 694.673C96.3243 694.494 96.4687 694.349 96.6483 694.349H110.492C110.672 694.349 110.816 694.494 110.816 694.673C110.816 694.856 110.672 695.001 110.492 695.001H96.6483C96.4687 695.001 96.3243 694.856 96.3243 694.673Z" fill="#6F8AA7"/>
<path d="M96.3243 697.448C96.3243 697.268 96.4687 697.12 96.6483 697.12H110.492C110.672 697.12 110.816 697.265 110.816 697.448C110.816 697.627 110.672 697.772 110.492 697.772H96.6483C96.4687 697.775 96.3243 697.627 96.3243 697.448Z" fill="#6F8AA7"/>
<path opacity="0.5" d="M28.0031 671.425C28.0031 672.636 39.4774 673.619 53.6275 673.619C67.7812 673.619 79.2519 672.636 79.2519 671.425C79.2519 670.214 67.7776 669.232 53.6275 669.232C39.4774 669.232 28.0031 670.214 28.0031 671.425Z" fill="#D7EDFC"/>
<path d="M55.166 680.463C55.166 681.076 54.7928 681.569 54.3281 681.569C53.8669 681.569 53.4937 681.072 53.4937 680.463V668.742C53.4937 668.133 53.8669 667.637 54.3281 667.637C54.7893 667.637 55.166 668.133 55.166 668.742V680.463Z" fill="#C0DAF5"/>
<path d="M56.5497 667.176C56.5497 667.813 55.5885 668.331 54.402 668.331C53.2155 668.331 52.2578 667.813 52.2578 667.176C52.2578 666.538 53.219 666.021 54.402 666.021C55.5885 666.021 56.5497 666.538 56.5497 667.176Z" fill="#A6C1DC"/>
<path d="M58.4334 690.054C58.4334 692.209 56.6871 693.951 54.5358 693.951C52.3846 693.951 50.6383 692.205 50.6383 690.054V680.256C50.6383 678.104 52.3846 676.358 54.5358 676.358C56.6871 676.358 58.4334 678.104 58.4334 680.256V690.054Z" fill="#95AEC7"/>
<path opacity="0.5" d="M126.744 671.425C126.744 672.636 138.215 673.619 152.369 673.619C166.522 673.619 177.993 672.636 177.993 671.425C177.993 670.214 166.519 669.232 152.369 669.232C138.219 669.232 126.744 670.214 126.744 671.425Z" fill="#D7EDFC"/>
<path d="M153.436 680.463C153.436 681.076 153.059 681.569 152.598 681.569C152.136 681.569 151.763 681.072 151.763 680.463V668.742C151.763 668.133 152.136 667.637 152.598 667.637C153.059 667.637 153.436 668.133 153.436 668.742V680.463Z" fill="#C0DAF5"/>
<path d="M154.819 667.176C154.819 667.813 153.858 668.331 152.671 668.331C151.485 668.331 150.524 667.813 150.524 667.176C150.524 666.538 151.485 666.021 152.671 666.021C153.858 666.021 154.819 666.538 154.819 667.176Z" fill="#A6C1DC"/>
<path d="M156.703 690.054C156.703 692.209 154.956 693.951 152.805 693.951C150.654 693.951 148.908 692.205 148.908 690.054V680.256C148.908 678.104 150.654 676.358 152.805 676.358C154.956 676.358 156.703 678.104 156.703 680.256V690.054Z" fill="#95AEC7"/>
</g>
<defs>
<linearGradient id="paint0_linear" x1="957.99" y1="655.993" x2="1565.17" y2="75.0225" gradientUnits="userSpaceOnUse">
<stop stop-color="#D9E6F2"/>
<stop offset="1" stop-color="#E6EFF8"/>
</linearGradient>
<clipPath id="clip0">
<rect width="1920" height="3364" fill="white"/>
</clipPath>
</defs>
</svg>
