<svg width="36" height="36" viewBox="0 0 36 36" fill="none" xmlns="http://www.w3.org/2000/svg">
<circle cx="18" cy="18" r="18" fill="#3790EC"/>
<mask id="mask0" mask-type="alpha" maskUnits="userSpaceOnUse" x="0" y="0" width="36" height="36">
<circle cx="18" cy="18" r="18" fill="#3790EC"/>
</mask>
<g mask="url(#mask0)">
<path d="M17.9978 45C46.4971 18 25.9992 3.5 20.9992 -7.5C32.4993 -4 60.2992 3.3 61.4992 4.5C62.6992 5.7 56.9992 32 53.9991 45C32.4991 56.5 -3.57042 65.4336 17.9978 45Z" fill="#5FAAF8"/>
<circle cx="6.375" cy="11.625" r="2.625" fill="#5FAAF8"/>
</g>
<path d="M14.335 23.192C17.375 23.192 18.751 20.424 18.751 17.672C18.751 14.92 17.375 12.168 14.335 12.168C11.279 12.168 9.919 14.92 9.919 17.672C9.919 20.424 11.279 23.192 14.335 23.192ZM14.335 21.176C12.799 21.176 12.223 19.64 12.223 17.672C12.223 15.704 12.799 14.184 14.335 14.184C15.855 14.184 16.431 15.704 16.431 17.672C16.431 19.64 15.855 21.176 14.335 21.176ZM24.8169 23V12.328H22.8329L19.4729 15.704L20.7689 17.064L22.5449 15.256V23H24.8169Z" fill="white"/>
</svg>
