<svg width="36" height="36" viewBox="0 0 36 36" fill="none" xmlns="http://www.w3.org/2000/svg">
<circle cx="18" cy="18" r="18" fill="#3790EC"/>
<mask id="mask0" mask-type="alpha" maskUnits="userSpaceOnUse" x="0" y="0" width="36" height="36">
<circle cx="18" cy="18" r="18" fill="#3790EC"/>
</mask>
<g mask="url(#mask0)">
<path d="M17.9978 45C46.4971 18 25.9992 3.5 20.9992 -7.5C32.4993 -4 60.2992 3.3 61.4992 4.5C62.6992 5.7 56.9992 32 53.9991 45C32.4991 56.5 -3.57042 65.4336 17.9978 45Z" fill="#5FAAF8"/>
<circle cx="6.375" cy="11.625" r="2.625" fill="#5FAAF8"/>
</g>
<path d="M12.7256 23.192C15.7656 23.192 17.1416 20.424 17.1416 17.672C17.1416 14.92 15.7656 12.168 12.7256 12.168C9.66963 12.168 8.30963 14.92 8.30963 17.672C8.30963 20.424 9.66963 23.192 12.7256 23.192ZM12.7256 21.176C11.1896 21.176 10.6136 19.64 10.6136 17.672C10.6136 15.704 11.1896 14.184 12.7256 14.184C14.2456 14.184 14.8216 15.704 14.8216 17.672C14.8216 19.64 14.2456 21.176 12.7256 21.176ZM25.4635 23V20.792H26.8395V18.792H25.4635V12.328H22.3275L18.0875 19V20.792H23.1915V23H25.4635ZM23.1915 18.792H20.3115L23.1915 14.344V18.792Z" fill="white"/>
</svg>
