<svg width="36" height="36" viewBox="0 0 36 36" fill="none" xmlns="http://www.w3.org/2000/svg">
<circle cx="18" cy="18" r="18" fill="#3790EC"/>
<mask id="mask0" mask-type="alpha" maskUnits="userSpaceOnUse" x="0" y="0" width="36" height="36">
<circle cx="18" cy="18" r="18" fill="#3790EC"/>
</mask>
<g mask="url(#mask0)">
<path d="M17.9978 45C46.4971 18 25.9992 3.5 20.9992 -7.5C32.4993 -4 60.2992 3.3 61.4992 4.5C62.6992 5.7 56.9992 32 53.9991 45C32.4991 56.5 -3.57042 65.4336 17.9978 45Z" fill="#5FAAF8"/>
<circle cx="6.375" cy="11.625" r="2.625" fill="#5FAAF8"/>
</g>
<path d="M12.7022 23.192C15.7422 23.192 17.1182 20.424 17.1182 17.672C17.1182 14.92 15.7422 12.168 12.7022 12.168C9.64619 12.168 8.28619 14.92 8.28619 17.672C8.28619 20.424 9.64619 23.192 12.7022 23.192ZM12.7022 21.176C11.1662 21.176 10.5902 19.64 10.5902 17.672C10.5902 15.704 11.1662 14.184 12.7022 14.184C14.2222 14.184 14.7982 15.704 14.7982 17.672C14.7982 19.64 14.2222 21.176 12.7022 21.176ZM26.4481 23V21H22.0961C24.8641 18.984 26.3681 17.4 26.3681 15.576C26.3681 13.448 24.5601 12.168 22.2881 12.168C20.8001 12.168 19.2161 12.712 18.1761 13.912L19.4721 15.416C20.1921 14.664 21.1201 14.184 22.3361 14.184C23.2161 14.184 24.0641 14.648 24.0641 15.576C24.0641 16.888 22.7841 17.992 18.4161 21.224V23H26.4481Z" fill="white"/>
</svg>
