<svg width="36" height="36" viewBox="0 0 36 36" fill="none" xmlns="http://www.w3.org/2000/svg">
<circle cx="18" cy="18" r="18" fill="#3790EC"/>
<mask id="mask0" mask-type="alpha" maskUnits="userSpaceOnUse" x="0" y="0" width="36" height="36">
<circle cx="18" cy="18" r="18" fill="#3790EC"/>
</mask>
<g mask="url(#mask0)">
<path d="M17.9978 45C46.4971 18 25.9992 3.5 20.9992 -7.5C32.4993 -4 60.2992 3.3 61.4992 4.5C62.6992 5.7 56.9992 32 53.9991 45C32.4991 56.5 -3.57042 65.4336 17.9978 45Z" fill="#5FAAF8"/>
<circle cx="6.375" cy="11.625" r="2.625" fill="#5FAAF8"/>
</g>
<path d="M12.6319 23.192C15.6719 23.192 17.0479 20.424 17.0479 17.672C17.0479 14.92 15.6719 12.168 12.6319 12.168C9.57588 12.168 8.21588 14.92 8.21588 17.672C8.21588 20.424 9.57588 23.192 12.6319 23.192ZM12.6319 21.176C11.0959 21.176 10.5199 19.64 10.5199 17.672C10.5199 15.704 11.0959 14.184 12.6319 14.184C14.1519 14.184 14.7279 15.704 14.7279 17.672C14.7279 19.64 14.1519 21.176 12.6319 21.176ZM22.4898 23.192C25.0658 23.192 26.7618 21.768 26.7618 19.496C26.7618 17.336 25.1458 16.04 23.3378 16.04C22.3618 16.04 21.4978 16.424 20.9858 16.936V14.328H26.0417V12.328H18.7138V18.456L20.2978 18.872C20.9378 18.264 21.6578 18.008 22.5378 18.008C23.7538 18.008 24.4578 18.648 24.4578 19.592C24.4578 20.456 23.7378 21.176 22.4738 21.176C21.3538 21.176 20.3618 20.76 19.6418 20.008L18.3778 21.592C19.2898 22.584 20.6338 23.192 22.4898 23.192Z" fill="white"/>
</svg>
