<svg width="36" height="36" viewBox="0 0 36 36" fill="none" xmlns="http://www.w3.org/2000/svg">
<circle cx="18" cy="18" r="18" fill="#3790EC"/>
<mask id="mask0" mask-type="alpha" maskUnits="userSpaceOnUse" x="0" y="0" width="36" height="36">
<circle cx="18" cy="18" r="18" fill="#3790EC"/>
</mask>
<g mask="url(#mask0)">
<path d="M17.9978 45C46.4971 18 25.9992 3.5 20.9992 -7.5C32.4993 -4 60.2992 3.3 61.4992 4.5C62.6992 5.7 56.9992 32 53.9991 45C32.4991 56.5 -3.57042 65.4336 17.9978 45Z" fill="#5FAAF8"/>
<circle cx="6.375" cy="11.625" r="2.625" fill="#5FAAF8"/>
</g>
<path d="M12.8038 23.192C15.8438 23.192 17.2198 20.424 17.2198 17.672C17.2198 14.92 15.8438 12.168 12.8038 12.168C9.74775 12.168 8.38775 14.92 8.38775 17.672C8.38775 20.424 9.74775 23.192 12.8038 23.192ZM12.8038 21.176C11.2678 21.176 10.6918 19.64 10.6918 17.672C10.6918 15.704 11.2678 14.184 12.8038 14.184C14.3238 14.184 14.8998 15.704 14.8998 17.672C14.8998 19.64 14.3238 21.176 12.8038 21.176ZM22.2936 23.192C24.8536 23.192 26.5016 21.896 26.5016 20.056C26.5016 18.456 25.0936 17.608 24.0056 17.496C25.1896 17.288 26.3416 16.408 26.3416 15.064C26.3416 13.288 24.8056 12.168 22.3096 12.168C20.4376 12.168 19.0936 12.888 18.2296 13.864L19.3656 15.288C20.1176 14.568 21.0456 14.184 22.0696 14.184C23.1896 14.184 24.0536 14.6 24.0536 15.448C24.0536 16.232 23.2696 16.584 22.0856 16.584C21.6856 16.584 20.9496 16.584 20.7576 16.568V18.616C20.9176 18.6 21.6376 18.584 22.0856 18.584C23.5736 18.584 24.2296 18.968 24.2296 19.816C24.2296 20.616 23.5096 21.176 22.2136 21.176C21.1736 21.176 20.0056 20.728 19.2696 19.96L18.0856 21.48C18.8696 22.44 20.3256 23.192 22.2936 23.192Z" fill="white"/>
</svg>
