<svg width="36" height="36" viewBox="0 0 36 36" fill="none" xmlns="http://www.w3.org/2000/svg">
<circle cx="18" cy="18" r="18" fill="#3790EC"/>
<mask id="mask0" mask-type="alpha" maskUnits="userSpaceOnUse" x="0" y="0" width="36" height="36">
<circle cx="18" cy="18" r="18" fill="#3790EC"/>
</mask>
<g mask="url(#mask0)">
<path d="M17.9978 45C46.4971 18 25.9992 3.5 20.9992 -7.5C32.4993 -4 60.2992 3.3 61.4992 4.5C62.6992 5.7 56.9992 32 53.9991 45C32.4991 56.5 -3.57042 65.4336 17.9978 45Z" fill="#5FAAF8"/>
<circle cx="6.375" cy="11.625" r="2.625" fill="#5FAAF8"/>
</g>
<path d="M12.6319 23.192C15.6719 23.192 17.0479 20.424 17.0479 17.672C17.0479 14.92 15.6719 12.168 12.6319 12.168C9.57588 12.168 8.21588 14.92 8.21588 17.672C8.21588 20.424 9.57588 23.192 12.6319 23.192ZM12.6319 21.176C11.0959 21.176 10.5199 19.64 10.5199 17.672C10.5199 15.704 11.0959 14.184 12.6319 14.184C14.1519 14.184 14.7279 15.704 14.7279 17.672C14.7279 19.64 14.1519 21.176 12.6319 21.176ZM22.7458 23.192C25.1778 23.192 26.8258 21.608 26.8258 19.528C26.8258 17.256 25.1138 16.056 23.1938 16.056C22.0258 16.056 20.9538 16.712 20.4578 17.432C20.4418 17.352 20.4418 17.288 20.4418 17.208C20.4418 15.512 21.5458 14.184 23.1138 14.184C24.0578 14.184 24.6658 14.472 25.2418 15.016L26.2658 13.272C25.4978 12.616 24.4098 12.168 23.1138 12.168C19.9618 12.168 18.1378 14.456 18.1378 17.688C18.1378 20.696 19.4978 23.192 22.7458 23.192ZM22.6178 21.176C21.1298 21.176 20.5538 20.04 20.4578 19.016C20.9698 18.376 21.7378 18.008 22.5378 18.008C23.5618 18.008 24.5218 18.488 24.5218 19.608C24.5218 20.36 23.8498 21.176 22.6178 21.176Z" fill="white"/>
</svg>
