<svg width="109" height="93" fill="none" xmlns="http://www.w3.org/2000/svg"><path d="M70.571 79.97h4.18v4.18h-4.18v-4.18zm-12.52 0h4.18v4.18h-4.18v-4.18zm-12.53 0h4.18v4.18h-4.18v-4.18zm-8.34 4.18h-4.18v-4.18h4.18v4.18z" fill="#fff"/><path d="M17.341 44.49c0-2.88 2.34-5.22 5.22-5.22h62.62c2.88 0 5.22 2.34 5.22 5.22v40.7c0 2.88-2.34 5.22-5.22 5.22h-62.62c-2.88 0-5.22-2.34-5.22-5.22v-40.7z" fill="#fff"/><path d="M90.801 85.19c0 3.1-2.52 5.62-5.62 5.62h-62.62c-3.1 0-5.62-2.52-5.62-5.62v-40.7c0-3.1 2.52-5.62 5.62-5.62h62.62c3.1 0 5.62 2.52 5.62 5.62v40.7z" fill="#fff"/><path d="M19.001 46.09c0-2.88 2.34-5.22 5.22-5.22h62.62c2.88 0 5.22 2.34 5.22 5.22v40.7c0 2.88-2.34 5.22-5.22 5.22h-62.62c-2.88 0-5.22-2.34-5.22-5.22v-40.7z" fill="#CBD8F0"/><path d="M10.421 46.71h5.23v8.09h-4.99l-.02-.56-.21-6.94-.01-.59zm59.76 32.87h4.96v4.96h-4.96v-4.96zm-12.52 0h4.96v4.96h-4.96v-4.96zm-12.53 0h4.96v4.96h-4.96v-4.96zm-7.55 4.97h-4.98v-4.98h4.98v4.98zM9.011 57.94h-7.74l.01-.41.01-.54 1.45-53.27c.04-1.36 1.14-2.42 2.52-2.42h.17c1.39 0 2.48 1.06 2.52 2.42l1.45 53.27.01.54.01.41h-.41z" fill="#fff"/><path d="M3.081 58.58l.01-.54 1.44-53.27c.03-1.14.95-2.03 2.12-2.03h.2c1.14 0 2.06.89 2.09 2.03l1.45 53.27.01.54h-7.32z" fill="#CBD8F0"/><path d="M74.231 78.29h-3.13c-1.22 0-2.21.99-2.21 2.21v3.13c0 1.22.99 2.21 2.21 2.21h3.13c1.22 0 2.21-.99 2.21-2.21V80.5c0-1.22-.99-2.21-2.21-2.21zm.91 1.68v4.57h-4.97v-4.97h4.97v.4zm-13.44-1.68h-3.13c-1.22 0-2.21.99-2.21 2.21v3.13c0 1.22.99 2.21 2.21 2.21h3.13c1.22 0 2.21-.99 2.21-2.21V80.5c0-1.22-.99-2.21-2.21-2.21zm.92 1.68v4.57h-4.97v-4.97h4.97v.4zm-13.44-1.68h-3.13c-1.22 0-2.21.99-2.21 2.21v3.13c0 1.22.99 2.21 2.21 2.21h3.13c1.22 0 2.21-.99 2.21-2.21V80.5c0-1.22-.99-2.21-2.21-2.21zm.91 1.68v4.57h-4.97v-4.97h4.97v.4zm-13.44-1.68h-3.13c-1.22 0-2.21.99-2.21 2.21v3.13c0 1.22.99 2.21 2.21 2.21h3.13c1.22-.01 2.21-1 2.21-2.21V80.5c0-1.22-.99-2.21-2.21-2.21zm.93 1.69v4.57h-4.97v-4.97h4.97v.4zm20.99-36.13h-9.39c-.35 0-.64.29-.64.64 0 .35.29.64.64.64h9.39c.35 0 .64-.29.64-.64 0-.35-.29-.64-.64-.64zm-3.13 4.7h-3.13c-.35 0-.64.29-.64.64 0 .35.29.64.64.64h3.13c.35 0 .64-.29.64-.64 0-.35-.29-.64-.64-.64z" fill="#2B3C67"/><path d="M85.161 37.58h-62.62c-3.8 0-6.9 3.1-6.9 6.9v.92h-5.29l-.01-.39-.01-.51-1.11-40.83C9.171 1.61 7.501 0 5.421 0h-.2c-2.05 0-3.71 1.61-3.76 3.67L.001 56.95c-.02.59.21 1.18.63 1.6.41.42.99.66 1.59.66h6.24c.59 0 1.14-.23 1.56-.64.42-.42.65-.98.65-1.57v-.92h4.97v29.1c0 3.8 3.1 6.9 6.9 6.9h62.62c3.8 0 6.9-3.1 6.9-6.9v-40.7c0-3.8-3.09-6.9-6.9-6.9zM9.011 57.94h-7.74l.01-.41.01-.54 1.45-53.27c.04-1.36 1.14-2.42 2.52-2.42h.17c1.39 0 2.48 1.06 2.52 2.42l1.45 53.27.01.54.01.41h-.41zm6.64-10.84v7.7h-5.03l-.01-.39-.01-.51-.17-6.26-.02-.53-.01-.41h5.26v.4h-.01zm75.15 38.09c0 3.1-2.52 5.62-5.62 5.62h-62.62c-3.1 0-5.62-2.52-5.62-5.62v-40.7c0-3.1 2.52-5.62 5.62-5.62h62.62c3.1 0 5.62 2.52 5.62 5.62v40.7z" fill="#2B3C67"/><path d="M87.431 51.87c10.897 0 19.73-8.833 19.73-19.73s-8.833-19.73-19.73-19.73c-10.896 0-19.73 8.833-19.73 19.73s8.834 19.73 19.73 19.73z" fill="#fff"/><path d="M88.621 52.93c10.897 0 19.73-8.833 19.73-19.73s-8.833-19.73-19.73-19.73c-10.896 0-19.73 8.833-19.73 19.73s8.834 19.73 19.73 19.73z" fill="#3790EC"/><path d="M87.431 11.35c-11.46 0-20.79 9.33-20.79 20.79 0 11.46 9.33 20.79 20.79 20.79 11.46 0 20.79-9.33 20.79-20.79 0-11.46-9.33-20.79-20.79-20.79zm0 40.52c-10.88 0-19.73-8.85-19.73-19.73s8.85-19.73 19.73-19.73 19.73 8.85 19.73 19.73-8.85 19.73-19.73 19.73z" fill="#2B3C67"/><path d="M85.971 43.43c-.8-.8-.8-2.11 0-2.92.8-.8 2.11-.8 2.92 0 .8.8.8 2.11 0 2.92-.81.8-2.12.8-2.92 0z" fill="#fff"/><path d="M87.431 39.91c.53 0 1.06.2 1.46.6.8.8.8 2.11 0 2.92-.4.4-.93.6-1.46.6-.53 0-1.06-.2-1.46-.6-.8-.8-.8-2.11 0-2.92.4-.4.93-.6 1.46-.6zm0-1c-.82 0-1.59.32-2.16.89-1.19 1.2-1.19 3.15 0 4.33.58.58 1.34.89 2.16.89.82 0 1.59-.32 2.17-.89 1.19-1.21 1.19-3.15 0-4.34a3.15 3.15 0 00-2.17-.88z" fill="#2B3C67"/><path d="M91.951 37.96c-.34 0-.69-.13-.95-.39a5.064 5.064 0 00-7.15 0c-.52.52-1.37.52-1.9 0-.52-.52-.52-1.37 0-1.9 3.02-3.02 7.93-3.02 10.95 0 .52.52.52 1.37 0 1.9-.26.26-.61.39-.95.39z" fill="#fff"/><path d="M87.431 33.4c1.98 0 3.96.76 5.48 2.26.52.52.52 1.37 0 1.9a1.348 1.348 0 01-1.9 0 5.027 5.027 0 00-3.57-1.48c-1.3 0-2.59.49-3.58 1.48-.26.26-.6.39-.95.39-.34 0-.69-.13-.95-.39-.52-.52-.52-1.37 0-1.9 1.5-1.5 3.48-2.26 5.47-2.26zm0-1c-2.34 0-4.53.91-6.18 2.56-.91.93-.91 2.41 0 3.31.45.44 1.04.68 1.66.68.63 0 1.21-.24 1.65-.68a4.03 4.03 0 012.87-1.18c1.09 0 2.1.42 2.87 1.18.43.43 1.04.68 1.66.68.62 0 1.22-.25 1.66-.68.91-.93.91-2.41 0-3.31a8.733 8.733 0 00-6.19-2.56z" fill="#2B3C67"/><path d="M95.471 33.61c-.34 0-.69-.13-.95-.39-3.91-3.91-10.28-3.91-14.19 0-.52.52-1.37.52-1.9 0-.52-.52-.52-1.37 0-1.9 4.96-4.96 13.03-4.96 17.99 0 .52.52.52 1.37 0 1.9-.26.26-.61.39-.95.39z" fill="#fff"/><path d="M87.431 27.6c3.26 0 6.52 1.24 8.99 3.72.52.52.52 1.37 0 1.9a1.348 1.348 0 01-1.9 0 10.007 10.007 0 00-7.1-2.93c-2.58 0-5.14.98-7.1 2.93-.26.26-.6.39-.95.39s-.69-.13-.95-.39c-.52-.52-.52-1.37 0-1.9 2.49-2.48 5.75-3.72 9.01-3.72zm0-1c-3.67 0-7.11 1.43-9.7 4.01-.91.93-.9 2.41 0 3.31.45.44 1.04.68 1.66.68.63 0 1.21-.24 1.65-.68 1.7-1.7 3.97-2.64 6.39-2.64 2.42 0 4.69.94 6.39 2.64.43.43 1.04.68 1.66.68.62 0 1.22-.25 1.66-.68.91-.93.9-2.41 0-3.31-2.6-2.58-6.05-4.01-9.71-4.01z" fill="#2B3C67"/><path d="M75.861 29.26c-.34 0-.69-.13-.95-.39-.52-.52-.52-1.37 0-1.9 3.34-3.34 7.78-5.17 12.51-5.17 4.73 0 9.17 1.84 12.51 5.17.52.52.52 1.37 0 1.9-.52.52-1.37.52-1.9 0-2.83-2.83-6.6-4.39-10.61-4.39s-7.78 1.56-10.61 4.39c-.26.26-.6.39-.95.39z" fill="#fff"/><path d="M87.421 21.8c4.73 0 9.17 1.84 12.51 5.17.52.52.52 1.37 0 1.9-.26.26-.6.39-.95.39s-.69-.13-.95-.39c-2.83-2.83-6.6-4.39-10.61-4.39s-7.78 1.56-10.61 4.39c-.26.26-.6.39-.95.39-.34 0-.69-.13-.95-.39-.52-.52-.52-1.37 0-1.9 3.34-3.34 7.78-5.17 12.51-5.17zm0-1c-5 0-9.69 1.94-13.22 5.46-.91.93-.91 2.41 0 3.31.43.43 1.04.68 1.66.68.63 0 1.22-.24 1.66-.68 2.64-2.64 6.16-4.1 9.9-4.1s7.26 1.46 9.9 4.1c.45.44 1.04.68 1.66.68.63 0 1.21-.24 1.65-.68.91-.93.91-2.41 0-3.31a18.585 18.585 0 00-13.21-5.46z" fill="#2B3C67"/></svg>