<svg width="121" height="94" fill="none" xmlns="http://www.w3.org/2000/svg"><path d="M96.01 87.07c0 2.63-2.14 4.77-4.77 4.77H5.97c-2.63 0-4.77-2.14-4.77-4.77V21.91c0-2.63 2.14-4.77 4.77-4.77h85.27c2.63 0 4.77 2.14 4.77 4.77v65.16z" fill="#fff"/><path d="M96 87.339C96 89.909 93.9 92 91.321 92H7.68C5.099 92 3 89.909 3 87.339V23.66C3 21.091 5.1 19 7.679 19H91.32c2.581 0 4.68 2.091 4.68 4.661V87.34z" fill="#CBD8F0"/><path d="M19.56 40.61v8.72h-8.92v-8.92h8.92v.2zm0 15.73h-8.92v8.92h8.92v-8.92zm0 16.13h-8.92v8.92h8.92v-8.92z" fill="#fff"/><path d="M91.24 15.94H5.97A5.98 5.98 0 000 21.91v65.16a5.98 5.98 0 005.97 5.97h85.27a5.98 5.98 0 005.97-5.97V21.91a5.98 5.98 0 00-5.97-5.97zm4.77 71.13c0 2.63-2.14 4.77-4.77 4.77H5.97c-2.63 0-4.77-2.14-4.77-4.77V21.91c0-2.63 2.14-4.77 4.77-4.77h85.27c2.63 0 4.77 2.14 4.77 4.77v65.16z" fill="#2B3C67"/><path d="M33.72 24.3H9.32c-.55 0-1 .27-1 .6 0 .33.45.6 1 .6h24.4c.55 0 1-.27 1-.6 0-.33-.45-.6-1-.6z" fill="#2B3C67"/><path d="M33.72 24.54c.33 0 .6.16.6.36 0 .2-.27.36-.6.36H9.32c-.33 0-.6-.16-.6-.36 0-.2.27-.36.6-.36h24.4zm0-.24H9.32c-.55 0-1 .27-1 .6 0 .33.45.6 1 .6h24.4c.55 0 1-.27 1-.6 0-.33-.45-.6-1-.6zm23.27 0H38.75c-.55 0-1 .27-1 .6 0 .33.45.6 1 .6h18.24c.55 0 1-.27 1-.6 0-.33-.44-.6-1-.6z" fill="#2B3C67"/><path d="M56.99 24.54c.34 0 .6.16.6.36 0 .2-.27.36-.6.36H38.75c-.33 0-.6-.16-.6-.36 0-.2.27-.36.6-.36h18.24zm0-.24H38.75c-.55 0-1 .27-1 .6 0 .33.45.6 1 .6h18.24c.55 0 1-.27 1-.6 0-.33-.44-.6-1-.6zm31.18 0H62c-.53 0-.96.26-.96.58v.05c0 .32.43.58.96.58h26.17c.53 0 .96-.26.96-.58v-.05c-.01-.32-.44-.58-.96-.58z" fill="#2B3C67"/><path d="M88.17 24.54c.3 0 .55.15.56.34v.05c0 .19-.25.34-.56.34H62c-.31 0-.56-.15-.56-.34v-.05c0-.19.25-.34.56-.34h26.17zm0-.24H62c-.53 0-.96.26-.96.58v.05c0 .32.43.58.96.58h26.17c.53 0 .96-.26.96-.58v-.05c-.01-.32-.44-.58-.96-.58zm-21.83 5.8H9.31c-.55 0-1 .27-1 .6 0 .33.45.6 1 .6h57.03c.55 0 1-.27 1-.6 0-.33-.45-.6-1-.6z" fill="#2B3C67"/><path d="M66.34 30.34c.33 0 .6.16.6.36 0 .2-.27.36-.6.36H9.31c-.33 0-.6-.16-.6-.36 0-.2.27-.36.6-.36h57.03zm0-.24H9.31c-.55 0-1 .27-1 .6 0 .33.45.6 1 .6h57.03c.55 0 1-.27 1-.6 0-.33-.45-.6-1-.6zm21.78 0H71.55c-.55 0-1 .27-1 .6 0 .33.45.6 1 .6h16.57c.55 0 1-.27 1-.6 0-.33-.44-.6-1-.6z" fill="#2B3C67"/><path d="M88.12 30.34c.34 0 .6.16.6.36 0 .2-.27.36-.6.36H71.55c-.33 0-.6-.16-.6-.36 0-.2.27-.36.6-.36h16.57zm0-.24H71.55c-.55 0-1 .27-1 .6 0 .33.45.6 1 .6h16.57c.55 0 1-.27 1-.6 0-.33-.44-.6-1-.6zM51.17 41.37h-24.4c-.55 0-1 .27-1 .6 0 .33.45.6 1 .6h24.4c.55 0 1-.27 1-.6 0-.33-.44-.6-1-.6z" fill="#2B3C67"/><path d="M51.17 41.61c.34 0 .6.16.6.36 0 .2-.27.36-.6.36h-24.4c-.33 0-.6-.16-.6-.36 0-.2.27-.36.6-.36h24.4zm0-.24h-24.4c-.55 0-1 .27-1 .6 0 .33.45.6 1 .6h24.4c.55 0 1-.27 1-.6 0-.33-.44-.6-1-.6zm36.95 0H56.21c-.55 0-1 .27-1 .6 0 .33.45.6 1 .6h31.91c.55 0 1-.27 1-.6 0-.33-.44-.6-1-.6z" fill="#2B3C67"/><path d="M88.12 41.61c.34 0 .6.16.6.36 0 .2-.27.36-.6.36H56.21c-.33 0-.6-.16-.6-.36 0-.2.27-.36.6-.36h31.91zm0-.24H56.21c-.55 0-1 .27-1 .6 0 .33.45.6 1 .6h31.91c.55 0 1-.27 1-.6 0-.33-.44-.6-1-.6zm-26.51 5.8H26.77c-.55 0-1 .27-1 .6 0 .33.45.6 1 .6h34.84c.55 0 1-.27 1-.6 0-.33-.45-.6-1-.6z" fill="#2B3C67"/><path d="M61.61 47.41c.33 0 .6.16.6.36 0 .2-.27.36-.6.36H26.77c-.33 0-.6-.16-.6-.36 0-.2.27-.36.6-.36h34.84zm0-.24H26.77c-.55 0-1 .27-1 .6 0 .33.45.6 1 .6h34.84c.55 0 1-.27 1-.6 0-.33-.45-.6-1-.6zm26.51 0H66.01c-.55 0-1 .27-1 .6 0 .33.45.6 1 .6h22.11c.55 0 1-.27 1-.6 0-.33-.44-.6-1-.6z" fill="#2B3C67"/><path d="M88.12 47.41c.34 0 .6.16.6.36 0 .2-.27.36-.6.36H66.01c-.33 0-.6-.16-.6-.36 0-.2.27-.36.6-.36h22.11zm0-.24H66.01c-.55 0-1 .27-1 .6 0 .33.45.6 1 .6h22.11c.55 0 1-.27 1-.6 0-.33-.44-.6-1-.6z" fill="#2B3C67"/><path d="M17.38 43a.66.66 0 00-.47.2l-2.26 2.259-.25-.25-.85-.85a.652.652 0 00-.93.01.64.64 0 00.01.912l1.56 1.56a.652.652 0 00.93-.01l2.72-2.72a.65.65 0 00.002-.91.622.622 0 00-.462-.201z" fill="#2B3C67" stroke="#2B3C67" stroke-width=".2"/><path d="M19.59 39.21H10.6c-.64 0-1.16.52-1.16 1.16v8.99c0 .64.52 1.16 1.16 1.16h8.99c.64 0 1.16-.52 1.16-1.16v-8.99c0-.31-.11-.6-.33-.81-.22-.22-.51-.35-.83-.35zm-.03 1.4v8.72h-8.92v-8.92h8.92v.2zM51.17 57.3h-24.4c-.55 0-1 .27-1 .6 0 .33.45.6 1 .6h24.4c.55 0 1-.27 1-.6 0-.33-.44-.6-1-.6z" fill="#2B3C67"/><path d="M51.17 57.54c.34 0 .6.16.6.36 0 .2-.27.36-.6.36h-24.4c-.33 0-.6-.16-.6-.36 0-.2.27-.36.6-.36h24.4zm0-.24h-24.4c-.55 0-1 .27-1 .6 0 .33.45.6 1 .6h24.4c.55 0 1-.27 1-.6 0-.33-.44-.6-1-.6zm36.95 0H56.21c-.55 0-1 .27-1 .6 0 .33.45.6 1 .6h31.91c.55 0 1-.27 1-.6 0-.33-.44-.6-1-.6z" fill="#2B3C67"/><path d="M88.12 57.54c.34 0 .6.16.6.36 0 .2-.27.36-.6.36H56.21c-.33 0-.6-.16-.6-.36 0-.2.27-.36.6-.36h31.91zm0-.24H56.21c-.55 0-1 .27-1 .6 0 .33.45.6 1 .6h31.91c.55 0 1-.27 1-.6 0-.33-.44-.6-1-.6zm-26.51 5.8H26.77c-.55 0-1 .27-1 .6 0 .33.45.6 1 .6h34.84c.55 0 1-.27 1-.6 0-.33-.45-.6-1-.6z" fill="#2B3C67"/><path d="M61.61 63.34c.33 0 .6.16.6.36 0 .2-.27.36-.6.36H26.77c-.33 0-.6-.16-.6-.36 0-.2.27-.36.6-.36h34.84zm0-.24H26.77c-.55 0-1 .27-1 .6 0 .33.45.6 1 .6h34.84c.55 0 1-.27 1-.6 0-.33-.45-.6-1-.6zm26.51 0H66.01c-.55 0-1 .27-1 .6 0 .33.45.6 1 .6h22.11c.55 0 1-.27 1-.6 0-.33-.44-.6-1-.6z" fill="#2B3C67"/><path d="M88.12 63.34c.34 0 .6.16.6.36 0 .2-.27.36-.6.36H66.01c-.33 0-.6-.16-.6-.36 0-.2.27-.36.6-.36h22.11zm0-.24H66.01c-.55 0-1 .27-1 .6 0 .33.45.6 1 .6h22.11c.55 0 1-.27 1-.6 0-.33-.44-.6-1-.6zm-68.53-7.96H10.6c-.64 0-1.16.52-1.16 1.16v8.99c0 .64.52 1.16 1.16 1.16h8.99c.64 0 1.16-.52 1.16-1.16V56.3c0-.31-.11-.6-.33-.81-.22-.22-.51-.35-.83-.35zm-.03 1.4v8.72h-8.92v-8.92h8.92v.2zm31.61 16.89h-24.4c-.55 0-1 .27-1 .6 0 .33.45.6 1 .6h24.4c.55 0 1-.27 1-.6 0-.33-.44-.6-1-.6z" fill="#2B3C67"/><path d="M51.17 73.67c.34 0 .6.16.6.36 0 .2-.27.36-.6.36h-24.4c-.33 0-.6-.16-.6-.36 0-.2.27-.36.6-.36h24.4zm0-.24h-24.4c-.55 0-1 .27-1 .6 0 .33.45.6 1 .6h24.4c.55 0 1-.27 1-.6 0-.33-.44-.6-1-.6zm36.95 0H56.21c-.55 0-1 .27-1 .6 0 .33.45.6 1 .6h31.91c.55 0 1-.27 1-.6 0-.33-.44-.6-1-.6z" fill="#2B3C67"/><path d="M88.12 73.67c.34 0 .6.16.6.36 0 .2-.27.36-.6.36H56.21c-.33 0-.6-.16-.6-.36 0-.2.27-.36.6-.36h31.91zm0-.24H56.21c-.55 0-1 .27-1 .6 0 .33.45.6 1 .6h31.91c.55 0 1-.27 1-.6 0-.33-.44-.6-1-.6zm-26.51 5.8H26.77c-.55 0-1 .27-1 .6 0 .33.45.6 1 .6h34.84c.55 0 1-.27 1-.6 0-.33-.45-.6-1-.6z" fill="#2B3C67"/><path d="M61.61 79.47c.33 0 .6.16.6.36 0 .2-.27.36-.6.36H26.77c-.33 0-.6-.16-.6-.36 0-.2.27-.36.6-.36h34.84zm0-.24H26.77c-.55 0-1 .27-1 .6 0 .33.45.6 1 .6h34.84c.55 0 1-.27 1-.6 0-.33-.45-.6-1-.6zm26.51 0H66.01c-.55 0-1 .27-1 .6 0 .33.45.6 1 .6h22.11c.55 0 1-.27 1-.6 0-.33-.44-.6-1-.6z" fill="#2B3C67"/><path d="M88.12 79.47c.34 0 .6.16.6.36 0 .2-.27.36-.6.36H66.01c-.33 0-.6-.16-.6-.36 0-.2.27-.36.6-.36h22.11zm0-.24H66.01c-.55 0-1 .27-1 .6 0 .33.45.6 1 .6h22.11c.55 0 1-.27 1-.6 0-.33-.44-.6-1-.6zm-68.53-7.96H10.6c-.64 0-1.16.52-1.16 1.16v8.99c0 .64.52 1.16 1.16 1.16h8.99c.64 0 1.16-.52 1.16-1.16v-8.99c0-.31-.11-.6-.33-.81-.22-.22-.51-.35-.83-.35zm-.03 1.4v8.72h-8.92v-8.92h8.92v.2z" fill="#2B3C67"/><path d="M105.26 60.26l.08.47h-4.18l.08-.47 1.12-6.74.07-.41.41.09c.14.03.28.04.42.04.14 0 .28-.01.42-.04l.41-.09.07.41 1.1 6.74zm-2.01-8.07a1.06 1.06 0 100-2.12 1.06 1.06 0 000 2.12zm4.23-30.88v13.26a5.81 5.81 0 01-3.11 5.15l-.59.31V22.4l.23-.11 2.9-1.34.57-.26v.62zm9.98-6.38l-13.85 6.4-.18.08-.17-.09-13.89-7.23a.593.593 0 00-.23-.05c-.2 0-.38.11-.47.3-.13.25-.03.55.22.69l12.61 6.57.72.38-.74.34-12.18 5.63-.17.08-.17-.08L60.8 14.93l-.79-.36.79-.36L88.96 1.18l.17-.08.17.08 28.16 13.02.79.36-.79.37z" fill="#fff"/><path d="M102.46 40.44l-2.35.83a33.423 33.423 0 01-10.99 1.86c-3.75 0-7.45-.63-10.99-1.86l-3.48-1.21a5.83 5.83 0 01-3.9-5.49V20.68l.57.26 17.57 8.12c.07.03.14.05.22.05.08 0 .16-.02.23-.05l12.81-5.93.57-.26v17.47l-.26.1z" fill="#fff"/><path d="M106.32 60.26l.08.47h-4.18l.08-.47 1.12-6.74.07-.41.41.09c.14.03.28.04.42.04.14 0 .28-.01.42-.04l.41-.09.07.41 1.1 6.74zm13.35-45.33l-13.85 6.4-.18.08-.17-.09-13.89-7.23a.593.593 0 00-.23-.05c-.2 0-.38.11-.47.3-.13.25-.03.55.22.69l12.61 6.57.72.38-.74.34-12.19 5.64-.17.08-.17-.08-28.14-13.03-.79-.36.79-.36L91.18 1.18l.17-.08.17.08 28.16 13.02.79.36-.8.37z" fill="#3790EC"/><path d="M119.98 14.34a.612.612 0 00-.28-.27L89.34.05a.51.51 0 00-.22-.05c-.08 0-.16.02-.23.05L58.54 14.08a.512.512 0 00-.25.69c.05.12.14.2.25.25l10.95 5.06.23.11v14.37c0 2.92 1.85 5.52 4.6 6.48l3.47 1.21c3.65 1.27 7.46 1.92 11.33 1.92s7.68-.65 11.34-1.92l1.74-.61.53-.19v7.6l-.25.1c-.81.32-1.33 1.09-1.33 1.96 0 .36.1.72.29 1.04l.07.12-.02.14-1.45 8.73c-.04.28.15.56.43.6.02 0 .04.01.06.01h5.45c.29 0 .52-.23.52-.52v-.07l-1.45-8.74-.02-.14.07-.12c.19-.33.29-.68.29-1.04 0-.87-.52-1.64-1.33-1.96l-.25-.1v-7.97l.26-.1c2.68-.99 4.49-3.57 4.49-6.43V20.2l.23-.11 10.95-5.06c.13-.06.22-.16.27-.29.03-.13.03-.27-.03-.4zm-17.52 26.1l-2.35.83a33.423 33.423 0 01-10.99 1.86c-3.75 0-7.45-.63-10.99-1.86l-3.48-1.21a5.83 5.83 0 01-3.9-5.49V20.68l.57.26 17.57 8.12c.07.03.14.05.22.05.08 0 .16-.02.23-.05l12.81-5.93.57-.26v17.47l-.26.1zm2.8 19.82l.08.47h-4.18l.08-.47 1.12-6.74.07-.41.41.09c.14.03.28.04.42.04.14 0 .28-.01.42-.04l.41-.09.07.41 1.1 6.74zm-.95-9.13c0 .58-.48 1.06-1.06 1.06-.58 0-1.06-.48-1.06-1.06 0-.58.48-1.06 1.06-1.06.58 0 1.06.48 1.06 1.06zm3.17-29.82v13.26a5.81 5.81 0 01-3.11 5.15l-.59.31V22.4l.23-.11 2.9-1.34.57-.26v.62zm9.98-6.38l-13.85 6.4-.18.08-.17-.09-13.89-7.23a.593.593 0 00-.23-.05c-.2 0-.38.11-.47.3-.13.25-.03.55.22.69l12.61 6.57.72.38-.74.34-12.18 5.63-.17.08-.17-.08L60.8 14.93l-.79-.36.79-.36L88.96 1.18l.17-.08.17.08 28.16 13.02.79.36-.79.37z" fill="#2B3C67"/></svg>