<svg width="109" height="94" fill="none" xmlns="http://www.w3.org/2000/svg"><path d="M60.69 91.47l.05.45H36.46l.05-.45 1.28-10.41.05-.35h21.52l.05.35 1.28 10.41zm35.34-23.02v.4H1.17V20.71c0-1.95 1.59-3.54 3.54-3.54h87.78c1.95 0 3.54 1.59 3.54 3.54v47.74z" fill="#fff"/><path d="M62.52 93.3l.05.45H38.29l.05-.45 1.28-10.41.05-.35h21.52l.05.35 1.28 10.41zm35.34-23.02v.4H3V22.54C3 20.59 4.59 19 6.54 19h87.78c1.95 0 3.54 1.59 3.54 3.54v47.74z" fill="#CBD8F0"/><path d="M96.03 70.42V76c0 1.95-1.59 3.54-3.54 3.54H4.71c-1.95 0-3.54-1.59-3.54-3.54v-5.98h94.86v.4z" fill="#fff"/><path d="M92.49 16H4.71C2.11 16 0 18.11 0 20.71V76c0 2.59 2.11 4.71 4.71 4.72h31.94l-.06.45-1.28 10.41-.04.35h-6.53a.58.58 0 000 1.16h39.72c.31 0 .57-.26.57-.59a.58.58 0 00-.58-.58h-6.53l-.04-.35-1.28-10.41-.06-.45h31.95c2.6 0 4.71-2.11 4.71-4.71V20.71c0-2.6-2.11-4.71-4.71-4.71zm-31.8 75.47l.06.45H36.46l.06-.45 1.28-10.41.04-.35h21.52l.04.35 1.29 10.41zm35.34-21.05V76c0 1.95-1.59 3.54-3.54 3.54H4.71c-1.95 0-3.54-1.59-3.54-3.54v-5.98h94.86v.4zm0-1.97v.4H1.17V20.71c0-1.95 1.59-3.54 3.54-3.54h87.78c1.95 0 3.54 1.59 3.54 3.54v47.74z" fill="#2B3C67"/><path d="M79.51 5.1V2.31c0-.73.6-1.33 1.33-1.33h7.53c.73 0 1.33.6 1.33 1.33V5.1c0 .73-.6 1.33-1.33 1.33h-7.53c-.73 0-1.33-.6-1.33-1.33zm5.09 47.89c-12.47 0-22.62-10.15-22.62-22.62S72.13 7.75 84.6 7.75s22.62 10.15 22.62 22.62c-.01 12.47-10.16 22.62-22.62 22.62z" fill="#fff"/><path d="M84.6 32.95c-1.42 0-2.58-1.16-2.58-2.58 0-1.42 1.16-2.58 2.58-2.58 1.42 0 2.58 1.16 2.58 2.58 0 1.42-1.16 2.58-2.58 2.58z" fill="#fff"/><path d="M100.3 38.38l-.19.38-.36-.21-1.15-.67a.503.503 0 00-.24-.06c-.18 0-.34.09-.42.24-.07.11-.09.24-.05.37.03.13.11.23.22.3l1.15.67.36.21-.23.35a18.198 18.198 0 01-5.19 5.19l-.35.23-.21-.36-.67-1.15c-.08-.15-.23-.21-.31-.24-.03-.01-.07-.01-.12-.01-.09 0-.17.02-.25.06a.54.54 0 00-.22.29c-.03.12-.02.25.05.36l.67 1.15.21.36-.38.19a17.347 17.347 0 01-7.1 1.9l-.42.02v-1.73a.49.49 0 00-.98 0v1.75l-.42-.02c-2.49-.12-4.88-.76-7.1-1.9l-.38-.19.21-.36.67-1.15c.07-.11.08-.25.05-.37a.46.46 0 00-.45-.35c-.04 0-.09.01-.14.02-.14.04-.23.11-.3.23l-.67 1.15-.21.36-.35-.23a18.198 18.198 0 01-5.19-5.19l-.23-.35.36-.21 1.15-.67c.12-.07.2-.17.24-.31.03-.12.01-.25-.05-.38a.474.474 0 00-.41-.23.42.42 0 00-.24.07l-1.15.67-.37.21-.19-.38a17.347 17.347 0 01-1.9-7.1l-.02-.42h1.75a.49.49 0 000-.98h-1.75l.02-.42c.12-2.49.76-4.88 1.9-7.1l.19-.38.36.21 1.15.67c.07.04.14.06.22.06.18 0 .36-.1.45-.24a.45.45 0 00.04-.36.469.469 0 00-.23-.3l-1.15-.67-.36-.21.23-.35c1.35-2.05 3.14-3.85 5.19-5.19l.35-.23.21.36.67 1.15a.509.509 0 00.66.17c.23-.14.31-.43.17-.66l-.67-1.15-.21-.37.38-.19c2.23-1.14 4.62-1.78 7.1-1.9l.42-.02v1.75a.49.49 0 00.98 0v-1.75l.42.02c2.49.12 4.88.76 7.1 1.9l.38.19-.21.36-.67 1.15c-.07.11-.08.24-.05.37s.11.23.22.3a.512.512 0 00.67-.18l.67-1.15.21-.36.35.23c2.05 1.35 3.85 3.14 5.19 5.19l.23.35-.36.21-1.15.67c-.11.07-.19.17-.23.3-.03.12-.02.25.05.36.09.14.27.24.45.24.08 0 .15-.02.21-.06l1.16-.68.37-.21.19.38c1.14 2.23 1.78 4.62 1.9 7.1l.02.42h-1.75c-.26 0-.48.23-.48.49 0 .27.22.49.49.49h1.75l-.02.42c-.13 2.5-.77 4.89-1.91 7.11zM79.51 5.1V2.31c0-.73.6-1.33 1.33-1.33h7.53c.73 0 1.33.6 1.33 1.33V5.1c0 .73-.6 1.33-1.33 1.33h-7.53c-.73 0-1.33-.6-1.33-1.33z" fill="#fff"/><path d="M85.58 53.96c-12.47 0-22.62-10.15-22.62-22.62S73.11 8.72 85.58 8.72s22.62 10.15 22.62 22.62c-.01 12.47-10.16 22.62-22.62 22.62z" fill="#3790EC"/><path d="M100.3 38.38l-.19.38-.36-.21-1.15-.67a.503.503 0 00-.24-.06c-.18 0-.34.09-.42.24-.07.11-.09.24-.05.37.03.13.11.23.22.3l1.15.67.36.21-.23.35a18.198 18.198 0 01-5.19 5.19l-.35.23-.21-.36-.67-1.15c-.08-.15-.23-.21-.31-.24-.03-.01-.07-.01-.12-.01-.09 0-.17.02-.25.06a.54.54 0 00-.22.29c-.03.12-.02.25.05.36l.67 1.15.21.36-.38.19a17.347 17.347 0 01-7.1 1.9l-.42.02v-1.73a.49.49 0 00-.98 0v1.75l-.42-.02c-2.49-.12-4.88-.76-7.1-1.9l-.38-.19.21-.36.67-1.15c.07-.11.08-.25.05-.37a.46.46 0 00-.45-.35c-.04 0-.09.01-.14.02-.14.04-.23.11-.3.23l-.67 1.15-.21.36-.35-.23a18.198 18.198 0 01-5.19-5.19l-.23-.35.36-.21 1.15-.67c.12-.07.2-.17.24-.31.03-.12.01-.25-.05-.38a.474.474 0 00-.41-.23.42.42 0 00-.24.07l-1.15.67-.37.21-.19-.38a17.347 17.347 0 01-1.9-7.1l-.02-.42h1.75a.49.49 0 000-.98h-1.75l.02-.42c.12-2.49.76-4.88 1.9-7.1l.19-.38.36.21 1.15.67c.07.04.14.06.22.06.18 0 .36-.1.45-.24a.45.45 0 00.04-.36.469.469 0 00-.23-.3l-1.15-.67-.36-.21.23-.35c1.35-2.05 3.14-3.85 5.19-5.19l.35-.23.21.36.67 1.15a.509.509 0 00.66.17c.23-.14.31-.43.17-.66l-.67-1.15-.21-.37.38-.19c2.23-1.14 4.62-1.78 7.1-1.9l.42-.02v1.75a.49.49 0 00.98 0v-1.75l.42.02c2.49.12 4.88.76 7.1 1.9l.38.19-.21.36-.67 1.15c-.07.11-.08.24-.05.37s.11.23.22.3a.512.512 0 00.67-.18l.67-1.15.21-.36.35.23c2.05 1.35 3.85 3.14 5.19 5.19l.23.35-.36.21-1.15.67c-.11.07-.19.17-.23.3-.03.12-.02.25.05.36.09.14.27.24.45.24.08 0 .15-.02.21-.06l1.16-.68.37-.21.19.38c1.14 2.23 1.78 4.62 1.9 7.1l.02.42h-1.75c-.26 0-.48.23-.48.49 0 .27.22.49.49.49h1.75l-.02.42c-.13 2.5-.77 4.89-1.91 7.11z" fill="#fff"/><path d="M85.58 33.92c-1.42 0-2.58-1.16-2.58-2.58 0-1.42 1.16-2.58 2.58-2.58 1.42 0 2.58 1.16 2.58 2.58 0 1.42-1.16 2.58-2.58 2.58z" fill="#3790EC"/><path d="M90.14 7.45l-.71-.17.53-.51c.45-.43.71-1.03.71-1.65V2.31c0-1.27-1.04-2.31-2.31-2.31h-7.53c-1.27 0-2.31 1.04-2.31 2.31V5.1c0 .62.26 1.22.71 1.65l.53.5-.71.17C68.58 9.97 61 19.61 61 30.36c0 13.01 10.59 23.6 23.6 23.6 13.01 0 23.6-10.59 23.6-23.6-.01-10.75-7.61-20.38-18.06-22.91zM79.51 5.1V2.31c0-.73.6-1.33 1.33-1.33h7.53c.73 0 1.33.6 1.33 1.33V5.1c0 .73-.6 1.33-1.33 1.33h-7.53c-.73 0-1.33-.6-1.33-1.33zm5.09 47.89c-12.47 0-22.62-10.15-22.62-22.62S72.13 7.75 84.6 7.75s22.62 10.15 22.62 22.62c-.01 12.47-10.16 22.62-22.62 22.62z" fill="#2B3C67"/><path d="M85.39 26.92l-.31-.07V20.5a.49.49 0 00-.98 0v6.35l-.31.07a3.54 3.54 0 00-2.76 3.46c0 1.95 1.59 3.54 3.54 3.54s3.54-1.59 3.54-3.54c.04-1.64-1.11-3.09-2.72-3.46zm-.79 6.03c-1.42 0-2.58-1.16-2.58-2.58 0-1.42 1.16-2.58 2.58-2.58 1.42 0 2.58 1.16 2.58 2.58 0 1.42-1.16 2.58-2.58 2.58zm13.82-9.63c.02 0 .04-.01.07-.01-.02 0-.05.01-.07.01zm-5.34-6.01c-.02.02-.04.03-.06.05.02-.02.04-.04.06-.05zm-.33.17c.01 0 .02-.01.03-.01-.02 0-.02.01-.03.01zm-16 .02c.02 0 .05-.01.07-.01-.02.01-.04.01-.07.01zm.02 25.73c.02 0 .05.01.07.01-.03 0-.05-.01-.07-.01zM92.45 17.5c-.02 0-.05-.01-.07-.01.02.01.04.01.07.01zm5.34 20.12c.02-.02.04-.03.06-.05-.02.02-.04.03-.06.05zm-.01-14.5c.02.02.04.03.06.05-.02-.02-.04-.04-.06-.05zm.64 14.3c.02 0 .05.01.07.01-.02 0-.04-.01-.07-.01zm-.3-14.13c-.01 0-.02-.01-.02-.01 0 .01.01.01.02.01zM70.81 37.43c-.03 0-.05.01-.07.01.02-.01.05-.01.07-.01zm.63-14.3c-.02.02-.04.03-.06.05.02-.02.04-.04.06-.05zm20.65 20.19z" fill="#2B3C67"/><path d="M100.73 21.14l-.05-.09v-.01l-.01-.01c-1.65-2.81-3.97-5.14-6.72-6.73l-.05-.03-.04-.04a18.68 18.68 0 00-9.29-2.48c-3.25 0-6.44.85-9.23 2.46l-.09.05h-.01l-.01.01c-2.8 1.62-5.12 3.94-6.72 6.71l-.09.14a18.578 18.578 0 00-2.44 9.22c0 3.25.85 6.44 2.46 9.23l.02.03.01.03.01.04c.01.02.03.04.04.06 1.62 2.77 3.94 5.09 6.69 6.68l.03.02.03.02.07.04c2.81 1.62 6 2.48 9.24 2.48s6.43-.85 9.23-2.46l.03-.02.01-.01.06-.04c2.77-1.61 5.1-3.93 6.72-6.72l.01-.01.01-.05.04-.06c1.62-2.82 2.48-6.02 2.48-9.26.02-3.23-.83-6.42-2.44-9.2zm-.43 17.24l-.19.38-.36-.21-1.15-.67a.503.503 0 00-.24-.06c-.18 0-.34.09-.42.24-.07.11-.09.24-.05.37.03.13.11.23.22.3l1.15.67.36.21-.23.35a18.198 18.198 0 01-5.19 5.19l-.35.23-.21-.36-.67-1.15c-.08-.15-.23-.21-.31-.24-.03-.01-.07-.01-.12-.01-.09 0-.17.02-.25.06a.54.54 0 00-.22.29c-.03.12-.02.25.05.36l.67 1.15.21.36-.38.19a17.347 17.347 0 01-7.1 1.9l-.42.02v-1.73a.49.49 0 00-.98 0v1.75l-.42-.02c-2.49-.12-4.88-.76-7.1-1.9l-.38-.19.21-.36.67-1.15c.07-.11.08-.25.05-.37a.46.46 0 00-.45-.35c-.04 0-.09.01-.14.02-.14.04-.23.11-.3.23l-.67 1.15-.21.36-.35-.23a18.198 18.198 0 01-5.19-5.19l-.23-.35.36-.21 1.15-.67c.12-.07.2-.17.24-.31.03-.12.01-.25-.05-.38a.474.474 0 00-.41-.23.42.42 0 00-.24.07l-1.15.67-.37.21-.19-.38a17.347 17.347 0 01-1.9-7.1l-.02-.42h1.75a.49.49 0 000-.98h-1.75l.02-.42c.12-2.49.76-4.88 1.9-7.1l.19-.38.36.21 1.15.67c.07.04.14.06.22.06.18 0 .36-.1.45-.24a.45.45 0 00.04-.36.469.469 0 00-.23-.3l-1.15-.67-.36-.21.23-.35c1.35-2.05 3.14-3.85 5.19-5.19l.35-.23.21.36.67 1.15a.509.509 0 00.66.17c.23-.14.31-.43.17-.66l-.67-1.15-.21-.37.38-.19c2.23-1.14 4.62-1.78 7.1-1.9l.42-.02v1.75a.49.49 0 00.98 0v-1.75l.42.02c2.49.12 4.88.76 7.1 1.9l.38.19-.21.36-.67 1.15c-.07.11-.08.24-.05.37s.11.23.22.3a.512.512 0 00.67-.18l.67-1.15.21-.36.35.23c2.05 1.35 3.85 3.14 5.19 5.19l.23.35-.36.21-1.15.67c-.11.07-.19.17-.23.3-.03.12-.02.25.05.36.09.14.27.24.45.24.08 0 .15-.02.21-.06l1.16-.68.37-.21.19.38c1.14 2.23 1.78 4.62 1.9 7.1l.02.42h-1.75c-.26 0-.48.23-.48.49 0 .27.22.49.49.49h1.75l-.02.42c-.13 2.5-.77 4.89-1.91 7.11z" fill="#2B3C67"/><path d="M71.12 23.29c-.01 0-.02.01-.03.01.02 0 .03-.01.03-.01zm-.39.03c.02 0 .04.01.07.01-.03-.01-.05-.01-.07-.01zm5.45-5.97zm.25.12c.01 0 .02.01.03.01-.02 0-.02-.01-.03-.01zm-5.05 20.11z" fill="#2B3C67"/></svg>