<svg width="499" height="554" fill="none" xmlns="http://www.w3.org/2000/svg"><path d="M415 475c0 8.284-86.406 15-193.005 15C115.406 490 29 483.287 29 475c0-8.284 86.406-15 193.005-15C328.594 460 415 466.716 415 475z" fill="#DBE7F3"/><path d="M69.326 443.961c-.043 18.133 14.586 32.842 32.666 32.867l239.394.267c18.081.014 32.773-14.671 32.805-32.805l.765-367.274c.032-18.135-14.585-32.852-32.667-32.867l-239.393-.267c-18.07-.023-32.761 14.662-32.804 32.795l-.766 367.284z" fill="#A6C1DC"/><circle cx="220.314" cy="463.115" r="7.229" transform="rotate(-.088 220.314 463.115)" fill="#B6D1ED"/><circle cx="220.314" cy="463.115" r="6.289" transform="rotate(-.088 220.314 463.115)" fill="#C7E0FA"/><circle cx="220.736" cy="58.418" r="1.611" transform="rotate(-.088 220.736 58.418)" fill="#BCD1E4"/><path d="M352.976 447.603l-260.934-.278.782-374.692 260.935.277-.783 374.693z" fill="#C2DDF7"/><path d="M352.84 449.489l-260.83-.154.024-9.371 260.829.165-.023 9.36z" fill="#C7E0FA"/><path d="M374.346 187.049a1.058 1.058 0 001.05 1.063l.884-.003c.582.001 1.06-.47 1.063-1.064l-.877-20.288.965-20.28a1.063 1.063 0 00-1.05-1.063l-.884.003a1.064 1.064 0 00-1.063 1.064l-.088 40.568zM227.847 72.466l-5.858.01-6.056.001-124.066.097.242 8.966 121.05-.094 6.056-.001 134.867-.095-.231-8.965-126.004.08z" fill="#96B3CF"/><mask id="a" maskUnits="userSpaceOnUse" x="92" y="80" width="263" height="361"><path transform="rotate(90.118 354.025 81.347)" fill="#C4C4C4" d="M354.025 81.347h359.067v261.14H354.025z"/></mask><g mask="url(#a)"><path fill="#fff" d="M92 81h262v359H92z"/><path fill="#F5F5F7" d="M92 81h262v24H92z"/><path d="M104.361 95.616a2.388 2.388 0 01-1.013-1.067c-.227-.47-.348-1.025-.348-1.68 0-.654.121-1.208.348-1.678.227-.47.575-.825 1.013-1.081.439-.256.968-.37 1.558-.37.59 0 1.12.128 1.558.37.439.256.772.612 1.014 1.081.242.47.348 1.024.348 1.679 0 .64-.121 1.195-.348 1.665-.242.47-.575.839-1.014 1.08-.438.257-.953.385-1.558.385-.605 0-1.119-.128-1.558-.384zm2.753-1.266c.288-.356.439-.854.439-1.48 0-.64-.151-1.138-.439-1.494-.287-.356-.696-.526-1.195-.526-.514 0-.907.17-1.195.54-.287.356-.438.854-.438 1.494 0 .626.151 1.124.438 1.48.288.341.696.526 1.195.526.499 0 .908-.185 1.195-.54zm6.974-3.842c.468.512.71 1.252.71 2.22 0 1.08-.257 1.906-.756 2.447-.514.555-1.195.825-2.072.825-.499 0-.923-.071-1.271-.228-.348-.142-.62-.341-.786-.597a1.202 1.202 0 01-.257-.797v-.1h1.21a.667.667 0 00.302.513c.167.128.439.185.802.185.484 0 .862-.157 1.119-.456.257-.313.409-.74.439-1.28a1.905 1.905 0 01-.681.37 3.013 3.013 0 01-.907.142c-.696 0-1.286-.156-1.74-.484-.454-.313-.68-.796-.68-1.422 0-.442.105-.826.317-1.139.212-.313.499-.555.877-.711a3.345 3.345 0 011.301-.242c.908-.014 1.589.242 2.073.754zm-1.029 2.077a.848.848 0 00.378-.725c0-.185-.06-.37-.166-.54a1.367 1.367 0 00-.499-.4 1.71 1.71 0 00-.742-.156c-.393 0-.71.1-.922.299a1.02 1.02 0 00-.333.768c0 .313.121.57.378.754.257.185.575.27.968.27a1.48 1.48 0 00.938-.27zm2.646-.341a.679.679 0 01-.226-.512c0-.2.075-.37.226-.513a.769.769 0 01.545-.213.73.73 0 01.529.213.676.676 0 01.227.513c0 .199-.075.37-.227.512a.73.73 0 01-.529.213.769.769 0 01-.545-.213zm0 3.358a.678.678 0 01-.226-.513c0-.199.075-.37.226-.512a.769.769 0 01.545-.213.73.73 0 01.529.213.676.676 0 01.227.512c0 .2-.075.37-.227.513a.73.73 0 01-.529.213.769.769 0 01-.545-.213zm6.52-.84v1.11h-1.255v-1.11h-3.464v-.526l3.933-4.41h.786v3.926h1.014v1.01h-1.014zm-3.055-.953h1.845v-2.091l-1.845 2.09zm8.485-1.665c.363.171.65.399.847.712.212.313.302.683.302 1.095 0 .669-.226 1.181-.68 1.523-.454.355-1.074.526-1.861.526-.514 0-.983-.071-1.361-.228-.393-.156-.696-.37-.908-.654a1.617 1.617 0 01-.317-.996v-.1h1.195v.043c0 .27.121.484.378.64.257.157.575.242.983.242.408 0 .726-.085.953-.27a.933.933 0 00.348-.754c0-.356-.121-.626-.363-.797-.242-.185-.575-.27-.998-.27-.242 0-.469.028-.696.1-.212.056-.378.142-.484.255l-1.074-.014.196-3.315h4.251v1.039h-3.131l-.076 1.21c.166-.072.363-.115.575-.157a3.64 3.64 0 01.681-.057c.453-.029.877.057 1.24.227z" fill="#A6C1DC"/><path fill-rule="evenodd" clip-rule="evenodd" d="M313.054 95.872h-1.936v-6.374h1.936v6.374zm-2.904 0h-1.936v-5.463h1.936v5.463zm-2.905 0h-1.936v-4.553h1.936v4.553zm-2.904 0h-1.936V92.23h1.936v3.642zm-2.904 0h-1.936V93.14h1.936v2.732z" fill="#A6C1DC"/><path d="M320.647 93.752l.801.754a1.55 1.55 0 011.059-.412c.439 0 .817.17 1.104.44l.802-.768a2.76 2.76 0 00-1.891-.754 2.805 2.805 0 00-1.875.74zm-1.467-1.366l.786.726a3.732 3.732 0 012.556-.996c.999 0 1.906.384 2.572 1.01l.771-.74c-.847-.81-2.027-1.294-3.327-1.294a4.862 4.862 0 00-3.358 1.294zM322.522 89c-1.921 0-3.66.74-4.916 1.935l.878.81c1.028-.98 2.465-1.578 4.038-1.578 1.573 0 2.995.597 4.024 1.565l.862-.826c-1.255-1.18-2.98-1.906-4.886-1.906zm-.03 5.862c-.302 0-.544.227-.544.512 0 .285.242.512.544.512.303 0 .545-.227.545-.512 0-.285-.242-.512-.545-.512zm21.404-3.586v-1.778h-11.314v6.36h11.314v-1.779h1.12v-2.803h-1.12zm-.665 3.97h-9.999v-5.122h9.999v5.122zm-4.372-.413v-4.296h-5.143v4.296h5.143z" fill="#A6C1DC"/><path d="M309 116H137v26h172v-26z" fill="#F5F5F7"/><path d="M191.771 133l2.28-8.004h-1.92l-1.392 5.784-1.512-5.784h-1.332l-1.524 5.784-1.404-5.784h-1.908l2.292 8.004h1.812l1.392-5.496 1.404 5.496h1.812zm4.547 0v-8.004h-1.704V133h1.704zm3.053 0v-3.312h3.876v-1.5h-3.876v-1.692h3.96v-1.5h-5.664V133h1.704zm6.616 0v-8.004h-1.704V133h1.704zm11.343 0v-8.004h-1.704v5.028l-3.708-5.028h-1.752V133h1.704v-5.22l3.816 5.22h1.644zm7.002 0v-1.5h-3.96v-1.812h3.876v-1.5h-3.876v-1.692h3.96v-1.5h-5.664V133h5.664zm4.656 0v-6.504h2.328v-1.5h-6.384v1.5h2.34V133h1.716zm11.113 0l2.28-8.004h-1.92l-1.392 5.784-1.512-5.784h-1.332l-1.524 5.784-1.404-5.784h-1.908l2.292 8.004h1.812l1.392-5.496 1.404 5.496h1.812zm6.401.144c2.424 0 4.188-1.728 4.188-4.14s-1.764-4.14-4.188-4.14c-2.412 0-4.176 1.728-4.176 4.14s1.764 4.14 4.176 4.14zm0-1.512c-1.476 0-2.424-1.14-2.424-2.628 0-1.5.948-2.628 2.424-2.628s2.436 1.128 2.436 2.628c0 1.488-.96 2.628-2.436 2.628zM258.126 133l-1.8-3.048c.864-.204 1.752-.96 1.752-2.376 0-1.488-1.02-2.58-2.688-2.58h-3.744V133h1.704v-2.844h1.248L256.17 133h1.956zm-2.988-4.344h-1.788v-2.16h1.788c.684 0 1.2.408 1.2 1.08 0 .672-.516 1.08-1.2 1.08zM265.969 133l-3.396-4.248 3.18-3.756h-2.1l-2.832 3.576v-3.576h-1.704V133h1.704v-2.46l.624-.744 2.424 3.204h2.1z" fill="#A6C1DC"/><path d="M337.771 116l-21.771.01V142l21.771-.01c2.89 0 5.229-2.31 5.229-5.163v-15.664c-.01-2.853-2.35-5.163-5.229-5.163zM130 116.01l-21.808-.01c-2.87 0-5.192 2.309-5.192 5.161v15.668c0 2.852 2.322 5.161 5.192 5.161L130 142v-25.99z" fill="#F5F5F7"/><path fill-rule="evenodd" clip-rule="evenodd" d="M336.696 131.401l.304-1.571-1.686-.272a4.613 4.613 0 00-.314-1.814l1.455-.776-.858-1.387-1.435.766a5.303 5.303 0 00-1.12-.999l.691-1.368-1.56-.679-.681 1.348a4.582 4.582 0 00-.597-.136 6.634 6.634 0 00-.974-.067l-.272-1.446-1.696.281.272 1.436a5.742 5.742 0 00-1.424.679l-1.11-1.028-1.215 1.125 1.121 1.038a5.118 5.118 0 00-.733 1.31l-1.56-.252-.304 1.571 1.581.262c0 .65.136 1.281.388 1.853l-1.414.757.859 1.387 1.445-.776c.335.359.712.689 1.141.951l-.712 1.416 1.56.68.723-1.436c.146.039.303.068.46.097.356.058.702.077 1.048.077l.303 1.572 1.697-.281-.304-1.591a5.959 5.959 0 001.33-.641l1.235 1.145 1.215-1.125-1.236-1.145c.294-.369.534-.786.702-1.232l1.675.271zm-4.241-1.561c-.24 1.29-1.57 2.153-2.963 1.93-1.393-.223-2.324-1.455-2.084-2.755.241-1.29 1.571-2.154 2.974-1.931 1.393.233 2.325 1.465 2.073 2.756zm-209.971-2.414l-4.189-4.276c-1.209-1.297-2.344 0-2.344 0l-3.408 3.377c-2.563 2.468-1.271 3.011-.781 3.116v4.715c0 .9.729 1.632 1.625 1.632h2.168v-3.765s-.157-.428.74-.428h1.833s.428-.042.428.512.041 3.691.041 3.691h2.084a1.63 1.63 0 001.626-1.631v-4.977c1.448-.23.177-1.966.177-1.966zm-.823-4.904s.083-.512-.552-.512h-1.407s-.511-.115-.511.429v.784l2.47 2.321v-3.022z" fill="#A6C1DC"/><path fill="#DFDFE8" d="M92 197.055h262v-1H92z"/><path d="M110.454 188.055a1.49 1.49 0 01-1.493-1.489 1.49 1.49 0 011.493-1.488 1.49 1.49 0 011.493 1.488 1.49 1.49 0 01-1.493 1.489zm2.59-3.251a.812.812 0 00.581-.24c.32-.32.32-.84 0-1.163a4.465 4.465 0 00-3.174-1.311 4.468 4.468 0 00-3.175 1.311c-.32.32-.32.84 0 1.163a.83.83 0 001.166 0 2.828 2.828 0 012.009-.83c.759 0 1.473.293 2.008.83.162.161.373.24.585.24z" fill="#A6C1DC"/><path d="M105.483 182.436a.812.812 0 00.581-.24 6.164 6.164 0 014.386-1.812c1.659 0 3.214.642 4.387 1.812a.83.83 0 001.166 0c.32-.32.32-.84 0-1.163a7.81 7.81 0 00-5.553-2.292 7.81 7.81 0 00-5.552 2.292c-.32.32-.32.84 0 1.163.162.158.373.24.585.24z" fill="#A6C1DC"/><path d="M102.289 179.821a.994.994 0 001.401 0 9.514 9.514 0 016.765-2.793c2.556 0 4.957.991 6.764 2.793a.99.99 0 001.397 0 .98.98 0 000-1.393 11.391 11.391 0 00-1.737-1.426 11.46 11.46 0 00-6.424-1.947c-.463 0-.925.026-1.378.082a11.456 11.456 0 00-6.784 3.291.979.979 0 00-.004 1.393z" fill="#D6E8F9"/><rect x="142" y="179.055" width="111" height="6" rx="3" fill="#A6C1DC"/><path fill="#DFDFE8" d="M92 228.055h262v1H92z"/><path d="M110.454 219.592a1.49 1.49 0 01-1.493-1.488 1.49 1.49 0 011.493-1.489 1.49 1.49 0 011.493 1.489 1.49 1.49 0 01-1.493 1.488zm2.59-3.251a.812.812 0 00.581-.24c.32-.32.32-.84 0-1.163a4.465 4.465 0 00-3.174-1.311 4.468 4.468 0 00-3.175 1.311c-.32.32-.32.84 0 1.163a.83.83 0 001.166 0 2.828 2.828 0 012.009-.83c.759 0 1.473.293 2.008.83.162.161.373.24.585.24z" fill="#A6C1DC"/><path d="M105.483 213.973a.812.812 0 00.581-.24 6.169 6.169 0 014.386-1.812 6.17 6.17 0 014.387 1.812.83.83 0 001.166 0c.32-.32.32-.84 0-1.163a7.81 7.81 0 00-5.553-2.292 7.81 7.81 0 00-5.552 2.292c-.32.32-.32.84 0 1.163.162.158.373.24.585.24z" fill="#D6E8F9"/><path d="M102.289 211.358a.994.994 0 001.401 0 9.518 9.518 0 016.765-2.793c2.556 0 4.957.992 6.764 2.793a.99.99 0 001.397 0 .98.98 0 000-1.393 11.391 11.391 0 00-1.737-1.426 11.46 11.46 0 00-6.424-1.947c-.463 0-.925.027-1.378.083a11.454 11.454 0 00-6.784 3.29.979.979 0 00-.004 1.393z" fill="#D6E8F9"/><rect x="142" y="211.055" width="78" height="6" rx="3" fill="#A6C1DC"/><rect x="231" y="211.055" width="68" height="6" rx="3" fill="#A6C1DC"/><path fill="#DFDFE8" d="M92 260.055h262v1H92z"/><path fill="#F3F3F3" d="M92 229.055h262v31H92z"/><path d="M110.454 251.592a1.49 1.49 0 01-1.493-1.488 1.49 1.49 0 011.493-1.489 1.49 1.49 0 011.493 1.489 1.49 1.49 0 01-1.493 1.488zm2.59-3.251a.812.812 0 00.581-.24c.32-.32.32-.84 0-1.163a4.465 4.465 0 00-3.174-1.311 4.468 4.468 0 00-3.175 1.311c-.32.32-.32.84 0 1.163a.83.83 0 001.166 0 2.828 2.828 0 012.009-.83c.759 0 1.473.293 2.008.83.162.161.373.24.585.24z" fill="#3790EC"/><path d="M105.483 245.973a.812.812 0 00.581-.24 6.169 6.169 0 014.386-1.812 6.17 6.17 0 014.387 1.812.83.83 0 001.166 0c.32-.32.32-.84 0-1.163a7.81 7.81 0 00-5.553-2.292 7.81 7.81 0 00-5.552 2.292c-.32.32-.32.84 0 1.163.162.158.373.24.585.24z" fill="#3790EC"/><path d="M102.289 243.358a.994.994 0 001.401 0 9.518 9.518 0 016.765-2.793c2.556 0 4.957.992 6.764 2.793a.99.99 0 001.397 0 .98.98 0 000-1.393 11.391 11.391 0 00-1.737-1.426 11.46 11.46 0 00-6.424-1.947c-.463 0-.925.027-1.378.083a11.454 11.454 0 00-6.784 3.29.979.979 0 00-.004 1.393zm42.953 6.865c2.52 0 3.738-1.288 3.738-2.996 0-3.486-5.362-2.492-5.362-3.976 0-.56.476-.938 1.33-.938.952 0 1.96.322 2.716 1.022l1.106-1.456c-.924-.854-2.156-1.302-3.64-1.302-2.198 0-3.542 1.288-3.542 2.842 0 3.514 5.376 2.38 5.376 4.032 0 .532-.532 1.036-1.624 1.036a4.094 4.094 0 01-2.968-1.26l-1.078 1.512c.868.882 2.156 1.484 3.948 1.484zm15.213-.168v-4.886c0-1.386-.742-2.044-1.988-2.044-1.036 0-1.932.616-2.324 1.232-.252-.77-.882-1.232-1.876-1.232-1.036 0-1.932.644-2.212 1.05v-.882h-1.778v6.762h1.778v-4.55c.266-.378.784-.798 1.4-.798.728 0 1.008.448 1.008 1.078v4.27h1.792v-4.564c.252-.364.77-.784 1.4-.784.728 0 1.008.448 1.008 1.078v4.27h1.792zm7.581 0v-4.368c0-1.946-1.414-2.562-2.954-2.562-1.064 0-2.128.336-2.954 1.064l.672 1.19c.574-.532 1.246-.798 1.974-.798.896 0 1.484.448 1.484 1.134v.91c-.448-.532-1.246-.826-2.142-.826-1.078 0-2.352.602-2.352 2.184 0 1.512 1.274 2.24 2.352 2.24.882 0 1.68-.322 2.142-.868v.7h1.778zm-3.206-1.036c-.7 0-1.274-.364-1.274-.994 0-.658.574-1.022 1.274-1.022.574 0 1.134.196 1.428.588v.84c-.294.392-.854.588-1.428.588zm6.748 1.036v-4.466c.294-.434 1.078-.77 1.666-.77.196 0 .364.014.49.042v-1.736c-.84 0-1.68.49-2.156 1.092v-.924H169.8v6.762h1.778zm5.535.168c.742 0 1.218-.196 1.484-.434l-.378-1.344c-.098.098-.35.196-.616.196-.392 0-.616-.322-.616-.742v-3.052h1.372v-1.554h-1.372v-1.848h-1.792v1.848h-1.12v1.554h1.12v3.528c0 1.204.672 1.848 1.918 1.848zm7.026 0c2.058 0 3.234-1.134 3.906-2.296l-1.708-.826c-.392.77-1.232 1.358-2.198 1.358-1.694 0-2.926-1.302-2.926-3.066 0-1.764 1.232-3.066 2.926-3.066.966 0 1.806.602 2.198 1.358l1.708-.84c-.658-1.162-1.848-2.282-3.906-2.282-2.8 0-4.97 1.96-4.97 4.83s2.17 4.83 4.97 4.83zm8.184 0c2.24 0 3.584-1.624 3.584-3.556 0-1.918-1.344-3.542-3.584-3.542-2.226 0-3.57 1.624-3.57 3.542 0 1.932 1.344 3.556 3.57 3.556zm0-1.582c-1.106 0-1.722-.91-1.722-1.974 0-1.05.616-1.96 1.722-1.96 1.106 0 1.736.91 1.736 1.96 0 1.064-.63 1.974-1.736 1.974zm8.039 1.582c2.24 0 3.584-1.624 3.584-3.556 0-1.918-1.344-3.542-3.584-3.542-2.226 0-3.57 1.624-3.57 3.542 0 1.932 1.344 3.556 3.57 3.556zm0-1.582c-1.106 0-1.722-.91-1.722-1.974 0-1.05.616-1.96 1.722-1.96 1.106 0 1.736.91 1.736 1.96 0 1.064-.63 1.974-1.736 1.974zm11.511 1.414l-2.758-3.696 2.674-3.066h-2.184l-2.562 3.01v-5.586h-1.778v9.338h1.778v-1.736l.812-.868 1.792 2.604h2.226zm1.766-7.49c.588 0 1.064-.476 1.064-1.064 0-.588-.476-1.05-1.064-1.05a1.06 1.06 0 00-1.064 1.05c0 .588.49 1.064 1.064 1.064zm.896 7.49v-6.762h-1.778v6.762h1.778zm4.941.168c1.05 0 2.114-.322 2.786-.938l-.784-1.148c-.434.42-1.232.672-1.806.672-1.148 0-1.834-.714-1.946-1.568h5.026v-.392c0-2.212-1.372-3.724-3.388-3.724-2.058 0-3.5 1.582-3.5 3.542 0 2.17 1.554 3.556 3.612 3.556zm1.554-4.186h-3.332c.084-.672.56-1.498 1.666-1.498 1.176 0 1.624.854 1.666 1.498zm11.742 4.018l2.66-9.338h-2.24l-1.624 6.748-1.764-6.748h-1.554l-1.778 6.748-1.638-6.748h-2.226l2.674 9.338h2.114l1.624-6.412 1.638 6.412h2.114zm4.437-7.49c.588 0 1.064-.476 1.064-1.064 0-.588-.476-1.05-1.064-1.05a1.06 1.06 0 00-1.064 1.05c0 .588.49 1.064 1.064 1.064zm.896 7.49v-6.762h-1.778v6.762h1.778zm3.947 0v-5.208h1.372v-1.554h-1.372v-.364c0-.616.336-.952.84-.952.238 0 .434.07.574.168l.364-1.288c-.322-.168-.784-.28-1.288-.28-1.33 0-2.282.882-2.282 2.352v.364h-1.12v1.554h1.12v5.208h1.792zm3.276-7.49c.588 0 1.064-.476 1.064-1.064 0-.588-.476-1.05-1.064-1.05a1.06 1.06 0 00-1.064 1.05c0 .588.49 1.064 1.064 1.064zm.896 7.49v-6.762h-1.778v6.762h1.778z" fill="#3790EC"/><path fill="#DFDFE8" d="M92 292.11h262v-1H92z"/><path d="M110.454 283.11a1.49 1.49 0 01-1.493-1.489 1.49 1.49 0 011.493-1.488 1.49 1.49 0 011.493 1.488 1.49 1.49 0 01-1.493 1.489zm2.59-3.251a.812.812 0 00.581-.24c.32-.32.32-.84 0-1.163a4.465 4.465 0 00-3.174-1.311 4.468 4.468 0 00-3.175 1.311c-.32.32-.32.84 0 1.163a.83.83 0 001.166 0 2.828 2.828 0 012.009-.83c.759 0 1.473.293 2.008.83.162.161.373.24.585.24z" fill="#A6C1DC"/><path d="M105.483 277.491a.812.812 0 00.581-.24 6.169 6.169 0 014.386-1.812 6.17 6.17 0 014.387 1.812.83.83 0 001.166 0c.32-.32.32-.84 0-1.163a7.81 7.81 0 00-5.553-2.292 7.81 7.81 0 00-5.552 2.292c-.32.32-.32.84 0 1.163.162.158.373.24.585.24z" fill="#A6C1DC"/><path d="M102.289 274.876a.994.994 0 001.401 0 9.514 9.514 0 016.765-2.793c2.556 0 4.957.991 6.764 2.793a.99.99 0 001.397 0 .98.98 0 000-1.393 11.391 11.391 0 00-1.737-1.426 11.46 11.46 0 00-6.424-1.947c-.463 0-.925.026-1.378.082a11.461 11.461 0 00-6.784 3.291.979.979 0 00-.004 1.393z" fill="#D6E8F9"/><rect x="142" y="274.055" width="150" height="6" rx="3" fill="#A6C1DC"/><path fill="#DFDFE8" d="M92 323.11h262v1H92z"/><path d="M110.454 314.647a1.49 1.49 0 01-1.493-1.488 1.49 1.49 0 011.493-1.489 1.49 1.49 0 011.493 1.489 1.49 1.49 0 01-1.493 1.488zm2.59-3.25a.824.824 0 00.581-1.404 4.464 4.464 0 00-3.174-1.31 4.467 4.467 0 00-3.175 1.31c-.32.32-.32.84 0 1.163.321.32.843.32 1.166 0a2.833 2.833 0 012.009-.83c.759 0 1.473.293 2.008.83a.826.826 0 00.585.241z" fill="#A6C1DC"/><path d="M105.483 309.028a.812.812 0 00.581-.24 6.169 6.169 0 014.386-1.812 6.17 6.17 0 014.387 1.812.83.83 0 001.166 0c.32-.32.32-.84 0-1.163a7.81 7.81 0 00-5.553-2.292 7.81 7.81 0 00-5.552 2.292c-.32.32-.32.84 0 1.163.162.158.373.24.585.24z" fill="#D6E8F9"/><path d="M102.289 306.413a.994.994 0 001.401 0 9.518 9.518 0 016.765-2.793c2.556 0 4.957.992 6.764 2.793a.987.987 0 001.397-1.393 11.45 11.45 0 00-1.737-1.426 11.46 11.46 0 00-6.424-1.947c-.463 0-.925.027-1.378.083a11.454 11.454 0 00-6.784 3.29.979.979 0 00-.004 1.393z" fill="#D6E8F9"/><rect x="142" y="306.055" width="51" height="6" rx="3" fill="#A6C1DC"/><rect x="207" y="306.055" width="70" height="6" rx="3" fill="#A6C1DC"/></g><path d="M462.427 521.893c16.767.805 48.786 12.693 22.302 20.446-26.484 7.752-100.006 9.516-111.856-4.231-11.844-13.748 16.032-19.742 89.554-16.215z" fill="#DBE7F3"/><path d="M394.978 517.474s-7.608-3.651-8.913-3.868c-2.303-.382-6.191.813-7.494 4.916-1.319 4.099-.761 7.142.745 8.122 3.772 2.335 9.193 4.856 9.193 4.856l6.469-14.026z" fill="#95AEC7"/><path d="M385.012 523.628c1.511-4.927 4.722-6.719 7.499-7.311 1.401.649 2.467 1.157 2.467 1.157l-6.469 14.028s-5.423-2.521-9.193-4.856c-.738-.458-1.718-3.068-1.164-6.384.091 5.614 5.767 6.94 6.86 3.366z" fill="#7995B0"/><path d="M386.859 522.216c-1.818 3.879-1.155 8.036 1.492 9.284 2.651 1.257 6.289-.87 8.118-4.742 1.822-3.881 1.164-8.029-1.492-9.286-2.658-1.244-6.284.874-8.118 4.744z" fill="#A6C1DC"/><path d="M388.068 522.555c-.888 1.902-.567 3.932.734 4.544 1.298.613 3.07-.425 3.974-2.321.891-1.89.563-3.929-.733-4.541-1.299-.618-3.073.43-3.975 2.318z" fill="#95AEC7"/><path d="M388.492 522.877c-.843 1.792-.606 3.683.549 4.225 1.152.542 2.772-.47 3.61-2.26.849-1.792.601-3.681-.542-4.223-1.16-.549-2.768.463-3.617 2.258z" fill="#65809D"/><path d="M390.251 523.708c-.399.847-.28 1.745.266 2.007.542.255 1.306-.221 1.713-1.078.397-.845.287-1.745-.255-2.004-.551-.258-1.319.228-1.724 1.075z" fill="#99B8D7"/><path d="M396.827 524.184c.428-2.392-1.169-1.799-1.26-.59-.077 1.21-1.016 5.558-5.164 7.216 1.784.658 5.677-2.483 6.424-6.626z" fill="#B6D1ED"/><path d="M461.874 516.483s-6.965-3.337-8.157-3.542c-2.111-.351-5.66.743-6.876 4.499-1.194 3.758-.688 6.541.686 7.439 3.455 2.145 8.427 4.453 8.427 4.453l5.92-12.849z" fill="#95AEC7"/><path d="M452.743 522.116c1.387-4.512 4.339-6.152 6.876-6.694a162.1 162.1 0 012.255 1.061l-5.92 12.849s-4.972-2.31-8.427-4.453c-.675-.417-1.567-2.811-1.062-5.845.084 5.141 5.289 6.359 6.278 3.082z" fill="#7995B0"/><path d="M454.44 520.824c-1.672 3.554-1.064 7.36 1.371 8.503 2.424 1.144 5.751-.797 7.432-4.346 1.674-3.537 1.064-7.35-1.369-8.5-2.428-1.144-5.751.804-7.434 4.343z" fill="#A6C1DC"/><path d="M455.548 521.141c-.813 1.736-.519 3.599.674 4.155 1.189.56 2.818-.385 3.633-2.119.818-1.738.52-3.601-.667-4.163-1.194-.568-2.82.387-3.64 2.127z" fill="#95AEC7"/><path d="M455.935 521.435c-.777 1.633-.549 3.366.507 3.867 1.053.492 2.533-.432 3.308-2.079.774-1.633.551-3.367-.501-3.865-1.05-.492-2.533.432-3.314 2.077z" fill="#65809D"/><path d="M457.549 522.189c-.362.781-.262 1.603.246 1.838.503.232 1.198-.203 1.565-.977.364-.784.257-1.606-.237-1.841-.499-.237-1.207.201-1.574.98z" fill="#99B8D7"/><path d="M463.572 522.621c.394-2.186-1.063-1.646-1.15-.537-.084 1.111-.925 5.088-4.733 6.61 1.631.601 5.207-2.285 5.883-6.073z" fill="#B6D1ED"/><path d="M478.206 532.589c.486.064.971-.201 1.171-.679a1.104 1.104 0 00-.599-1.455l-20.743-8.667a1.106 1.106 0 00-1.456.594c-.243.57.032 1.223.595 1.463l20.743 8.673c.094.037.189.057.289.071z" fill="#99B8D7"/><path d="M478.276 532.466a1.11 1.11 0 00-.602-1.458l-20.738-8.674a1.445 1.445 0 00-.29-.072 1.102 1.102 0 011.392-.477l20.743 8.667c.57.237.841.895.599 1.456-.2.478-.687.742-1.17.678l-.007-.002c.013-.039.061-.068.073-.118z" fill="#B6D1ED"/><path d="M412.357 534.57a1.117 1.117 0 00.578-2.138l-20.738-8.669a1.118 1.118 0 00-1.465.601 1.112 1.112 0 00.595 1.46l20.745 8.667c.096.036.189.066.285.079z" fill="#99B8D7"/><path d="M412.436 534.445a1.118 1.118 0 00-.606-1.455l-20.743-8.676a1.47 1.47 0 00-.294-.071c.283-.49.877-.701 1.406-.48l20.738 8.669c.572.241.841.897.604 1.46a1.124 1.124 0 01-1.182.678c.02-.043.054-.077.077-.125z" fill="#B6D1ED"/><path d="M486.417 528.175s-6.956-3.342-8.152-3.545c-2.111-.35-5.66.747-6.863 4.506-1.209 3.751-.695 6.532.679 7.432 3.458 2.143 8.425 4.46 8.425 4.46l5.911-12.853z" fill="#95AEC7"/><path d="M477.299 533.805c1.381-4.503 4.332-6.145 6.868-6.696 1.284.603 2.25 1.068 2.25 1.068l-5.911 12.853s-4.967-2.316-8.425-4.46c-.677-.414-1.565-2.81-1.061-5.844.084 5.143 5.284 6.357 6.279 3.079z" fill="#7995B0"/><path d="M478.987 532.518c-1.674 3.551-1.055 7.357 1.375 8.501 2.426 1.15 5.752-.791 7.426-4.344 1.678-3.549 1.066-7.355-1.374-8.5-2.421-1.144-5.749.797-7.427 4.343z" fill="#A6C1DC"/><path d="M480.101 532.835c-.82 1.731-.522 3.594.665 4.157 1.196.56 2.822-.39 3.642-2.128.816-1.731.526-3.596-.669-4.157-1.183-.567-2.818.385-3.638 2.128z" fill="#95AEC7"/><path d="M480.495 533.117c-.782 1.645-.556 3.374.496 3.875 1.05.492 2.537-.433 3.316-2.073.763-1.64.547-3.373-.512-3.87-1.052-.494-2.54.431-3.3 2.068z" fill="#65809D"/><path d="M482.103 533.883c-.367.783-.265 1.605.237 1.838.494.234 1.202-.198 1.569-.987.369-.774.266-1.599-.237-1.835-.501-.235-1.205.202-1.569.984z" fill="#99B8D7"/><path d="M488.12 534.318c.401-2.192-1.064-1.65-1.143-.54-.082 1.109-.927 5.086-4.745 6.605 1.638.608 5.203-2.278 5.888-6.065z" fill="#B6D1ED"/><path d="M419.773 529.935s-8.079-3.881-9.454-4.109c-2.458-.407-6.569.864-7.963 5.221-1.399 4.357-.8 7.582.785 8.621 4.007 2.49 9.767 5.166 9.767 5.166l6.865-14.899z" fill="#95AEC7"/><path d="M409.191 536.463c1.599-5.232 5.032-7.129 7.965-7.758 1.485.688 2.617 1.233 2.617 1.233l-6.865 14.898s-5.76-2.678-9.767-5.166c-.779-.487-1.824-3.259-1.23-6.771.101 5.954 6.123 7.357 7.28 3.564z" fill="#7995B0"/><path d="M411.155 534.974c-1.938 4.113-1.227 8.516 1.583 9.853 2.82 1.328 6.681-.929 8.619-5.041 1.943-4.109 1.23-8.521-1.583-9.851-2.824-1.328-6.676.925-8.619 5.039z" fill="#A6C1DC"/><path d="M412.435 535.333c-.943 2.005-.597 4.169.788 4.816 1.369.656 3.259-.447 4.205-2.46.952-2.021.608-4.166-.773-4.825-1.38-.649-3.266.449-4.22 2.469z" fill="#95AEC7"/><path d="M412.887 535.666c-.893 1.906-.636 3.911.587 4.485 1.219.581 2.938-.497 3.838-2.394.893-1.909.636-3.913-.581-4.492-1.225-.576-2.942.499-3.844 2.401z" fill="#65809D"/><path d="M414.761 536.548c-.429.902-.306 1.86.277 2.129.579.276 1.39-.234 1.818-1.134.437-.904.301-1.861-.271-2.132-.59-.278-1.396.237-1.824 1.137z" fill="#99B8D7"/><path d="M421.737 537.058c.46-2.538-1.242-1.916-1.331-.636-.088 1.292-1.077 5.913-5.491 7.665 1.897.701 6.031-2.631 6.822-7.029zm47.349-15.202s.307 2.961.508 4.877c-.957-.444-2.155.362-1.679 1.754-2.733-1.11-6.334-2.62-6.334-2.62l-.583-3.997 8.088-.014z" fill="#B6D1ED"/><path d="M467.063 522.075s.529 5.428.852 6.412c-2.733-1.11-6.334-2.62-6.334-2.62l-.583-3.997 6.065.205z" fill="#88A4BF"/><path d="M400.215 522.549s.217 2.87.422 4.787c-.959-.444-2.064.447-1.59 1.848a1136.096 1136.096 0 01-6.341-2.627l-.583-3.999 8.092-.009z" fill="#B6D1ED"/><path d="M398.196 522.765s.531 5.428.85 6.419a1172.45 1172.45 0 01-6.341-2.627l-.583-3.999 6.074.207z" fill="#88A4BF"/><path d="M473.03 512.515c4.214.232 19.887-.61 22.432-.749 2.922-.176 4.197 2.182 2.466 3.605-1.371 1.132-10.058 5.03-11.514 5.415-1.46.378-50.567 5.692-90.378 3.938-19.524-.861-26.688-1.481-29.571-4.854-1.729-3.193 1.221-5.38 11.265-6.66 11.993-1.517 56.094-2.804 95.3-.695z" fill="#95AEC7"/><path d="M473.187 510.586c4.218.205 9.84-2.435 12.384-2.581 2.916-.171 14.247 3.884 12.544 5.232-1.36 1.078-9.984 4.815-11.428 5.182-1.446.362-50.422 5.546-90.221 3.975-19.515-.766-26.683-1.342-29.615-4.531-2.79-3.041 11.177-5.576 21.197-6.812 11.958-1.47 45.937-2.362 85.139-.465z" fill="#A1C4D5"/><path d="M473.187 510.586c4.218.205 9.84-2.435 12.384-2.581 2.916-.171 14.247 3.884 12.544 5.232-1.36 1.078-9.984 4.815-11.428 5.182-1.446.362-50.422 5.546-90.221 3.975-19.515-.766-26.683-1.342-29.615-4.531-2.79-3.041 11.177-5.576 21.197-6.812 11.958-1.47 45.937-2.362 85.139-.465z" fill="#A6C1DC"/><path d="M370.255 514.494c-1.827.839-2.631 1.752-1.747 2.718 2.929 3.189 10.099 3.767 29.613 4.53 39.801 1.57 88.776-3.612 90.223-3.974.166-.041.437-.135.774-.256-1.136.463-2.045.809-2.43.907-1.447.362-50.422 5.546-90.221 3.975-19.516-.766-26.684-1.342-29.615-4.531-1.118-1.223.462-2.359 3.403-3.369z" fill="#B9D1EA"/><path d="M385.901 515.613c-2.11-3.829 5.473-4.674 11.142-5.319 15.947-.956 44.327-1.252 76.142.292 1.961.096 4.21-.424 6.321-1.014 2.813-.421 6.312-.751 8.1.292 2.676 1.571 1.268 5.772-3.385 7.102-4.651 1.337-92.804 8.705-98.32-1.353z" fill="#B6D1ED"/><path d="M455.216 510.743c-4.449.524-26.185.556-38.706 1.979-8.628.989-14.288-1.257-8.131-1.929 6.145-.669 44.459-.464 46.837-.05z" fill="#C7E0FA"/><path d="M401.343 513.155c-.046.337.658.702 1.567.825.909.12 1.69-.041 1.736-.378.043-.326-.666-.688-1.574-.809-.911-.125-1.686.039-1.729.362zm5.807 4.002c-.046.33.658.695 1.567.816.908.123 1.683-.044 1.728-.374.044-.323-.66-.683-1.569-.806-.911-.123-1.681.038-1.726.364zm-23.142-2.729c-.043.326.656.688 1.569.811.907.121 1.681-.043 1.727-.371.043-.323-.661-.688-1.565-.811-.918-.123-1.688.046-1.731.371zm5.807 3.996c-.043.325.654.694 1.565.817.907.123 1.683-.052 1.724-.376.046-.328-.656-.697-1.567-.817-.909-.121-1.678.048-1.722.376zm76.345-5.907c-.036.287.572.599 1.362.709.786.105 1.458-.037 1.497-.324.036-.282-.574-.601-1.36-.706-.79-.107-1.46.041-1.499.321zm5.026 3.465c-.036.285.574.601 1.362.706.788.107 1.456-.036 1.494-.321.037-.283-.567-.602-1.357-.706-.788-.107-1.46.038-1.499.321z" fill="#65809D"/></svg>