<svg width="309" height="376" viewBox="0 0 309 376" fill="none" xmlns="http://www.w3.org/2000/svg">
<path d="M280.994 322.328C280.994 327.95 222.36 332.507 150.024 332.507C77.6939 332.507 19.0601 327.952 19.0601 322.328C19.0601 316.707 77.6939 312.15 150.031 312.15C222.36 312.15 280.994 316.707 280.994 322.328Z" fill="#DBE7F3"/>
<path d="M46.4246 301.266C46.3954 313.57 56.3228 323.552 68.5917 323.569L231.041 323.75C243.311 323.759 253.28 313.794 253.302 301.489L253.821 52.2618C253.843 39.9561 243.924 29.9689 231.654 29.9591L69.2049 29.778C56.9432 29.7623 46.9738 39.7274 46.9446 52.0319L46.4246 301.266Z" fill="#A6C1DC"/>
<path d="M153.789 314.256C153.793 316.965 151.6 319.165 148.891 319.169C146.182 319.173 143.982 316.98 143.978 314.271C143.974 311.562 146.167 309.363 148.876 309.358C151.585 309.354 153.785 311.547 153.789 314.256Z" fill="#B6D1ED"/>
<path d="M153.151 314.257C153.155 316.614 151.247 318.528 148.89 318.531C146.533 318.535 144.62 316.627 144.616 314.27C144.612 311.913 146.52 310 148.877 309.996C151.234 309.992 153.148 311.9 153.151 314.257Z" fill="#C7E0FA"/>
<path d="M150.263 39.6399C150.264 40.2438 149.775 40.734 149.171 40.735C148.567 40.7359 148.077 40.2471 148.076 39.6433C148.075 39.0394 148.564 38.5492 149.168 38.5482C149.772 38.5473 150.262 39.0361 150.263 39.6399Z" fill="#BCD1E4"/>
<path d="M238.906 303.737L61.8395 303.549L62.3703 49.2875L239.436 49.4758L238.906 303.737Z" fill="#C2DDF7"/>
<path d="M238.813 305.017L61.8172 304.913L61.8336 298.553L238.829 298.665L238.813 305.017Z" fill="#C7E0FA"/>
<path d="M253.408 126.929C253.407 127.325 253.725 127.649 254.12 127.65L254.72 127.648C255.115 127.648 255.439 127.329 255.441 126.926L254.846 113.159L255.501 99.3972C255.501 99.0012 255.176 98.6751 254.788 98.6759L254.188 98.6776C253.793 98.6773 253.469 98.9968 253.467 99.4L253.408 126.929Z" fill="#96B3CF"/>
<path d="M153.995 49.174L150.02 49.1809L145.91 49.182L61.7208 49.2475L61.8851 55.3321L144.028 55.2683L148.137 55.2673L239.656 55.2028L239.499 49.1193L153.995 49.174Z" fill="#96B3CF"/>
<mask id="mask0" mask-type="alpha" maskUnits="userSpaceOnUse" x="61" y="54" width="179" height="245">
<path d="M239.618 55.201L239.118 298.859L61.9129 298.495L62.4124 54.8377L239.618 55.201Z" fill="#C4C4C4"/>
</mask>
<g mask="url(#mask0)">
<path d="M61.8113 54.9655L239.601 54.9655L239.601 298.578L61.8113 298.578L61.8113 54.9655Z" fill="white"/>
<path d="M61.8113 54.9655L239.601 54.9655L239.601 71.2515L61.8113 71.2515L61.8113 54.9655Z" fill="#F5F5F7"/>
<path d="M70.1992 64.8836C69.9015 64.7194 69.6654 64.4781 69.5115 64.1595C69.3575 63.8409 69.2754 63.4643 69.2754 63.0202C69.2754 62.5761 69.3575 62.1996 69.5115 61.881C69.6654 61.5624 69.9015 61.321 70.1992 61.1472C70.4968 60.9734 70.8561 60.8962 71.2564 60.8962C71.6567 60.8962 72.0159 60.9831 72.3136 61.1472C72.6113 61.321 72.8371 61.5624 73.0013 61.881C73.1655 62.1996 73.2374 62.5761 73.2374 63.0202C73.2374 63.4547 73.1553 63.8312 73.0013 64.1498C72.8371 64.4684 72.6113 64.7194 72.3136 64.8836C72.0159 65.0573 71.667 65.1442 71.2564 65.1442C70.8458 65.1442 70.4968 65.0573 70.1992 64.8836ZM72.0673 64.0243C72.2623 63.7829 72.3649 63.445 72.3649 63.0202C72.3649 62.5857 72.2623 62.2478 72.0673 62.0065C71.8722 61.7651 71.5951 61.6492 71.2564 61.6492C70.9074 61.6492 70.6405 61.7651 70.4455 62.0161C70.2505 62.2575 70.1479 62.5954 70.1479 63.0299C70.1479 63.4547 70.2505 63.7926 70.4455 64.0339C70.6405 64.2657 70.9177 64.3912 71.2564 64.3912C71.5951 64.3912 71.8722 64.2657 72.0673 64.0243Z" fill="#A6C1DC"/>
<path d="M76.7993 61.4175C77.1175 61.7651 77.2817 62.2671 77.2817 62.9237C77.2817 63.6574 77.1072 64.2174 76.7685 64.5843C76.4195 64.9608 75.9576 65.1442 75.3623 65.1442C75.0236 65.1442 74.7362 65.096 74.5001 64.9898C74.264 64.8932 74.0792 64.7581 73.9663 64.5843C73.8432 64.4201 73.7816 64.2367 73.7918 64.0436L73.7918 63.976L74.613 63.976C74.6232 64.1208 74.6951 64.2367 74.8183 64.3236C74.9312 64.4105 75.1159 64.4491 75.3623 64.4491C75.6907 64.4491 75.9473 64.3429 76.1218 64.1402C76.2963 63.9278 76.399 63.6381 76.4195 63.2712C76.2963 63.3774 76.1424 63.4643 75.9576 63.5223C75.7728 63.5802 75.5676 63.6188 75.3417 63.6188C74.8696 63.6188 74.4693 63.5126 74.1614 63.2905C73.8534 63.0781 73.6995 62.7499 73.6995 62.3251C73.6995 62.0258 73.7713 61.7651 73.915 61.5527C74.0587 61.3403 74.2537 61.1762 74.5103 61.07C74.7669 60.9638 75.0543 60.9058 75.3931 60.9058C76.0089 60.8962 76.4708 61.07 76.7993 61.4175ZM76.1013 62.8271C76.2758 62.7016 76.3579 62.5375 76.3579 62.3347C76.3579 62.2092 76.3168 62.0837 76.245 61.9679C76.1629 61.8617 76.05 61.7651 75.9063 61.6975C75.7626 61.6299 75.5983 61.5913 75.4033 61.5913C75.1365 61.5913 74.9209 61.6589 74.7772 61.7941C74.6335 61.9292 74.5514 62.103 74.5514 62.3154C74.5514 62.5278 74.6335 62.7016 74.808 62.8271C74.9825 62.9526 75.198 63.0106 75.4649 63.0106C75.7113 63.0202 75.9268 62.9526 76.1013 62.8271Z" fill="#A6C1DC"/>
<path d="M77.8976 62.5955C77.795 62.4989 77.7437 62.383 77.7437 62.2479C77.7437 62.1127 77.795 61.9969 77.8976 61.9003C78.0003 61.8038 78.1234 61.7555 78.2671 61.7555C78.4108 61.7555 78.5237 61.8038 78.6264 61.9003C78.729 61.9969 78.7803 62.1127 78.7803 62.2479C78.7803 62.383 78.729 62.4989 78.6264 62.5955C78.5237 62.692 78.4108 62.7403 78.2671 62.7403C78.1234 62.7403 78.0003 62.692 77.8976 62.5955ZM77.8976 64.874C77.795 64.7774 77.7437 64.6616 77.7437 64.5264C77.7437 64.3912 77.795 64.2754 77.8976 64.1788C78.0003 64.0823 78.1234 64.034 78.2671 64.034C78.4108 64.034 78.5237 64.0823 78.6264 64.1788C78.729 64.2754 78.7803 64.3912 78.7803 64.5264C78.7803 64.6616 78.729 64.7774 78.6264 64.874C78.5237 64.9705 78.4108 65.0188 78.2671 65.0188C78.1234 65.0188 78.0003 64.9705 77.8976 64.874Z" fill="#A6C1DC"/>
<path d="M82.3213 64.3042L82.3213 65.0573L81.4694 65.0573L81.4694 64.3042L79.1189 64.3042L79.1189 63.947L81.7876 60.954L82.3213 60.954L82.3213 63.6187L83.009 63.6187L83.009 64.3042L82.3213 64.3042ZM80.248 63.6574L81.5002 63.6574L81.5002 62.2381L80.248 63.6574Z" fill="#A6C1DC"/>
<path d="M86.0059 62.5278C86.2522 62.6436 86.4473 62.7981 86.5807 63.0105C86.7244 63.2229 86.786 63.4739 86.786 63.7539C86.786 64.2077 86.632 64.5553 86.3241 64.787C86.0162 65.0283 85.5953 65.1442 85.0616 65.1442C84.7126 65.1442 84.3944 65.0959 84.1378 64.9897C83.8709 64.8835 83.6656 64.7387 83.5219 64.5456C83.3782 64.3525 83.3064 64.1304 83.3064 63.8698L83.3064 63.8022L84.1173 63.8022L84.1173 63.8312C84.1173 64.0146 84.1994 64.1594 84.3739 64.2656C84.5484 64.3718 84.7639 64.4297 85.0411 64.4297C85.3182 64.4297 85.5337 64.3718 85.6877 64.2463C85.8417 64.1208 85.9238 63.947 85.9238 63.7346C85.9238 63.4932 85.8417 63.3098 85.6774 63.1939C85.5132 63.0684 85.2874 63.0105 85 63.0105C84.8358 63.0105 84.6818 63.0298 84.5278 63.0781C84.3841 63.1167 84.2712 63.1746 84.1994 63.2519L83.4706 63.2422L83.6041 60.9927L86.4883 60.9927L86.4883 61.6975L84.3636 61.6975L84.3123 62.5181C84.4252 62.4698 84.5586 62.4409 84.7023 62.4119C84.8563 62.3829 85.0103 62.3733 85.1642 62.3733C85.4722 62.354 85.7596 62.4119 86.0059 62.5278Z" fill="#A6C1DC"/>
<path fill-rule="evenodd" clip-rule="evenodd" d="M211.815 65.0573L210.501 65.0573L210.501 60.732L211.815 60.732L211.815 65.0573ZM209.844 65.0573L208.53 65.0573L208.53 61.3499L209.844 61.3499L209.844 65.0573ZM207.873 65.0573L206.56 65.0573L206.56 61.9678L207.873 61.9678L207.873 65.0573ZM205.903 65.0573L204.589 65.0573L204.589 62.5857L205.903 62.5857L205.903 65.0573ZM203.932 65.0573L202.618 65.0573L202.618 63.2036L203.932 63.2036L203.932 65.0573Z" fill="#A6C1DC"/>
<path d="M216.968 63.6188L217.512 64.1305C217.696 63.9567 217.953 63.8505 218.23 63.8505C218.528 63.8505 218.784 63.9664 218.979 64.1498L219.523 63.6285C219.195 63.3195 218.743 63.1168 218.24 63.1168C217.748 63.1264 217.296 63.3099 216.968 63.6188ZM215.972 62.692L216.506 63.1844C216.947 62.7692 217.563 62.5085 218.24 62.5085C218.918 62.5085 219.534 62.7692 219.985 63.194L220.509 62.692C219.934 62.1417 219.133 61.8134 218.251 61.8134C217.358 61.8037 216.557 62.1513 215.972 62.692ZM218.24 60.3942C216.937 60.3942 215.756 60.8962 214.905 61.7072L215.5 62.2575C216.198 61.5913 217.173 61.1858 218.24 61.1858C219.308 61.1858 220.273 61.5913 220.971 62.2479L221.556 61.6879C220.704 60.8866 219.534 60.3942 218.24 60.3942ZM218.22 64.3719C218.015 64.3719 217.85 64.5264 217.85 64.7195C217.85 64.9126 218.015 65.067 218.22 65.067C218.425 65.067 218.589 64.9126 218.589 64.7195C218.589 64.5264 218.425 64.3719 218.22 64.3719Z" fill="#A6C1DC"/>
<path d="M232.744 61.9388L232.744 60.732L225.066 60.732L225.066 65.0476L232.744 65.0476L232.744 64.8352L232.744 63.8408L233.504 63.8408L233.504 61.9388L232.744 61.9388ZM232.292 64.6325L225.508 64.6325L225.508 61.1568L232.292 61.1568L232.292 64.6325ZM229.326 64.3525L229.326 61.4368L225.836 61.4368L225.836 64.3525L229.326 64.3525Z" fill="#A6C1DC"/>
<path d="M209.064 78.716L92.3474 78.716L92.3474 96.3592L209.064 96.3592L209.064 78.716Z" fill="#F5F5F7"/>
<path d="M129.514 90.252L131.061 84.8206H129.758L128.814 88.7455L127.788 84.8206H126.884L125.85 88.7455L124.897 84.8206H123.602L125.157 90.252H126.387L127.332 86.5225L128.284 90.252H129.514Z" fill="#A6C1DC"/>
<path d="M132.6 90.252V84.8206H131.444V90.252H132.6Z" fill="#A6C1DC"/>
<path d="M134.672 90.252V88.0045H137.302V86.9866H134.672V85.8385H137.359V84.8206H133.515V90.252H134.672Z" fill="#A6C1DC"/>
<path d="M139.161 90.252V84.8206H138.004V90.252H139.161Z" fill="#A6C1DC"/>
<path d="M146.858 90.252V84.8206H145.702V88.2325L143.186 84.8206H141.997V90.252H143.153V86.7098L145.743 90.252H146.858Z" fill="#A6C1DC"/>
<path d="M151.61 90.252V89.2341H148.922V88.0045H151.553V86.9866H148.922V85.8385H151.61V84.8206H147.766V90.252H151.61Z" fill="#A6C1DC"/>
<path d="M154.769 90.252V85.8385H156.349V84.8206H152.017V85.8385H153.605V90.252H154.769Z" fill="#A6C1DC"/>
<path d="M162.31 90.252L163.857 84.8206H162.554L161.61 88.7455L160.584 84.8206H159.68L158.646 88.7455L157.693 84.8206H156.398L157.953 90.252H159.183L160.128 86.5225L161.08 90.252H162.31Z" fill="#A6C1DC"/>
<path d="M166.654 90.3497C168.299 90.3497 169.496 89.1771 169.496 87.5404C169.496 85.9036 168.299 84.731 166.654 84.731C165.017 84.731 163.82 85.9036 163.82 87.5404C163.82 89.1771 165.017 90.3497 166.654 90.3497ZM166.654 89.3237C165.652 89.3237 165.009 88.5501 165.009 87.5404C165.009 86.5225 165.652 85.757 166.654 85.757C167.655 85.757 168.307 86.5225 168.307 87.5404C168.307 88.5501 167.655 89.3237 166.654 89.3237Z" fill="#A6C1DC"/>
<path d="M174.541 90.252L173.32 88.1837C173.906 88.0452 174.509 87.5322 174.509 86.5713C174.509 85.5616 173.817 84.8206 172.685 84.8206H170.144V90.252H171.301V88.3221H172.147L173.214 90.252H174.541ZM172.514 87.3042H171.301V85.8385H172.514C172.978 85.8385 173.328 86.1153 173.328 86.5713C173.328 87.0274 172.978 87.3042 172.514 87.3042Z" fill="#A6C1DC"/>
<path d="M179.864 90.252L177.559 87.3694L179.717 84.8206H178.292L176.37 87.2472V84.8206H175.214V90.252H176.37V88.5827L176.794 88.0778L178.439 90.252H179.864Z" fill="#A6C1DC"/>
<path d="M228.588 78.716L213.814 78.723L213.814 96.3592L228.588 96.3523C230.549 96.3523 232.136 94.7851 232.136 92.8487L232.136 82.2196C232.129 80.2832 230.542 78.716 228.588 78.716Z" fill="#F5F5F7"/>
<path d="M87.5972 78.723L72.7983 78.716C70.8512 78.716 69.2754 80.2826 69.2754 82.2182L69.2754 92.8501C69.2754 94.7857 70.8512 96.3523 72.7983 96.3523L87.5972 96.3592L87.5972 78.723Z" fill="#F5F5F7"/>
<path fill-rule="evenodd" clip-rule="evenodd" d="M227.859 89.1672L228.065 88.1007L226.921 87.9164C226.935 87.4885 226.857 87.0737 226.707 86.6853L227.695 86.1586L227.113 85.2172L226.139 85.7373C225.919 85.4806 225.67 85.2501 225.379 85.0592L225.848 84.131L224.789 83.6701L224.327 84.5852C224.192 84.5457 224.057 84.5128 223.922 84.4931C223.702 84.4601 223.482 84.447 223.261 84.447L223.077 83.4661L221.925 83.657L222.11 84.6313C221.762 84.7432 221.442 84.8946 221.144 85.0921L220.391 84.3943L219.566 85.158L220.327 85.8624C220.121 86.1323 219.95 86.4285 219.829 86.7511L218.771 86.58L218.564 87.6465L219.637 87.8242C219.637 88.2653 219.73 88.6932 219.9 89.0816L218.941 89.5951L219.524 90.5365L220.504 90.0099C220.732 90.2534 220.987 90.4773 221.279 90.655L220.796 91.6162L221.854 92.077L222.345 91.1027C222.444 91.129 222.551 91.1488 222.657 91.1685C222.899 91.208 223.133 91.2212 223.368 91.2212L223.574 92.2877L224.725 92.0968L224.519 91.0171C224.839 90.9118 225.144 90.7604 225.421 90.5826L226.26 91.3594L227.084 90.5958L226.246 89.8189C226.445 89.5688 226.608 89.2857 226.722 88.9829L227.859 89.1672ZM224.981 88.1073C224.817 88.9829 223.915 89.5688 222.97 89.4174C222.025 89.2659 221.392 88.4299 221.556 87.5477C221.719 86.6721 222.622 86.0862 223.574 86.2376C224.519 86.3956 225.151 87.2317 224.981 88.1073Z" fill="#A6C1DC"/>
<path fill-rule="evenodd" clip-rule="evenodd" d="M82.4973 86.4697L79.6548 83.5677C78.8345 82.6879 78.0638 83.5677 78.0638 83.5677L75.7516 85.8595C74.0122 87.5339 74.889 87.9029 75.2213 87.9738L75.2213 91.1737C75.2213 91.7839 75.7163 92.2806 76.3244 92.2806L77.7951 92.2806L77.7951 89.7263C77.7951 89.7263 77.6891 89.4354 78.2972 89.4354C78.9053 89.4354 79.5416 89.4354 79.5416 89.4354C79.5416 89.4354 79.8315 89.4071 79.8315 89.7831C79.8315 90.1591 79.8598 92.2877 79.8598 92.2877L81.274 92.2877C81.8821 92.2877 82.3771 91.791 82.3771 91.1808L82.3771 87.8035C83.3599 87.6475 82.4973 86.4697 82.4973 86.4697ZM81.9387 83.142C81.9387 83.142 81.9952 82.7944 81.5639 82.7944L80.6093 82.7944C80.6093 82.7944 80.2629 82.7163 80.2629 83.0853C80.2629 83.4613 80.2629 83.6174 80.2629 83.6174L81.9387 85.1925L81.9387 83.142Z" fill="#A6C1DC"/>
<path d="M61.811 133.719L239.601 133.719L239.601 133.04L61.811 133.04L61.811 133.719Z" fill="#DFDFE8"/>
<path d="M74.3333 127.612C73.7738 127.612 73.3202 127.159 73.3202 126.601C73.3202 126.043 73.7738 125.591 74.3333 125.591C74.8928 125.591 75.3464 126.043 75.3464 126.601C75.3464 127.159 74.8928 127.612 74.3333 127.612Z" fill="#A6C1DC"/>
<path d="M76.0909 125.406C76.2343 125.406 76.3778 125.352 76.4854 125.242C76.7028 125.026 76.7028 124.672 76.4854 124.453C75.9093 123.879 75.145 123.564 74.3314 123.564C73.5177 123.564 72.7534 123.879 72.1774 124.453C71.96 124.67 71.96 125.023 72.1774 125.242C72.3948 125.459 72.7489 125.459 72.9686 125.242C73.3317 124.88 73.8159 124.679 74.3314 124.679C74.8469 124.679 75.331 124.878 75.6942 125.242C75.804 125.352 75.9474 125.406 76.0909 125.406Z" fill="#A6C1DC"/>
<path d="M70.9605 123.799C71.1039 123.799 71.2474 123.745 71.355 123.635C72.1507 122.842 73.2064 122.406 74.3316 122.406C75.4568 122.406 76.5125 122.842 77.3082 123.635C77.5256 123.852 77.8797 123.852 78.0994 123.635C78.3168 123.419 78.3168 123.065 78.0994 122.846C77.093 121.843 75.7549 121.291 74.3316 121.291C72.9083 121.291 71.5701 121.843 70.5638 122.846C70.3463 123.063 70.3463 123.416 70.5638 123.635C70.6736 123.743 70.817 123.799 70.9605 123.799Z" fill="#A6C1DC"/>
<path d="M68.7931 122.024C68.9231 122.154 69.0957 122.221 69.2683 122.221C69.4409 122.221 69.6112 122.156 69.7435 122.024C70.9695 120.801 72.599 120.129 74.3339 120.129C76.0687 120.129 77.6982 120.801 78.9243 122.024C79.1865 122.285 79.6124 122.285 79.8724 122.024C80.1347 121.762 80.1347 121.338 79.8724 121.079C79.5071 120.714 79.1126 120.39 78.6934 120.111C77.4136 119.25 75.9096 118.79 74.3339 118.79C74.0201 118.79 73.7063 118.808 73.3992 118.846C71.6599 119.051 70.0505 119.825 68.7953 121.079C68.5308 121.34 68.5308 121.762 68.7931 122.024Z" fill="#D6E8F9"/>
<path d="M95.7402 123.54C95.7402 122.416 96.6517 121.504 97.776 121.504L169.028 121.504C170.152 121.504 171.063 122.416 171.063 123.54C171.063 124.664 170.152 125.576 169.028 125.576L97.776 125.576C96.6517 125.576 95.7402 124.664 95.7402 123.54Z" fill="#A6C1DC"/>
<path d="M61.811 154.755L239.601 154.755L239.601 155.433L61.811 155.433L61.811 154.755Z" fill="#DFDFE8"/>
<path d="M74.3343 149.012C73.7748 149.012 73.3212 148.56 73.3212 148.002C73.3212 147.444 73.7748 146.992 74.3343 146.992C74.8938 146.992 75.3474 147.444 75.3474 148.002C75.3474 148.56 74.8938 149.012 74.3343 149.012Z" fill="#A6C1DC"/>
<path d="M76.0919 146.806C76.2353 146.806 76.3788 146.753 76.4864 146.643C76.7038 146.426 76.7038 146.073 76.4864 145.854C75.9103 145.28 75.146 144.965 74.3324 144.965C73.5187 144.965 72.7544 145.28 72.1784 145.854C71.9609 146.071 71.9609 146.424 72.1784 146.643C72.3958 146.86 72.7499 146.86 72.9696 146.643C73.3327 146.281 73.8168 146.08 74.3324 146.08C74.8479 146.08 75.332 146.279 75.6951 146.643C75.805 146.753 75.9484 146.806 76.0919 146.806Z" fill="#A6C1DC"/>
<path d="M70.961 145.199C71.1044 145.199 71.2479 145.146 71.3555 145.036C72.1512 144.243 73.2069 143.807 74.3321 143.807C75.4572 143.807 76.513 144.243 77.3087 145.036C77.5261 145.253 77.8802 145.253 78.0999 145.036C78.3173 144.819 78.3173 144.466 78.0999 144.247C77.0935 143.244 75.7554 142.692 74.3321 142.692C72.9088 142.692 71.5706 143.244 70.5642 144.247C70.3468 144.464 70.3468 144.817 70.5642 145.036C70.6741 145.143 70.8175 145.199 70.961 145.199Z" fill="#D6E8F9"/>
<path d="M68.7938 143.425C68.9238 143.554 69.0964 143.621 69.269 143.621C69.4416 143.621 69.6119 143.556 69.7442 143.425C70.9702 142.202 72.5997 141.529 74.3346 141.529C76.0695 141.529 77.699 142.202 78.925 143.425C79.1873 143.686 79.6131 143.686 79.8731 143.425C80.1354 143.163 80.1354 142.738 79.8731 142.479C79.5078 142.115 79.1133 141.791 78.6942 141.511C77.4143 140.651 75.9103 140.191 74.3346 140.191C74.0208 140.191 73.707 140.208 73.3999 140.246C71.6606 140.452 70.0513 141.225 68.7961 142.479C68.5316 142.741 68.5316 143.163 68.7938 143.425Z" fill="#D6E8F9"/>
<path d="M95.7405 145.255C95.7405 144.13 96.6519 143.219 97.7762 143.219L146.634 143.219C147.759 143.219 148.67 144.13 148.67 145.255C148.67 146.379 147.759 147.29 146.634 147.29L97.7762 147.29C96.6519 147.29 95.7405 146.379 95.7405 145.255Z" fill="#A6C1DC"/>
<path d="M156.135 145.255C156.135 144.13 157.046 143.219 158.171 143.219L200.243 143.219C201.367 143.219 202.279 144.13 202.279 145.255C202.279 146.379 201.367 147.291 200.243 147.291L158.171 147.291C157.046 147.291 156.135 146.379 156.135 145.255Z" fill="#A6C1DC"/>
<path d="M61.811 176.47L239.601 176.47L239.601 177.148L61.811 177.148L61.811 176.47Z" fill="#DFDFE8"/>
<path d="M61.811 155.434L239.601 155.434L239.601 176.47L61.811 176.47L61.811 155.434Z" fill="#F3F3F3"/>
<path d="M74.3331 170.727C73.7735 170.727 73.32 170.275 73.32 169.717C73.32 169.159 73.7735 168.706 74.3331 168.706C74.8926 168.706 75.3462 169.159 75.3462 169.717C75.3462 170.275 74.8926 170.727 74.3331 170.727Z" fill="#3790EC"/>
<path d="M76.0904 168.521C76.2338 168.521 76.3773 168.467 76.4849 168.358C76.7023 168.141 76.7023 167.788 76.4849 167.569C75.9088 166.995 75.1445 166.679 74.3309 166.679C73.5173 166.679 72.7529 166.995 72.1769 167.569C71.9595 167.786 71.9595 168.139 72.1769 168.358C72.3943 168.575 72.7484 168.575 72.9681 168.358C73.3312 167.996 73.8154 167.795 74.3309 167.795C74.8464 167.795 75.3306 167.994 75.6937 168.358C75.8035 168.467 75.9469 168.521 76.0904 168.521Z" fill="#3790EC"/>
<path d="M70.9598 166.914C71.1032 166.914 71.2467 166.86 71.3542 166.751C72.1499 165.957 73.2056 165.522 74.3308 165.522C75.456 165.522 76.5117 165.957 77.3074 166.751C77.5249 166.968 77.879 166.968 78.0987 166.751C78.3161 166.534 78.3161 166.181 78.0987 165.962C77.0923 164.958 75.7541 164.406 74.3308 164.406C72.9075 164.406 71.5694 164.958 70.563 165.962C70.3456 166.179 70.3456 166.532 70.563 166.751C70.6728 166.858 70.8163 166.914 70.9598 166.914Z" fill="#3790EC"/>
<path d="M68.7928 165.139C68.9229 165.269 69.0954 165.336 69.268 165.336C69.4406 165.336 69.611 165.271 69.7432 165.139C70.9693 163.917 72.5988 163.244 74.3336 163.244C76.0685 163.244 77.698 163.917 78.924 165.139C79.1863 165.401 79.6122 165.401 79.8722 165.139C80.1344 164.878 80.1344 164.453 79.8722 164.194C79.5068 163.83 79.1123 163.506 78.6932 163.226C77.4133 162.366 75.9093 161.905 74.3336 161.905C74.0198 161.905 73.706 161.923 73.399 161.961C71.6596 162.167 70.0503 162.94 68.7951 164.194C68.5306 164.456 68.5306 164.878 68.7928 165.139Z" fill="#3790EC"/>
<path d="M97.9403 169.798C99.6503 169.798 100.477 168.924 100.477 167.765C100.477 165.399 96.8383 166.074 96.8383 165.067C96.8383 164.687 97.1613 164.43 97.7408 164.43C98.3868 164.43 99.0708 164.649 99.5838 165.124L100.334 164.136C99.7073 163.556 98.8713 163.252 97.8643 163.252C96.3728 163.252 95.4607 164.126 95.4607 165.181C95.4607 167.565 99.1088 166.796 99.1088 167.917C99.1088 168.278 98.7478 168.62 98.0068 168.62C97.1328 168.62 96.4393 168.23 95.9927 167.765L95.2612 168.791C95.8502 169.389 96.7243 169.798 97.9403 169.798Z" fill="#3790EC"/>
<path d="M108.263 169.684L108.263 166.368C108.263 165.428 107.76 164.981 106.914 164.981C106.211 164.981 105.603 165.399 105.337 165.817C105.166 165.295 104.739 164.981 104.064 164.981C103.361 164.981 102.753 165.418 102.563 165.694L102.563 165.095L101.357 165.095L101.357 169.684L102.563 169.684L102.563 166.596C102.744 166.34 103.095 166.055 103.513 166.055C104.007 166.055 104.197 166.359 104.197 166.786L104.197 169.684L105.413 169.684L105.413 166.587C105.584 166.34 105.936 166.055 106.363 166.055C106.857 166.055 107.047 166.359 107.047 166.786L107.047 169.684L108.263 169.684Z" fill="#3790EC"/>
<path d="M113.408 169.684L113.408 166.72C113.408 165.399 112.449 164.981 111.404 164.981C110.682 164.981 109.96 165.209 109.399 165.703L109.855 166.511C110.245 166.15 110.701 165.969 111.195 165.969C111.803 165.969 112.202 166.273 112.202 166.739L112.202 167.356C111.898 166.995 111.356 166.796 110.748 166.796C110.017 166.796 109.152 167.204 109.152 168.278C109.152 169.304 110.017 169.798 110.748 169.798C111.347 169.798 111.888 169.579 112.202 169.209L112.202 169.684L113.408 169.684ZM111.233 168.981C110.758 168.981 110.368 168.734 110.368 168.306C110.368 167.86 110.758 167.613 111.233 167.613C111.622 167.613 112.002 167.746 112.202 168.012L112.202 168.582C112.002 168.848 111.622 168.981 111.233 168.981Z" fill="#3790EC"/>
<path d="M115.812 169.684L115.812 166.653C116.011 166.359 116.543 166.131 116.942 166.131C117.075 166.131 117.189 166.14 117.275 166.159L117.275 164.981C116.705 164.981 116.135 165.314 115.812 165.722L115.812 165.095L114.605 165.095L114.605 169.684L115.812 169.684Z" fill="#3790EC"/>
<path d="M119.567 169.798C120.071 169.798 120.394 169.665 120.574 169.503L120.318 168.591C120.251 168.658 120.08 168.724 119.9 168.724C119.634 168.724 119.482 168.506 119.482 168.221L119.482 166.15L120.413 166.15L120.413 165.095L119.482 165.095L119.482 163.841L118.266 163.841L118.266 165.095L117.506 165.095L117.506 166.15L118.266 166.15L118.266 168.544C118.266 169.361 118.722 169.798 119.567 169.798Z" fill="#3790EC"/>
<path d="M124.335 169.798C125.732 169.798 126.53 169.028 126.986 168.24L125.827 167.679C125.561 168.202 124.991 168.601 124.335 168.601C123.186 168.601 122.35 167.717 122.35 166.52C122.35 165.323 123.186 164.44 124.335 164.44C124.991 164.44 125.561 164.848 125.827 165.361L126.986 164.791C126.54 164.003 125.732 163.243 124.335 163.243C122.435 163.243 120.963 164.573 120.963 166.52C120.963 168.468 122.435 169.798 124.335 169.798Z" fill="#3790EC"/>
<path d="M129.889 169.798C131.409 169.798 132.321 168.696 132.321 167.385C132.321 166.083 131.409 164.981 129.889 164.981C128.378 164.981 127.466 166.083 127.466 167.385C127.466 168.696 128.378 169.798 129.889 169.798ZM129.889 168.724C129.138 168.724 128.72 168.107 128.72 167.385C128.72 166.672 129.138 166.055 129.889 166.055C130.639 166.055 131.067 166.672 131.067 167.385C131.067 168.107 130.639 168.724 129.889 168.724Z" fill="#3790EC"/>
<path d="M135.344 169.798C136.864 169.798 137.776 168.696 137.776 167.385C137.776 166.083 136.864 164.981 135.344 164.981C133.833 164.981 132.921 166.083 132.921 167.385C132.921 168.696 133.833 169.798 135.344 169.798ZM135.344 168.724C134.593 168.724 134.175 168.107 134.175 167.385C134.175 166.672 134.593 166.055 135.344 166.055C136.094 166.055 136.522 166.672 136.522 167.385C136.522 168.107 136.094 168.724 135.344 168.724Z" fill="#3790EC"/>
<path d="M143.155 169.684L141.283 167.176L143.098 165.095L141.616 165.095L139.877 167.138L139.877 163.347L138.671 163.347L138.671 169.684L139.877 169.684L139.877 168.506L140.428 167.917L141.644 169.684L143.155 169.684Z" fill="#3790EC"/>
<path d="M144.354 164.601C144.753 164.601 145.076 164.278 145.076 163.879C145.076 163.48 144.753 163.167 144.354 163.167C143.964 163.167 143.632 163.48 143.632 163.879C143.632 164.278 143.964 164.601 144.354 164.601ZM144.962 169.684L144.962 165.095L143.755 165.095L143.755 169.684L144.962 169.684Z" fill="#3790EC"/>
<path d="M148.314 169.798C149.027 169.798 149.749 169.579 150.205 169.161L149.673 168.382C149.378 168.667 148.837 168.838 148.447 168.838C147.668 168.838 147.203 168.354 147.127 167.774L150.538 167.774L150.538 167.508C150.538 166.007 149.606 164.981 148.238 164.981C146.842 164.981 145.863 166.055 145.863 167.385C145.863 168.857 146.918 169.798 148.314 169.798ZM149.369 166.957L147.108 166.957C147.165 166.501 147.488 165.941 148.238 165.941C149.036 165.941 149.34 166.52 149.369 166.957Z" fill="#3790EC"/>
<path d="M157.337 169.684L159.142 163.347L157.622 163.347L156.52 167.926L155.323 163.347L154.268 163.347L153.062 167.926L151.95 163.347L150.44 163.347L152.254 169.684L153.689 169.684L154.791 165.333L155.902 169.684L157.337 169.684Z" fill="#3790EC"/>
<path d="M160.348 164.601C160.747 164.601 161.07 164.278 161.07 163.879C161.07 163.48 160.747 163.167 160.348 163.167C159.959 163.167 159.626 163.48 159.626 163.879C159.626 164.278 159.959 164.601 160.348 164.601ZM160.956 169.684L160.956 165.095L159.75 165.095L159.75 169.684L160.956 169.684Z" fill="#3790EC"/>
<path d="M163.634 169.684L163.634 166.15L164.565 166.15L164.565 165.095L163.634 165.095L163.634 164.848C163.634 164.43 163.862 164.202 164.204 164.202C164.366 164.202 164.499 164.25 164.594 164.316L164.841 163.442C164.622 163.328 164.309 163.252 163.967 163.252C163.064 163.252 162.418 163.851 162.418 164.848L162.418 165.095L161.658 165.095L161.658 166.15L162.418 166.15L162.418 169.684L163.634 169.684ZM165.857 164.601C166.256 164.601 166.579 164.278 166.579 163.879C166.579 163.48 166.256 163.167 165.857 163.167C165.468 163.167 165.135 163.48 165.135 163.879C165.135 164.278 165.468 164.601 165.857 164.601ZM166.465 169.684L166.465 165.095L165.259 165.095L165.259 169.684L166.465 169.684Z" fill="#3790EC"/>
<path d="M61.811 198.222L239.601 198.222L239.601 197.543L61.811 197.543L61.811 198.222Z" fill="#DFDFE8"/>
<path d="M74.3333 192.115C73.7738 192.115 73.3202 191.662 73.3202 191.104C73.3202 190.546 73.7738 190.094 74.3333 190.094C74.8928 190.094 75.3464 190.546 75.3464 191.104C75.3464 191.662 74.8928 192.115 74.3333 192.115Z" fill="#A6C1DC"/>
<path d="M76.0909 189.909C76.2343 189.909 76.3778 189.855 76.4854 189.746C76.7028 189.529 76.7028 189.176 76.4854 188.957C75.9093 188.382 75.145 188.067 74.3314 188.067C73.5177 188.067 72.7534 188.382 72.1774 188.957C71.96 189.173 71.96 189.526 72.1774 189.746C72.3948 189.962 72.7489 189.962 72.9686 189.746C73.3317 189.383 73.8159 189.182 74.3314 189.182C74.8469 189.182 75.331 189.381 75.6942 189.746C75.804 189.855 75.9474 189.909 76.0909 189.909Z" fill="#A6C1DC"/>
<path d="M70.9605 188.302C71.1039 188.302 71.2474 188.248 71.355 188.139C72.1507 187.345 73.2064 186.909 74.3316 186.909C75.4568 186.909 76.5125 187.345 77.3082 188.139C77.5256 188.355 77.8797 188.355 78.0994 188.139C78.3168 187.922 78.3168 187.569 78.0994 187.35C77.093 186.346 75.7549 185.794 74.3316 185.794C72.9083 185.794 71.5701 186.346 70.5638 187.35C70.3463 187.566 70.3463 187.92 70.5638 188.139C70.6736 188.246 70.817 188.302 70.9605 188.302Z" fill="#A6C1DC"/>
<path d="M68.7931 186.527C68.9231 186.657 69.0957 186.724 69.2683 186.724C69.4409 186.724 69.6112 186.659 69.7435 186.527C70.9695 185.304 72.599 184.632 74.3339 184.632C76.0687 184.632 77.6982 185.304 78.9243 186.527C79.1865 186.789 79.6124 186.789 79.8724 186.527C80.1347 186.266 80.1347 185.841 79.8724 185.582C79.5071 185.217 79.1126 184.893 78.6934 184.614C77.4136 183.753 75.9096 183.293 74.3339 183.293C74.0201 183.293 73.7063 183.311 73.3992 183.349C71.6599 183.554 70.0505 184.328 68.7953 185.582C68.5308 185.843 68.5308 186.266 68.7931 186.527Z" fill="#D6E8F9"/>
<path d="M95.7405 188.006C95.7405 186.881 96.6519 185.97 97.7762 185.97L195.493 185.97C196.617 185.97 197.528 186.881 197.528 188.006C197.528 189.13 196.617 190.042 195.493 190.042L97.7762 190.042C96.6519 190.042 95.7405 189.13 95.7405 188.006Z" fill="#A6C1DC"/>
<path d="M61.811 219.258L239.601 219.258L239.601 219.937L61.811 219.937L61.811 219.258Z" fill="#DFDFE8"/>
<path d="M74.3343 213.515C73.7748 213.515 73.3212 213.063 73.3212 212.505C73.3212 211.947 73.7748 211.495 74.3343 211.495C74.8938 211.495 75.3474 211.947 75.3474 212.505C75.3474 213.063 74.8938 213.515 74.3343 213.515Z" fill="#A6C1DC"/>
<path d="M76.0919 211.309C76.2353 211.309 76.3788 211.256 76.4864 211.146C76.7038 210.929 76.7038 210.576 76.4864 210.357C75.9103 209.783 75.146 209.468 74.3324 209.468C73.5187 209.468 72.7544 209.783 72.1784 210.357C71.9609 210.574 71.9609 210.927 72.1784 211.146C72.3958 211.363 72.7499 211.363 72.9696 211.146C73.3327 210.784 73.8168 210.583 74.3324 210.583C74.8479 210.583 75.332 210.782 75.6951 211.146C75.805 211.256 75.9484 211.309 76.0919 211.309Z" fill="#A6C1DC"/>
<path d="M70.961 209.702C71.1044 209.702 71.2479 209.649 71.3555 209.539C72.1512 208.746 73.2069 208.31 74.3321 208.31C75.4572 208.31 76.513 208.746 77.3087 209.539C77.5261 209.756 77.8802 209.756 78.0999 209.539C78.3173 209.322 78.3173 208.969 78.0999 208.75C77.0935 207.747 75.7554 207.195 74.3321 207.195C72.9088 207.195 71.5706 207.747 70.5642 208.75C70.3468 208.967 70.3468 209.32 70.5642 209.539C70.6741 209.647 70.8175 209.702 70.961 209.702Z" fill="#D6E8F9"/>
<path d="M68.7938 207.928C68.9238 208.057 69.0964 208.124 69.269 208.124C69.4416 208.124 69.6119 208.06 69.7442 207.928C70.9702 206.705 72.5997 206.032 74.3346 206.032C76.0695 206.032 77.699 206.705 78.925 207.928C79.1873 208.189 79.6131 208.189 79.8731 207.928C80.1354 207.666 80.1354 207.242 79.8731 206.982C79.5078 206.618 79.1133 206.294 78.6942 206.015C77.4143 205.154 75.9103 204.694 74.3346 204.694C74.0208 204.694 73.707 204.712 73.3999 204.75C71.6606 204.955 70.0513 205.728 68.7961 206.982C68.5316 207.244 68.5316 207.666 68.7938 207.928Z" fill="#D6E8F9"/>
<path d="M95.7405 209.721C95.7405 208.596 96.6519 207.685 97.7762 207.685L128.313 207.685C129.437 207.685 130.348 208.596 130.348 209.721C130.348 210.845 129.437 211.756 128.313 211.756L97.7762 211.756C96.6519 211.756 95.7405 210.845 95.7405 209.721Z" fill="#A6C1DC"/>
<path d="M139.849 209.721C139.849 208.596 140.76 207.685 141.884 207.685L185.314 207.685C186.438 207.685 187.35 208.596 187.35 209.721C187.35 210.845 186.438 211.756 185.314 211.756L141.884 211.756C140.76 211.756 139.849 210.845 139.849 209.721Z" fill="#A6C1DC"/>
</g>
</svg>
