<svg width="544" height="329" fill="none" xmlns="http://www.w3.org/2000/svg"><path d="M544 304c0 13.806-119.536 25-267.007 25C129.536 329 10 317.812 10 304c0-13.806 119.536-25 267.007-25C424.464 279 544 290.194 544 304z" fill="#CBDDEE"/><path d="M502.626 176.479H484.3V310h18.326V176.479zm-29.645-34.719h-18.332v150.178h18.332V141.76zm-364.823 0h-18.33v150.178h18.33V141.76zm-29.04 34.719H60.78V310h18.337V176.479z" fill="#7EA0C3"/><path d="M523 166.973H38v9.506h485v-9.506z" fill="#65809D"/><path d="M38 166.973h485L499.254 139H59.938L38 166.973z" fill="#B6D1ED"/><path d="M38 166.973s233.532-7.616 485 0C512.056 152.957 499.254 139 499.254 139H59.938L38 166.973z" fill="#A6C1DC"/><path d="M446.918 97.415a4.671 4.671 0 01-4.669-4.669V58.67a4.671 4.671 0 014.669-4.67h37.412a4.671 4.671 0 014.669 4.669v34.047a4.671 4.671 0 01-4.669 4.67h-37.412v.03z" fill="#65809D"/><path d="M484.329 96.324h-37.413a3.596 3.596 0 01-3.607-3.608V58.669a3.596 3.596 0 013.607-3.608h37.413a3.616 3.616 0 013.608 3.608v34.047c-.031 2.001-1.637 3.608-3.608 3.608z" fill="#7E9EC1"/><path d="M446.917 95.627a2.899 2.899 0 01-2.88-2.88V58.668a2.899 2.899 0 012.88-2.88h37.413a2.899 2.899 0 012.88 2.88v34.047a2.88 2.88 0 01-2.88 2.88h-37.413v.03z" fill="#A6C1DC"/><path d="M481.815 92.261h-32.38c-1 0-1.789-.818-1.789-1.788V61.185c0-1 .789-1.788 1.789-1.788h32.38c1 0 1.789.818 1.789 1.788v29.257c0 1-.819 1.82-1.789 1.82z" fill="#65809D"/><path d="M449.434 91.534a1.087 1.087 0 01-1.091-1.092V61.185c0-.606.485-1.091 1.091-1.091h32.38c.606 0 1.091.485 1.091 1.091v29.257c0 .607-.485 1.092-1.091 1.092h-32.38z" fill="#7E9EC1"/><path d="M449.434 90.806a.35.35 0 01-.364-.364V61.185a.37.37 0 01.364-.364h32.38a.35.35 0 01.364.364v29.257a.35.35 0 01-.364.364h-32.38z" fill="#A6C1DC"/><path d="M479.54 63.247h-27.832v17.008h5.76v4.336h3.093v3.123h10.096V84.59h3.123v-4.336h5.76V63.247z" fill="#65809D"/><path d="M477.784 64.43h-1.668v5.517h1.668V64.43zm-3.244 0h-1.668v5.517h1.668V64.43zm-3.245 0h-1.667v5.517h1.667V64.43zm-3.246 0h-1.667v5.517h1.667V64.43zm-3.212 0h-1.667v5.517h1.667V64.43zm-3.246 0h-1.667v5.517h1.667V64.43zm-3.241 0h-1.667v5.517h1.667V64.43zm-3.245 0h-1.667v5.517h1.667V64.43z" fill="#FFE22B"/><path d="M459.829 114v-1.236h-3.528v-6.768h-1.404V114h4.932zm8.467 0l-3.144-8.004H463.4L460.256 114h1.596l.588-1.536h3.672L466.7 114h1.596zm-2.58-2.772h-2.88l1.44-3.816 1.44 3.816zm10.39 2.772v-8.004h-1.404v5.556l-4.092-5.556h-1.44V114h1.404v-5.712L474.75 114h1.356z" fill="#65809D"/><path d="M466.206 67.412c7.293 0 13.206-5.913 13.206-13.206 0-7.294-5.913-13.206-13.206-13.206C458.913 41 453 46.913 453 54.206c0 7.293 5.913 13.206 13.206 13.206z" fill="#E63032"/><path d="M466.206 41c-.514 0-1.021.03-1.519.088 6.577.754 11.686 6.339 11.686 13.118 0 6.78-5.109 12.364-11.686 13.118.498.058 1.005.088 1.519.088 7.294 0 13.206-5.913 13.206-13.206 0-7.293-5.912-13.206-13.206-13.206z" fill="#D12325"/><path d="M468.373 54.206l3.891-3.89a1.532 1.532 0 00-2.167-2.167l-3.891 3.89-3.891-3.89a1.531 1.531 0 10-2.166 2.166l3.891 3.891-3.891 3.89a1.532 1.532 0 002.167 2.167l3.89-3.89 3.891 3.89a1.527 1.527 0 002.167 0 1.532 1.532 0 000-2.166l-3.891-3.891z" fill="#F4FBFF"/><path d="M468.372 54.206l3.891-3.89a1.53 1.53 0 00-2.12-2.209l.046.042a1.532 1.532 0 010 2.166l-3.25 3.25a.908.908 0 000 1.282l3.25 3.25a1.532 1.532 0 010 2.166l-.046.042a1.525 1.525 0 002.12-.041 1.53 1.53 0 000-2.167l-3.891-3.891z" fill="#DAF1F4"/><path d="M387.669 97.415A4.671 4.671 0 01383 92.746V58.67a4.671 4.671 0 014.669-4.67h37.412a4.671 4.671 0 014.669 4.669v34.047a4.671 4.671 0 01-4.669 4.67h-37.412v.03z" fill="#65809D"/><path d="M425.08 96.324h-37.413a3.596 3.596 0 01-3.607-3.608V58.669a3.596 3.596 0 013.607-3.608h37.413a3.616 3.616 0 013.608 3.608v34.047c-.031 2.001-1.637 3.608-3.608 3.608z" fill="#7E9EC1"/><path d="M387.668 95.627a2.899 2.899 0 01-2.88-2.88V58.668a2.899 2.899 0 012.88-2.88h37.413a2.899 2.899 0 012.88 2.88v34.047a2.88 2.88 0 01-2.88 2.88h-37.413v.03z" fill="#A6C1DC"/><path d="M422.566 92.261h-32.38c-1 0-1.789-.818-1.789-1.788V61.185c0-1 .789-1.788 1.789-1.788h32.38c1 0 1.789.818 1.789 1.788v29.257c0 1-.819 1.82-1.789 1.82z" fill="#65809D"/><path d="M390.185 91.534a1.087 1.087 0 01-1.091-1.092V61.185c0-.606.485-1.091 1.091-1.091h32.38c.606 0 1.091.485 1.091 1.091v29.257c0 .607-.485 1.092-1.091 1.092h-32.38z" fill="#7E9EC1"/><path d="M390.185 90.806a.35.35 0 01-.364-.364V61.185a.37.37 0 01.364-.364h32.38a.35.35 0 01.364.364v29.257a.35.35 0 01-.364.364h-32.38z" fill="#A6C1DC"/><path d="M420.291 63.247h-27.832v17.008h5.76v4.336h3.093v3.123h10.096V84.59h3.123v-4.336h5.76V63.247z" fill="#65809D"/><path d="M418.535 64.43h-1.668v5.517h1.668V64.43zm-3.244 0h-1.668v5.517h1.668V64.43zm-3.245 0h-1.667v5.517h1.667V64.43zm-3.246 0h-1.667v5.517h1.667V64.43zm-3.212 0h-1.667v5.517h1.667V64.43zm-3.246 0h-1.667v5.517h1.667V64.43zm-3.241 0h-1.667v5.517h1.667V64.43zm-3.245 0h-1.668v5.517h1.668V64.43z" fill="#FFE22B"/><path d="M400.966 114l2.28-8.004h-1.572l-1.548 6.168-1.656-6.168h-1.116l-1.656 6.168-1.56-6.168h-1.572l2.292 8.004h1.5l1.548-5.904 1.56 5.904h1.5zm9.881 0l-3.144-8.004h-1.752L402.807 114h1.596l.588-1.536h3.672l.588 1.536h1.596zm-2.58-2.772h-2.88l1.44-3.816 1.44 3.816zm10.39 2.772v-8.004h-1.404v5.556l-4.092-5.556h-1.44V114h1.404v-5.712l4.176 5.712h1.356z" fill="#65809D"/><path d="M406.206 67.412c7.293 0 13.206-5.913 13.206-13.206 0-7.294-5.913-13.206-13.206-13.206C398.913 41 393 46.913 393 54.206c0 7.293 5.913 13.206 13.206 13.206z" fill="#40E78D"/><path d="M406.206 41c-.514 0-1.021.03-1.519.088 6.577.754 11.686 6.339 11.686 13.118 0 6.78-5.109 12.364-11.686 13.118.498.058 1.005.088 1.519.088 7.294 0 13.206-5.913 13.206-13.206 0-7.293-5.912-13.206-13.206-13.206z" fill="#35D67F"/><path fill-rule="evenodd" clip-rule="evenodd" d="M411.832 48.145l-8.118 8.523-3.546-3.723a1.404 1.404 0 00-2.05 0 1.542 1.542 0 000 2.11l4.571 4.8c.281.295.652.445 1.025.445.374 0 .745-.15 1.026-.445l9.143-9.6a1.544 1.544 0 000-2.11 1.405 1.405 0 00-2.051 0zm1.097-.143c.268.018.531.134.736.35a1.241 1.241 0 010 1.697l-9.143 9.6a1.11 1.11 0 01.001 0l9.142-9.6a1.241 1.241 0 000-1.697 1.112 1.112 0 00-.736-.35zm-13.714 4.8c.268.018.531.134.736.35l3.763 3.951-3.763-3.952a1.115 1.115 0 00-.736-.349z" fill="#F4FBFF"/><path fill-rule="evenodd" clip-rule="evenodd" d="M411.784 48.196h-.001c.065.044.126.096.182.156a1.241 1.241 0 010 1.697l-9.142 9.6 9.143-9.6a1.243 1.243 0 000-1.697 1.202 1.202 0 00-.182-.156zm.224-.208a1.542 1.542 0 01.175 2.268l-9.143 9.6c-.055.057-.114.11-.175.156a1.403 1.403 0 001.875-.157l9.143-9.6a1.542 1.542 0 000-2.11 1.402 1.402 0 00-1.875-.157zm1.658.364a1.243 1.243 0 010 1.697l-9.143 9.6 9.143-9.6a1.243 1.243 0 000-1.697z" fill="#DAF1F4"/><path d="M3.17 88.54l21.48-1.62v-28.3L3.17 57v31.54z" fill="#B6D1ED"/><path d="M3.17 88.54L0 87.66V57.61L3.17 57v31.54z" fill="#809DBB"/><path d="M3.17 88.54s-.29-12.14-.29-15.77c0-10.26.29-15.77.29-15.77s.15 12.24.15 16.08c0 4.05-.15 15.46-.15 15.46zm6.51-15.17c0 5.3 2.57 9.59 5.74 9.59 3.17 0 5.74-4.3 5.74-9.59 0-5.3-2.57-9.6-5.74-9.6-3.17.01-5.74 4.3-5.74 9.6z" fill="#B6D1ED"/><path d="M10.03 73.37c0 4.97 2.41 9 5.39 9 2.98 0 5.39-4.03 5.39-9s-2.41-9.01-5.39-9.01c-2.97.01-5.39 4.04-5.39 9.01z" fill="#A6C1DC"/><path d="M14.58 69.28c0 .78.38 1.41.84 1.41.47 0 .84-.63.84-1.41 0-.78-.38-1.41-.84-1.41-.46 0-.84.63-.84 1.41zm0 6.98c0 .78.38 1.41.84 1.41.47 0 .84-.63.84-1.41 0-.78-.38-1.41-.84-1.41-.46 0-.84.63-.84 1.41z" fill="#65809D"/><path d="M23.16 59.97c0 .38.19.7.42.7.23 0 .42-.32.42-.7 0-.39-.19-.7-.42-.7-.24 0-.42.31-.42.7zM4.1 58.68c0 .38.19.7.42.7.23 0 .42-.32.42-.7 0-.39-.19-.7-.42-.7-.23.01-.42.32-.42.7zm-.2 28.44c0 .38.19.7.42.7.23 0 .42-.32.42-.7 0-.38-.19-.7-.42-.7-.24 0-.42.31-.42.7zm19.26-1.55c0 .38.19.69.42.69.23 0 .42-.31.42-.69 0-.39-.19-.7-.42-.7-.24 0-.42.31-.42.7z" fill="#95AEC7"/><path d="M19.04 73.37c0-4.47-1.95-8.17-4.5-8.88.29-.08.58-.13.89-.13 2.98 0 5.39 4.03 5.39 9.01 0 4.97-2.41 9-5.39 9-.3 0-.6-.05-.89-.13 2.55-.7 4.5-4.4 4.5-8.87z" fill="#7EA0C3"/><path d="M16.76 65.078c-5.62.75-9.62 7.79-5.68 13.13 3.48 4.71 10.23 2.92 13.57-1.11 3.35-4.02-.33-13.03-7.89-12.02z" fill="#65809D"/><path d="M21.21 65.748c3.19.54 8.57 3.77 7.98 8.13-.72 5.36-5.2 7.42-10.96 6.62-5.4-1.46-6.26-6.48-5.41-9.03.93-2.73 4.68-6.35 8.39-5.72z" fill="#7EA0C3"/><path d="M18.12 79.568c-3.59-.98-5.16-3.52-5.57-5.86-.04-.83.07-1.6.27-2.23.02-.07.06-.14.08-.21.69 1.96 2.29 3.86 5.27 4.67 5.09.7 9.16-.84 10.54-4.91.18.38.31.76.4 1.17.01.24 0 .49-.04.74-.71 5.37-5.19 7.42-10.95 6.63z" fill="#90B3D8"/><path d="M26.67 72.018c1.02.17 2.73 1.2 2.55 2.59-.23 1.71-1.66 2.37-3.5 2.12-1.72-.47-2-2.07-1.72-2.88.29-.88 1.49-2.03 2.67-1.83z" fill="#65809D"/><path d="M27.5 75C45.167 77.667 77 84.8 71 108c-7.5 29 18.5 30 45 28.5" stroke="#65809D" stroke-width="2"/><path d="M81.998 154.679c0-2.389 30.311-4.322 67.702-4.322 37.388 0 67.703 1.937 67.703 4.322-.004 2.384-30.315 4.321-67.703 4.321-37.391 0-67.702-1.937-67.702-4.321z" fill="#91ABC6"/><path d="M100.738 127.351h98.598v-3.079c0-1.058-.86-1.915-1.921-1.915h-94.756a1.918 1.918 0 00-1.921 1.915v3.079zm0 21.696h98.598v3.079c0 1.058-.86 1.915-1.921 1.915h-94.756a1.918 1.918 0 01-1.921-1.915v-3.079z" fill="#1D67B3"/><path d="M182.929 155.159h11.938c.432 0 .782-.35.782-.781v-3.343h-13.498v3.343a.775.775 0 00.778.781zm-77.721 0h11.938c.432 0 .783-.35.783-.781v-3.344H104.43v3.344c0 .431.346.781.778.781z" fill="#2271C2"/><path d="M108.249 126.613h5.855l-1.372-67.928a1.554 1.554 0 00-1.557-1.518c-.847 0-1.54.674-1.557 1.518l-1.369 67.928z" fill="#3790EC"/><path d="M108.251 126.609h1.321l1.352-69.421a1.533 1.533 0 00-.83.422 1.53 1.53 0 00-.466 1.075l-1.377 67.924z" fill="#2271C2"/><path d="M97.364 126.302v24.976c0 .802.654 1.45 1.454 1.45h102.439c.8 0 1.454-.648 1.454-1.45v-24.976c0-.798-.654-1.45-1.454-1.45H98.818c-.8 0-1.454.652-1.454 1.45z" fill="#3790EC"/><path d="M97.364 126.302v24.976c0 .801.654 1.45 1.454 1.45h102.439c.8 0 1.454-.649 1.454-1.45-100.043 2.072-105.347-24.976-105.347-24.976z" fill="#5FAAF8"/><path d="M190.808 141.747a3.205 3.205 0 01-1.733-4.194 3.22 3.22 0 014.206-1.727 3.204 3.204 0 011.733 4.193 3.22 3.22 0 01-4.206 1.728z" fill="#58E8B2"/><path d="M172.129 138.79a1.55 1.55 0 001.553 1.548 1.55 1.55 0 001.552-1.548 1.553 1.553 0 00-3.105 0z" fill="#FFDF00"/><path d="M165.401 138.79a1.55 1.55 0 001.552 1.548 1.55 1.55 0 001.553-1.548 1.553 1.553 0 00-3.105 0zm-6.727 0a1.55 1.55 0 001.553 1.548 1.55 1.55 0 001.552-1.548 1.553 1.553 0 00-3.105 0zm-6.729 0a1.55 1.55 0 001.552 1.548 1.55 1.55 0 001.553-1.548 1.552 1.552 0 00-3.105 0z" fill="#FBF3BE"/><path d="M145.217 138.79a1.55 1.55 0 001.553 1.548 1.55 1.55 0 001.552-1.548 1.553 1.553 0 00-3.105 0zm-6.728 0a1.55 1.55 0 001.553 1.548 1.55 1.55 0 001.553-1.548 1.553 1.553 0 00-3.106 0z" fill="#DADADA"/><path d="M111.18 54.834a1.93 1.93 0 01-1.933-1.928 1.93 1.93 0 011.933-1.928 1.93 1.93 0 011.933 1.928 1.93 1.93 0 01-1.933 1.928zm3.354-4.21a1.066 1.066 0 00.752-1.817 5.778 5.778 0 00-4.11-1.697 5.78 5.78 0 00-4.11 1.697 1.066 1.066 0 000 1.506c.415.414 1.09.414 1.51 0a3.66 3.66 0 012.6-1.075c.984 0 1.908.38 2.601 1.075.209.209.483.311.757.311z" fill="#58E8B1"/><path d="M104.743 47.558c.274 0 .547-.102.753-.312a7.985 7.985 0 015.68-2.345c2.147 0 4.161.831 5.68 2.345.415.414 1.09.414 1.51 0a1.068 1.068 0 000-1.505 10.116 10.116 0 00-7.19-2.968c-2.716 0-5.27 1.053-7.19 2.968a1.066 1.066 0 00.757 1.817z" fill="#58E8B1"/><path d="M100.608 44.171a1.283 1.283 0 001.813 0 12.322 12.322 0 018.76-3.616c3.31 0 6.42 1.284 8.759 3.616a1.281 1.281 0 001.81 0c.5-.499.5-1.309 0-1.804a14.899 14.899 0 00-2.25-1.846A14.84 14.84 0 00111.181 38c-.599 0-1.198.034-1.784.107a14.838 14.838 0 00-8.785 4.26 1.267 1.267 0 00-.004 1.804z" fill="#58E8B1"/><rect x="104" y="138" width="26" height="2" rx="1" fill="#DADADA"/><path d="M388 153.5c0-1.934 18.58-3.5 41.5-3.5 22.918 0 41.5 1.569 41.5 3.5-.002 1.931-18.582 3.5-41.5 3.5-22.92 0-41.5-1.569-41.5-3.5z" fill="#91ABC6"/><rect x="397" y="129" width="65" height="25" rx="2" fill="#444"/><mask id="a" maskUnits="userSpaceOnUse" x="397" y="129" width="65" height="25"><rect x="397" y="129" width="65" height="25" rx="2" fill="#181818"/></mask><g mask="url(#a)" fill="#6B6B6B"><path d="M397 131a2 2 0 012-2v25a2 2 0 01-2-2v-21zm65 0a2 2 0 00-2-2v25a2 2 0 002-2v-21z"/></g><path d="M435.984 141.023a.377.377 0 01-.374-.33c-.535-4.144-1.457-4.847-1.467-4.853-.48-.318-1.464.415-1.865.816l-.171.168-.222-.075c-2.034-.699-4.479-.004-4.503.004l-.215.063-.158-.158c-.403-.403-1.387-1.132-1.865-.822l-.025.016c.005 0-.911.711-1.442 4.843a.378.378 0 01-.749-.097c.565-4.396 1.572-5.255 1.811-5.398.948-.614 2.191.36 2.645.771.652-.16 2.67-.563 4.527-.01.462-.415 1.693-1.373 2.633-.763.239.145 1.25 1.004 1.815 5.398a.376.376 0 01-.326.423c-.016.004-.032.004-.049.004z" fill="#fff"/><path d="M425.228 136.792s-.709 1.033-.377 2.165c0 0 .9-1.045 2.095-.871 0 0-.266-.871-1.718-1.294zm8.69 0s.707 1.033.375 2.165c0 0-.9-1.045-2.097-.871 0 0 .266-.871 1.722-1.294zm-.467 5.033c-.033 0-2.889.03-3.798 2.325-.912-2.293-3.766-2.325-3.798-2.325h-4.14v.504h4.14c.13 0 3.19.033 3.539 2.836h.518c.346-2.795 3.409-2.836 3.537-2.836h4.122v-.504h-4.12z" fill="#fff"/><path d="M433.546 144.525a2.587 2.587 0 00-2.576 2.414h-2.652a2.588 2.588 0 00-2.578-2.414H421v1.26h4.74c.731 0 1.324.595 1.324 1.325v.869h5.155v-.869c0-.732.596-1.325 1.325-1.325h4.742v-1.26h-4.74z" fill="#fff"/><path d="M205.918 56.415a4.671 4.671 0 01-4.669-4.669V17.67a4.671 4.671 0 014.669-4.67h37.412a4.671 4.671 0 014.669 4.669v34.047a4.671 4.671 0 01-4.669 4.67h-37.412v.03z" fill="#65809D"/><path d="M243.329 55.324h-37.413a3.596 3.596 0 01-3.607-3.608V17.669a3.596 3.596 0 013.607-3.608h37.413a3.616 3.616 0 013.608 3.608v34.047c-.031 2.001-1.637 3.608-3.608 3.608z" fill="#7E9EC1"/><path d="M205.917 54.627a2.899 2.899 0 01-2.88-2.88V17.668a2.899 2.899 0 012.88-2.88h37.413a2.899 2.899 0 012.88 2.88v34.047a2.88 2.88 0 01-2.88 2.88h-37.413v.03z" fill="#A6C1DC"/><path d="M240.815 51.261h-32.38c-1 0-1.789-.818-1.789-1.788V20.185c0-1 .789-1.788 1.789-1.788h32.38c1 0 1.789.818 1.789 1.788v29.257c0 1-.819 1.82-1.789 1.82z" fill="#65809D"/><path d="M208.434 50.534a1.087 1.087 0 01-1.091-1.092V20.185c0-.606.485-1.091 1.091-1.091h32.38c.606 0 1.091.485 1.091 1.091v29.257c0 .607-.485 1.092-1.091 1.092h-32.38z" fill="#7E9EC1"/><path d="M208.434 49.806a.35.35 0 01-.364-.364V20.185c0-.182.152-.363.364-.363h32.38a.35.35 0 01.364.363v29.257a.35.35 0 01-.364.364h-32.38z" fill="#A6C1DC"/><path d="M238.54 22.247h-27.832v17.008h5.76v4.336h3.093v3.123h10.096V43.59h3.123v-4.336h5.76V22.247z" fill="#65809D"/><path d="M236.784 23.43h-1.668v5.517h1.668V23.43zm-3.244 0h-1.668v5.517h1.668V23.43zm-3.245 0h-1.667v5.517h1.667V23.43zm-3.246 0h-1.667v5.517h1.667V23.43zm-3.212 0h-1.667v5.517h1.667V23.43zm-3.246 0h-1.667v5.517h1.667V23.43zm-3.241 0h-1.667v5.517h1.667V23.43zm-3.245 0h-1.667v5.517h1.667V23.43z" fill="#FFE22B"/><path d="M218.829 73v-1.236h-3.528v-6.768h-1.404V73h4.932zm8.467 0l-3.144-8.004H222.4L219.256 73h1.596l.588-1.536h3.672L225.7 73h1.596zm-2.58-2.772h-2.88l1.44-3.816 1.44 3.816zM235.106 73v-8.004h-1.404v5.556l-4.092-5.556h-1.44V73h1.404v-5.712L233.75 73h1.356zm-88.437-16.585A4.671 4.671 0 01142 51.746V17.67a4.671 4.671 0 014.669-4.67h37.412a4.671 4.671 0 014.669 4.669v34.047a4.671 4.671 0 01-4.669 4.67h-37.412v.03z" fill="#65809D"/><path d="M184.08 55.324h-37.413a3.596 3.596 0 01-3.607-3.608V17.669a3.596 3.596 0 013.607-3.608h37.413a3.616 3.616 0 013.608 3.608v34.047c-.031 2.001-1.637 3.608-3.608 3.608z" fill="#7E9EC1"/><path d="M146.668 54.627a2.899 2.899 0 01-2.88-2.88V17.668a2.899 2.899 0 012.88-2.88h37.413a2.899 2.899 0 012.88 2.88v34.047a2.88 2.88 0 01-2.88 2.88h-37.413v.03z" fill="#A6C1DC"/><path d="M181.566 51.261h-32.38c-1 0-1.789-.818-1.789-1.788V20.185c0-1 .789-1.788 1.789-1.788h32.38c1 0 1.789.818 1.789 1.788v29.257c0 1-.819 1.82-1.789 1.82z" fill="#65809D"/><path d="M149.185 50.534a1.087 1.087 0 01-1.091-1.092V20.185c0-.606.485-1.091 1.091-1.091h32.38c.606 0 1.091.485 1.091 1.091v29.257c0 .607-.485 1.092-1.091 1.092h-32.38z" fill="#7E9EC1"/><path d="M149.185 49.806a.35.35 0 01-.364-.364V20.185c0-.182.152-.363.364-.363h32.38a.35.35 0 01.364.363v29.257a.35.35 0 01-.364.364h-32.38z" fill="#A6C1DC"/><path d="M179.291 22.247h-27.832v17.008h5.76v4.336h3.093v3.123h10.096V43.59h3.123v-4.336h5.76V22.247z" fill="#65809D"/><path d="M177.535 23.43h-1.668v5.517h1.668V23.43zm-3.244 0h-1.668v5.517h1.668V23.43zm-3.245 0h-1.667v5.517h1.667V23.43zm-3.246 0h-1.667v5.517h1.667V23.43zm-3.212 0h-1.667v5.517h1.667V23.43zm-3.246 0h-1.667v5.517h1.667V23.43zm-3.241 0h-1.667v5.517h1.667V23.43zm-3.245 0h-1.668v5.517h1.668V23.43z" fill="#FFE22B"/><path d="M159.966 73l2.28-8.004h-1.572l-1.548 6.168-1.656-6.168h-1.116l-1.656 6.168-1.56-6.168h-1.572L153.858 73h1.5l1.548-5.904 1.56 5.904h1.5zm9.881 0l-3.144-8.004h-1.752L161.807 73h1.596l.588-1.536h3.672l.588 1.536h1.596zm-2.58-2.772h-2.88l1.44-3.816 1.44 3.816zM177.657 73v-8.004h-1.404v5.556l-4.092-5.556h-1.44V73h1.404v-5.712L176.301 73h1.356z" fill="#65809D"/><path d="M165.206 26.412c7.293 0 13.206-5.912 13.206-13.206C178.412 5.913 172.499 0 165.206 0 157.913 0 152 5.913 152 13.206c0 7.294 5.913 13.206 13.206 13.206z" fill="#E63032"/><path d="M165.206 0c-.514 0-1.021.03-1.519.088 6.577.753 11.686 6.339 11.686 13.118 0 6.78-5.109 12.364-11.686 13.118.498.058 1.005.088 1.519.088 7.294 0 13.206-5.912 13.206-13.206C178.412 5.913 172.5 0 165.206 0z" fill="#D12325"/><path d="M167.373 13.206l3.891-3.89a1.532 1.532 0 00-2.167-2.167l-3.891 3.89-3.891-3.89a1.531 1.531 0 10-2.166 2.166l3.891 3.891-3.891 3.89a1.532 1.532 0 002.167 2.167l3.89-3.89 3.891 3.89a1.527 1.527 0 002.167 0 1.532 1.532 0 000-2.166l-3.891-3.891z" fill="#F4FBFF"/><path d="M167.372 13.206l3.891-3.89a1.53 1.53 0 00-2.12-2.209l.046.042a1.532 1.532 0 010 2.166l-3.25 3.25a.908.908 0 000 1.282l3.25 3.25a1.532 1.532 0 010 2.166l-.046.042a1.525 1.525 0 002.12-.041 1.53 1.53 0 000-2.167l-3.891-3.891z" fill="#DAF1F4"/><path d="M225.206 26.412c7.293 0 13.206-5.912 13.206-13.206C238.412 5.913 232.499 0 225.206 0 217.913 0 212 5.913 212 13.206c0 7.294 5.913 13.206 13.206 13.206z" fill="#40E78D"/><path d="M225.206 0c-.514 0-1.021.03-1.519.088 6.577.753 11.686 6.339 11.686 13.118 0 6.78-5.109 12.364-11.686 13.118.498.058 1.005.088 1.519.088 7.294 0 13.206-5.912 13.206-13.206C238.412 5.913 232.5 0 225.206 0z" fill="#35D67F"/><path fill-rule="evenodd" clip-rule="evenodd" d="M230.832 7.145l-8.118 8.523-3.546-3.723a1.404 1.404 0 00-2.05 0 1.542 1.542 0 000 2.11l4.571 4.8c.281.295.652.445 1.025.445.374 0 .745-.15 1.026-.445l9.143-9.6a1.544 1.544 0 000-2.11 1.405 1.405 0 00-2.051 0zm1.097-.143c.268.018.531.134.736.35a1.241 1.241 0 010 1.697l-9.143 9.6a1.11 1.11 0 01.001 0l9.142-9.6a1.241 1.241 0 000-1.697 1.112 1.112 0 00-.736-.35zm-13.714 4.8c.268.018.531.134.736.35l3.763 3.951-3.763-3.952a1.115 1.115 0 00-.736-.349z" fill="#F4FBFF"/><path fill-rule="evenodd" clip-rule="evenodd" d="M230.784 7.196h-.001c.065.044.126.096.182.155a1.241 1.241 0 010 1.698l-9.142 9.6 9.143-9.6a1.243 1.243 0 000-1.697 1.197 1.197 0 00-.182-.156zm.224-.208a1.542 1.542 0 01.175 2.268l-9.143 9.6c-.055.057-.114.11-.175.156a1.403 1.403 0 001.875-.157l9.143-9.6a1.542 1.542 0 000-2.11 1.402 1.402 0 00-1.875-.157zm1.658.363a1.243 1.243 0 010 1.698l-9.143 9.6 9.143-9.6a1.243 1.243 0 000-1.698z" fill="#DAF1F4"/><path d="M295 34.5c8 2 17.6-5 26 7 8.4 12-6.5 31.5 8.5 32.5" stroke="#607C9A" stroke-width="6"/><path opacity=".23" d="M257 44.912V24.16h18.432v20.752H257z" fill="#E5E5E5"/><path d="M257.023 44V25h2v19h-2z" fill="#7E9EC1"/><path fill-rule="evenodd" clip-rule="evenodd" d="M300.31 27.816v13.177l-12.813 3.194v-19.56l12.813 3.189zM258.993 25.7l.854 1.203h-.983v1.544h.983v1.203h-.983v1.54h.983v1.202h-.983v1.544h.983v1.203h-.983v1.54h.983v1.203h-.983v1.54h.983v1.203h-.983v1.544h.983l-.854 1.203h-.979v1.54h17.417V24.16h-17.417v1.54h.979z" fill="#A6C1DC"/><path fill-rule="evenodd" clip-rule="evenodd" d="M258.014 25.7v1.203h2.057v1.544h-2.057v1.203h2.057v1.54h-2.057v1.202h2.057v1.544h-2.057v1.203h2.057v1.54h-2.057v1.203h2.057v1.54h-2.057v1.203h2.057v1.544h-2.057v1.203h9.153V25.7h-9.153z" fill="#FFE22B"/><path d="M258.995 28.443v-1.54h9.149v1.54h-9.149zm0 2.747v-1.54h9.149v1.54h-9.149zm0 2.742v-1.54h9.149v1.54h-9.149zm0 2.748v-1.54h9.149v1.54h-9.149zm0 2.742v-1.54h9.149v1.54h-9.149zm0 2.743v-1.54h9.149v1.54h-9.149z" fill="#7E9EC1"/><path fill-rule="evenodd" clip-rule="evenodd" d="M288.758 25.151v18.561c0 .706.576 1.282 1.281 1.282s1.281-.576 1.281-1.282v-18.56c0-.706-.576-1.282-1.281-1.282s-1.281.576-1.281 1.281zm3.257.663v17.24c0 .706.576 1.282 1.281 1.282s1.281-.576 1.281-1.282v-17.24c0-.706-.576-1.282-1.281-1.282s-1.281.576-1.281 1.282zm3.256 1.018v15.203c0 .706.576 1.282 1.281 1.282s1.281-.576 1.281-1.282V26.832c0-.705-.576-1.281-1.281-1.281-.702 0-1.281.576-1.281 1.281zm3.26 1.09v13.09c0 .706.576 1.282 1.282 1.282.705 0 1.281-.576 1.281-1.281V27.922c0-.706-.576-1.282-1.281-1.282-.706 0-1.282.576-1.282 1.282z" fill="#7E9EC1"/><path opacity=".62" fill-rule="evenodd" clip-rule="evenodd" d="M267.876 43.822V25.034a4156.37 4156.37 0 00-9.862 0v.356h9.549v18.256h-9.549v.356h9.862v-.18z" fill="#fff"/><path opacity=".6" d="M267.564 43.999V25.034h.314v18.965h-.314z" fill="#C7E0FA"/><path d="M301.089 39.057v-9.04h1.7v9.04h-1.7z" fill="#4B637D"/><path d="M267.169 35.143v-1.21h8.268v1.21h-8.268z" fill="#C983B6"/><path fill-rule="evenodd" clip-rule="evenodd" d="M267.156 29.65c1.43.03 2.97.102 4.495.27a40.8 40.8 0 014.102.65l.255-1.179a41.554 41.554 0 00-4.228-.67c-1.544-.169-3.147-.243-4.632-.274l.008 1.203z" fill="#2EAA5D"/><path fill-rule="evenodd" clip-rule="evenodd" d="M267.156 39.422c1.43-.031 2.97-.102 4.495-.27a40.656 40.656 0 004.102-.65l.255 1.178c-1.317.287-2.763.51-4.228.67-1.544.169-3.147.243-4.632.275l.008-1.203z" fill="#83B9E5"/><path fill-rule="evenodd" clip-rule="evenodd" d="M267.169 32.095c1.367.059 2.735.133 4.118.203 1.368.071 2.81.165 4.201.243l-.036-.623a640.366 640.366 0 00-4.134-.223c-1.367-.07-2.758-.145-4.149-.204v.604zm0 4.901c1.367-.058 2.735-.133 4.118-.203 1.368-.07 2.81-.165 4.201-.243l-.036.623c-1.367.078-2.746.153-4.134.223-1.367.07-2.758.145-4.149.204v-.604zm0-10.387c1.567.031 3.084.133 4.553.302a39.47 39.47 0 014.224.713l.133-.588a40.19 40.19 0 00-4.286-.725 48.043 48.043 0 00-4.62-.305v.603h-.004zm0 15.857a48.422 48.422 0 004.553-.301 39.697 39.697 0 004.224-.713l.133.587a40.19 40.19 0 01-4.286.725 48.042 48.042 0 01-4.62.306v-.604h-.004z" fill="#65809D"/><path fill-rule="evenodd" clip-rule="evenodd" d="M287.495 23.82v21.233c0 .603-.395 1.05-.873 1.093l-10.317.92a.662.662 0 01-.279-.039c-.027.004-.051.004-.078.004h-1.861c-.506 0-.921-.486-.921-1.081 0-.596.415-1.082.921-1.082h1.344V24.16h-1.344c-.506 0-.921-.486-.921-1.082.004-.591.415-1.077.921-1.077h1.861c.055 0 .114.008.165.02a.637.637 0 01.192-.02l10.317.725c.478.031.873.49.873 1.093z" fill="#7E9EC1"/><path opacity=".23" d="M373.789 84.912V64.16h-18.432v20.752h18.432z" fill="#E5E5E5"/><path d="M373.766 84V65h-2v19h2z" fill="#7E9EC1"/><path fill-rule="evenodd" clip-rule="evenodd" d="M330.479 67.816v13.177l12.813 3.194v-19.56l-12.813 3.189zm41.317-2.116l-.854 1.203h.983v1.544h-.983v1.203h.983v1.54h-.983v1.203h.983v1.543h-.983v1.203h.983v1.54h-.983v1.203h.983v1.54h-.983v1.203h.983v1.544h-.983l.854 1.203h.979v1.54h-17.417V64.16h17.417v1.54h-.979z" fill="#A6C1DC"/><path fill-rule="evenodd" clip-rule="evenodd" d="M372.775 65.7v1.203h-2.057v1.544h2.057v1.203h-2.057v1.54h2.057v1.202h-2.057v1.544h2.057v1.203h-2.057v1.54h2.057v1.203h-2.057v1.54h2.057v1.203h-2.057v1.544h2.057v1.203h-9.153V65.7h9.153z" fill="#FFE22B"/><path d="M371.794 68.443v-1.54h-9.149v1.54h9.149zm0 2.747v-1.54h-9.149v1.54h9.149zm0 2.742v-1.54h-9.149v1.54h9.149zm0 2.748v-1.54h-9.149v1.54h9.149zm0 2.742v-1.54h-9.149v1.54h9.149zm0 2.743v-1.54h-9.149v1.54h9.149z" fill="#7E9EC1"/><path fill-rule="evenodd" clip-rule="evenodd" d="M342.031 65.151v18.562c0 .705-.576 1.28-1.281 1.28a1.284 1.284 0 01-1.281-1.28V65.15c0-.705.576-1.28 1.281-1.28s1.281.575 1.281 1.28zm-3.257.663v17.24c0 .706-.576 1.281-1.281 1.281a1.284 1.284 0 01-1.281-1.28V65.812c0-.705.576-1.28 1.281-1.28s1.281.575 1.281 1.28zm-3.255 1.018v15.204c0 .705-.576 1.28-1.282 1.28a1.284 1.284 0 01-1.281-1.28V66.832c0-.705.576-1.281 1.281-1.281.702 0 1.282.576 1.282 1.281zm-3.261 1.09v13.09c0 .706-.576 1.282-1.281 1.282a1.284 1.284 0 01-1.282-1.281V67.922c0-.706.576-1.282 1.282-1.282.705 0 1.281.576 1.281 1.282z" fill="#7E9EC1"/><path opacity=".62" fill-rule="evenodd" clip-rule="evenodd" d="M362.913 83.822V65.034c3.287-.004 6.575-.004 9.862 0v.356h-9.549v18.256h9.549v.356h-9.862v-.18z" fill="#fff"/><path opacity=".6" d="M363.225 83.999V65.034h-.314v18.965h.314z" fill="#C7E0FA"/><path d="M329.7 79.058v-9.04H328v9.04h1.7z" fill="#4B637D"/><path d="M363.62 75.143v-1.21h-8.268v1.21h8.268z" fill="#C983B6"/><path fill-rule="evenodd" clip-rule="evenodd" d="M363.633 69.65c-1.43.03-2.97.101-4.495.27a40.656 40.656 0 00-4.102.65l-.255-1.179a41.554 41.554 0 014.228-.67c1.544-.169 3.147-.243 4.632-.274l-.008 1.203z" fill="#2EAA5D"/><path fill-rule="evenodd" clip-rule="evenodd" d="M363.633 79.422a51.585 51.585 0 01-4.495-.27 40.656 40.656 0 01-4.102-.65l-.255 1.178c1.317.287 2.763.51 4.228.67 1.544.169 3.147.244 4.632.275l-.008-1.203z" fill="#83B9E5"/><path fill-rule="evenodd" clip-rule="evenodd" d="M363.62 72.095c-1.367.058-2.735.133-4.118.204-1.368.07-2.81.164-4.201.242l.036-.623c1.367-.078 2.747-.152 4.134-.223 1.367-.07 2.758-.145 4.149-.204v.604zm0 4.901c-1.367-.058-2.735-.133-4.118-.203-1.368-.07-2.81-.165-4.201-.243l.036.623c1.367.078 2.747.153 4.134.223 1.367.07 2.758.145 4.149.204v-.603zm0-10.387a48.422 48.422 0 00-4.553.302 39.74 39.74 0 00-4.224.713l-.133-.588a40.19 40.19 0 014.286-.725 48.064 48.064 0 014.62-.305v.603h.004zm0 15.857a48.422 48.422 0 01-4.553-.301 39.74 39.74 0 01-4.224-.713l-.133.587a40.19 40.19 0 004.286.725c1.478.173 3.022.275 4.62.306v-.604h.004z" fill="#65809D"/><path fill-rule="evenodd" clip-rule="evenodd" d="M343.294 63.82v21.233c0 .603.395 1.05.873 1.093l10.317.92a.662.662 0 00.279-.039.51.51 0 00.078.004h1.861c.506 0 .921-.486.921-1.081 0-.596-.415-1.082-.921-1.082h-1.344V64.16h1.344c.506 0 .921-.486.921-1.081-.004-.592-.415-1.078-.921-1.078h-1.861a.757.757 0 00-.165.02.637.637 0 00-.192-.02l-10.317.725c-.478.031-.873.49-.873 1.093z" fill="#7E9EC1"/></svg>