<svg width="31" height="25" fill="none" xmlns="http://www.w3.org/2000/svg"><path d="M28.921 0H2.08A1.6 1.6 0 00.962.45C.666.74.5 1.13.5 1.539v17.693c0 .408.166.8.462 1.088a1.6 1.6 0 001.117.45H28.92a1.6 1.6 0 001.117-.45 1.52 1.52 0 00.462-1.088V1.538c0-.408-.166-.799-.462-1.087A1.6 1.6 0 0028.92 0zM15.5 19.808a.603.603 0 01-.329-.098.58.58 0 01-.218-.259.563.563 0 01.128-.628.597.597 0 01.646-.125c.108.043.2.117.265.212a.566.566 0 01-.073.729.6.6 0 01-.419.169zm13.421-2.116H2.08V1.538h26.84v16.154zm-9.995 5.27l-.268-1.424h-6.316l-.268 1.424a1.15 1.15 0 01-.272.545c-.139.154-.318.27-.518.335l-1.705.581V25H21.42v-.577l-1.717-.577a1.186 1.186 0 01-.512-.34 1.142 1.142 0 01-.266-.544z" fill="#3790EC"/></svg>