<svg width="38" height="24" fill="none" xmlns="http://www.w3.org/2000/svg"><path d="M37.497 21.549v-1.244H35.44V1.386S35.44 0 33.85 0H4.149c-1.59 0-1.59 1.386-1.59 1.386v18.92H.504v1.243s-.173 1.53 1.852 1.53H35.64c2.024 0 1.856-1.53 1.856-1.53zM19 .93c.17 0 .307.14.307.31a.309.309 0 01-.307.312.31.31 0 01-.307-.311c0-.172.137-.31.307-.31zM4.278 2.267h29.444v17.978H4.277V2.267zm17.666 19.799h-5.888c-1.012 0-1.199-.69-1.22-1.097h8.328c-.022.406-.208 1.097-1.22 1.097zm13.442-.173h-2.264a.23.23 0 01-.228-.23.23.23 0 01.228-.232h2.264a.23.23 0 01.228.231.23.23 0 01-.228.231z" fill="#3790EC"/></svg>