<svg width="249" height="33" fill="none" xmlns="http://www.w3.org/2000/svg"><path d="M37.988 15.269a.958.958 0 01-.95-.837C35.682 3.926 33.346 2.144 33.32 2.129c-1.217-.807-3.712 1.052-4.729 2.069l-.431.426-.565-.19c-5.156-1.771-11.353-.01-11.415.01l-.544.16-.4-.4c-1.023-1.023-3.518-2.871-4.73-2.086l-.062.041c.01 0-2.31 1.803-3.656 12.278a.953.953 0 01-1.073.827.96.96 0 01-.827-1.074C6.321 3.048 8.873.87 9.48.506c2.403-1.556 5.556.914 6.706 1.956 1.654-.405 6.768-1.427 11.477-.025 1.17-1.053 4.292-3.482 6.675-1.936.606.37 3.168 2.547 4.6 13.684a.953.953 0 01-.826 1.073c-.041.01-.082.01-.123.01z" fill="#2B3C67"/><path d="M10.716 4.542S8.92 7.16 9.761 10.03c0 0 2.28-2.65 5.31-2.208 0 0-.673-2.208-4.354-3.281zm22.034 0s1.792 2.619.95 5.489c0 0-2.28-2.65-5.315-2.208 0 0 .673-2.208 4.365-3.281zm-1.186 12.76c-.082 0-7.322.077-9.628 5.895-2.31-5.813-9.546-5.895-9.628-5.895H1.813v1.279h10.495c.329 0 8.088.082 8.97 7.189h1.315c.878-7.087 8.642-7.19 8.966-7.19h10.45v-1.278H31.563z" fill="#2B3C67"/><path d="M31.805 24.147c-3.466 0-6.305 2.711-6.531 6.12h-6.722c-.226-3.409-3.065-6.12-6.536-6.12H0v3.194h12.016a3.363 3.363 0 013.358 3.358v2.203h13.068v-2.203A3.363 3.363 0 0131.8 27.34h12.021v-3.194H31.805zm24.786.421l1.972-2.768a7.493 7.493 0 005.433 2.311c1.997 0 2.973-.924 2.973-1.9 0-3.024-9.844-.95-9.844-7.384 0-2.845 2.465-5.202 6.486-5.202 2.721 0 4.975.822 6.665 2.383l-2.023 2.665c-1.382-1.278-3.23-1.869-4.97-1.869-1.567 0-2.435.693-2.435 1.715 0 2.716 9.818.899 9.818 7.281 0 3.127-2.228 5.484-6.845 5.484-3.28 0-5.643-1.099-7.23-2.716zm31.806 2.408v-7.815c0-1.155-.514-1.977-1.844-1.977-1.155 0-2.1.77-2.562 1.438v8.354H80.71v-7.815c0-1.155-.514-1.977-1.844-1.977-1.13 0-2.074.77-2.562 1.463v8.33H73.05V14.595h3.255v1.617c.508-.744 2.152-1.92 4.052-1.92 1.817 0 2.973.847 3.435 2.254.719-1.13 2.357-2.254 4.257-2.254 2.28 0 3.64 1.202 3.64 3.743v8.945h-3.291v-.005zm13.915 0v-1.284c-.847 1.002-2.305 1.587-3.923 1.587-1.977 0-4.308-1.33-4.308-4.103 0-2.896 2.331-3.994 4.308-3.994 1.638 0 3.102.539 3.923 1.51v-1.665c0-1.258-1.078-2.074-2.716-2.074-1.335 0-2.568.488-3.615 1.458l-1.232-2.177c1.514-1.335 3.46-1.951 5.407-1.951 2.819 0 5.407 1.13 5.407 4.688v8h-3.251v.005zm0-2.973v-1.54c-.539-.72-1.566-1.079-2.613-1.079-1.284 0-2.332.668-2.332 1.875 0 1.155 1.048 1.817 2.332 1.817 1.047.005 2.074-.354 2.613-1.073zm6.48 2.973v-12.38h3.256v1.695c.873-1.104 2.408-2.003 3.949-2.003v3.178a4.334 4.334 0 00-.899-.077c-1.078 0-2.511.617-3.05 1.407v8.18h-3.256zm9.864-3.076v-6.46h-2.048v-2.844h2.048v-3.384h3.282v3.384h2.511v2.845h-2.511v5.587c0 .77.41 1.36 1.124 1.36.488 0 .95-.18 1.13-.36l.688 2.46c-.488.437-1.356.796-2.716.796-2.275 0-3.508-1.176-3.508-3.384zm7.277-5.458c0-5.258 3.974-8.842 9.099-8.842 3.769 0 5.946 2.049 7.152 4.18l-3.127 1.535c-.719-1.381-2.254-2.485-4.025-2.485-3.102 0-5.356 2.382-5.356 5.612s2.254 5.612 5.356 5.612c1.766 0 3.306-1.078 4.025-2.485l3.127 1.515c-1.232 2.126-3.383 4.205-7.152 4.205-5.125-.005-9.099-3.594-9.099-8.847zm17.556 2.331c0-3.512 2.459-6.485 6.536-6.485 4.098 0 6.563 2.973 6.563 6.485 0 3.538-2.465 6.511-6.563 6.511-4.077 0-6.536-2.973-6.536-6.51zm9.715 0c0-1.925-1.156-3.589-3.179-3.589-2.028 0-3.152 1.669-3.152 3.59 0 1.945 1.129 3.614 3.152 3.614 2.029 0 3.179-1.663 3.179-3.615zm4.996 0c0-3.512 2.46-6.485 6.537-6.485 4.103 0 6.562 2.973 6.562 6.485 0 3.538-2.459 6.511-6.562 6.511-4.077 0-6.537-2.973-6.537-6.51zm9.715 0c0-1.925-1.155-3.589-3.178-3.589-2.023 0-3.153 1.669-3.153 3.59 0 1.945 1.13 3.614 3.153 3.614s3.178-1.663 3.178-3.615zm13.808 6.203l-3.281-4.77-1.489 1.587v3.178h-3.256v-17.1h3.256v10.23l4.693-5.51h4l-4.893 5.612 5.047 6.768h-4.077v.005zm5.356-15.661c0-1.079.898-1.92 1.951-1.92 1.078 0 1.946.847 1.946 1.92a1.945 1.945 0 01-1.946 1.946 1.959 1.959 0 01-1.951-1.946zm.333 15.661v-12.38h3.256v12.38h-3.256zm5.69-6.203c0-3.589 2.639-6.485 6.408-6.485 3.692 0 6.203 2.768 6.203 6.82v.718h-9.201c.205 1.561 1.463 2.87 3.563 2.87 1.053 0 2.511-.462 3.307-1.232l1.433 2.1c-1.228 1.13-3.179 1.715-5.099 1.715-3.769.005-6.614-2.531-6.614-6.506zm6.408-3.892c-2.023 0-2.896 1.515-3.05 2.742h6.1c-.077-1.18-.898-2.742-3.05-2.742zm20.683 10.095l-2.998-11.738-2.974 11.738h-3.871l-4.894-17.099h4.077l2.999 12.354 3.256-12.354h2.844l3.23 12.354 2.973-12.354h4.103l-4.873 17.1h-3.872zm10.044-15.661c0-1.079.899-1.92 1.952-1.92 1.073 0 1.946.847 1.946 1.92a1.945 1.945 0 01-1.946 1.946 1.956 1.956 0 01-1.952-1.946zm.334 15.661v-12.38h3.256v12.38h-3.256zm7.199 0v-9.535h-2.054v-2.845h2.054v-.668c0-2.69 1.741-4.308 4.18-4.308.924 0 1.766.206 2.357.514l-.668 2.357a1.828 1.828 0 00-1.052-.308c-.925 0-1.541.616-1.541 1.745v.668h2.511v2.845h-2.511v9.535h-3.276zm7.333-15.661c0-1.079.898-1.92 1.951-1.92 1.073 0 1.946.847 1.946 1.92a1.945 1.945 0 01-1.946 1.946 1.956 1.956 0 01-1.951-1.946zm.328 15.661v-12.38h3.256v12.38h-3.256z" fill="#2B3C67"/></svg>