<svg width="44" height="33" fill="none" xmlns="http://www.w3.org/2000/svg"><path d="M37.988 15.269a.958.958 0 01-.95-.837C35.682 3.926 33.346 2.144 33.32 2.129c-1.217-.807-3.712 1.052-4.73 2.069l-.43.426-.565-.19c-5.156-1.771-11.353-.01-11.415.01l-.544.16-.4-.4c-1.023-1.023-3.518-2.871-4.73-2.086l-.062.041c.01 0-2.31 1.803-3.656 12.278a.953.953 0 01-1.073.827.96.96 0 01-.827-1.074C6.321 3.048 8.873.87 9.478.506c2.404-1.556 5.557.914 6.707 1.956 1.654-.405 6.768-1.427 11.477-.025 1.17-1.053 4.292-3.482 6.675-1.936.606.37 3.168 2.547 4.6 13.684a.953.953 0 01-.826 1.073c-.041.01-.082.01-.123.01z" fill="#fff"/><path d="M10.716 4.542s-1.797 2.619-.955 5.49c0 0 2.28-2.65 5.31-2.209 0 0-.673-2.208-4.354-3.281zm22.034 0s1.792 2.619.95 5.49c0 0-2.28-2.65-5.315-2.209 0 0 .673-2.208 4.365-3.281zm-1.186 12.76c-.082 0-7.322.077-9.628 5.895-2.31-5.813-9.546-5.895-9.628-5.895H1.813v1.279h10.495c.329 0 8.088.082 8.97 7.189h1.315c.878-7.087 8.642-7.19 8.966-7.19h10.45v-1.278H31.563z" fill="#fff"/><path d="M31.805 24.147c-3.466 0-6.305 2.711-6.531 6.12h-6.722c-.226-3.409-3.065-6.12-6.536-6.12H0v3.194h12.016a3.363 3.363 0 013.358 3.358v2.203h13.068v-2.203a3.363 3.363 0 013.358-3.358h12.021v-3.194H31.805z" fill="#fff"/></svg>