<svg width="47" height="35" fill="none" xmlns="http://www.w3.org/2000/svg"><path d="M40.124 16.127c-.505 0-.939-.374-1.004-.884-1.432-11.096-3.9-12.978-3.926-12.995-1.286-.851-3.922 1.112-4.996 2.186l-.455.45-.597-.2c-5.445-1.872-11.991-.011-12.056.01l-.575.168-.423-.423c-1.08-1.079-3.715-3.031-4.995-2.202l-.065.044c.01 0-2.441 1.903-3.862 12.968a1.013 1.013 0 01-2.007-.26C6.676 3.218 9.372.918 10.012.533c2.538-1.643 5.868.966 7.083 2.067 1.747-.429 7.148-1.508 12.122-.027 1.236-1.112 4.534-3.678 7.05-2.045.64.39 3.347 2.69 4.86 14.454a1.006 1.006 0 01-.873 1.133c-.044.011-.087.011-.13.011z" fill="#2B3C67"/><path d="M11.319 4.797s-1.898 2.766-1.009 5.798c0 0 2.408-2.799 5.608-2.332 0 0-.71-2.332-4.599-3.466zm23.273 0s1.892 2.766 1.003 5.798c0 0-2.408-2.799-5.614-2.332 0 0 .71-2.332 4.61-3.466zm-1.253 13.478c-.087 0-7.734.081-10.17 6.226-2.44-6.14-10.082-6.226-10.169-6.226H1.915v1.35H13c.347 0 8.543.087 9.475 7.593h1.389c.927-7.484 9.128-7.593 9.47-7.593H44.37v-1.35H33.34z" fill="#2B3C67"/><path d="M33.594 25.505c-3.661 0-6.66 2.863-6.9 6.464h-7.099c-.238-3.6-3.237-6.465-6.904-6.465H0v3.374h12.691a3.552 3.552 0 013.547 3.547v2.327h13.803v-2.327a3.552 3.552 0 013.547-3.547h12.697v-3.373H33.594z" fill="#2B3C67"/></svg>