<svg width="137" height="583" viewBox="0 0 137 583" fill="none" xmlns="http://www.w3.org/2000/svg">
<path d="M93 582C34 424.5 155 406.5 133 291C101 184.5 12.0005 185 24.0005 37" stroke="#A6C1DC" stroke-width="2" stroke-dasharray="10 5"/>
<circle cx="24" cy="24" r="24" fill="#3790EC"/>
<mask id="mask0" mask-type="alpha" maskUnits="userSpaceOnUse" x="0" y="0" width="48" height="48">
<circle cx="24" cy="24" r="24" fill="#3790EC"/>
</mask>
<g mask="url(#mask0)">
<path d="M23.9971 60C61.9961 24 34.6657 4.66667 27.999 -10C43.3324 -5.33333 80.399 4.4 81.999 6C83.599 7.6 75.9989 42.6667 71.9988 60C43.3322 75.3333 -4.76056 87.2448 23.9971 60Z" fill="#5FAAF8"/>
<circle cx="8.5" cy="15.5" r="3.5" fill="#5FAAF8"/>
</g>
<path d="M16.903 31.264C21.083 31.264 22.975 27.458 22.975 23.674C22.975 19.89 21.083 16.106 16.903 16.106C12.701 16.106 10.831 19.89 10.831 23.674C10.831 27.458 12.701 31.264 16.903 31.264ZM16.903 28.492C14.791 28.492 13.999 26.38 13.999 23.674C13.999 20.968 14.791 18.878 16.903 18.878C18.993 18.878 19.785 20.968 19.785 23.674C19.785 26.38 18.993 28.492 16.903 28.492ZM35.8036 31V28.25H29.8196C33.6256 25.478 35.6936 23.3 35.6936 20.792C35.6936 17.866 33.2076 16.106 30.0836 16.106C28.0376 16.106 25.8596 16.854 24.4296 18.504L26.2116 20.572C27.2016 19.538 28.4776 18.878 30.1496 18.878C31.3596 18.878 32.5256 19.516 32.5256 20.792C32.5256 22.596 30.7656 24.114 24.7596 28.558V31H35.8036Z" fill="white"/>
</svg>
