<svg width="147" height="602" viewBox="0 0 147 602" fill="none" xmlns="http://www.w3.org/2000/svg">
<path d="M84.4996 43C102.999 123 100.499 148 15.4993 300.5C-33.5005 399 56.5 549.5 146.5 600.5" stroke="#A6C1DC" stroke-width="2" stroke-dasharray="10 5"/>
<circle cx="82" cy="24.5" r="24" fill="#3790EC"/>
<mask id="mask0" mask-type="alpha" maskUnits="userSpaceOnUse" x="58" y="0" width="48" height="49">
<circle cx="82" cy="24.5" r="24" fill="#3790EC"/>
</mask>
<g mask="url(#mask0)">
<path d="M81.9971 60.5C119.996 24.5 92.6657 5.16667 85.999 -9.5C101.332 -4.83333 138.399 4.9 139.999 6.5C141.599 8.1 133.999 43.1667 129.999 60.5C101.332 75.8333 53.2394 87.7448 81.9971 60.5Z" fill="#5FAAF8"/>
<circle cx="66.5" cy="16" r="3.5" fill="#5FAAF8"/>
</g>
<path d="M74.9352 31.764C79.1152 31.764 81.0072 27.958 81.0072 24.174C81.0072 20.39 79.1152 16.606 74.9352 16.606C70.7332 16.606 68.8632 20.39 68.8632 24.174C68.8632 27.958 70.7332 31.764 74.9352 31.764ZM74.9352 28.992C72.8232 28.992 72.0312 26.88 72.0312 24.174C72.0312 21.468 72.8232 19.378 74.9352 19.378C77.0252 19.378 77.8172 21.468 77.8172 24.174C77.8172 26.88 77.0252 28.992 74.9352 28.992ZM92.4498 31.5V28.464H94.3418V25.714H92.4498V16.826H88.1378L82.3078 26V28.464H89.3258V31.5H92.4498ZM89.3258 25.714H85.3658L89.3258 19.598V25.714Z" fill="white"/>
</svg>
