<svg width="162" height="530" viewBox="0 0 162 530" fill="none" xmlns="http://www.w3.org/2000/svg">
<path d="M73.9997 34.5C112.166 85.8333 178.5 179.5 156.5 295C124.5 401.5 -14.5003 381.5 2.99972 529.5" stroke="#A6C1DC" stroke-width="2" stroke-dasharray="10 5"/>
<circle cx="73" cy="24" r="24" fill="#3790EC"/>
<mask id="mask0" mask-type="alpha" maskUnits="userSpaceOnUse" x="49" y="0" width="48" height="48">
<circle cx="73" cy="24" r="24" fill="#3790EC"/>
</mask>
<g mask="url(#mask0)">
<path d="M72.9971 60C110.996 24 83.6657 4.66667 76.999 -10C92.3324 -5.33333 129.399 4.4 130.999 6C132.599 7.6 124.999 42.6667 120.999 60C92.3322 75.3333 44.2394 87.2448 72.9971 60Z" fill="#5FAAF8"/>
<circle cx="57.5" cy="15.5" r="3.5" fill="#5FAAF8"/>
</g>
<path d="M67.9763 31.264C72.1562 31.264 74.0483 27.458 74.0483 23.674C74.0483 19.89 72.1562 16.106 67.9763 16.106C63.7743 16.106 61.9043 19.89 61.9043 23.674C61.9043 27.458 63.7743 31.264 67.9763 31.264ZM67.9763 28.492C65.8643 28.492 65.0723 26.38 65.0723 23.674C65.0723 20.968 65.8643 18.878 67.9763 18.878C70.0663 18.878 70.8583 20.968 70.8583 23.674C70.8583 26.38 70.0663 28.492 67.9763 28.492ZM82.3888 31V16.326H79.6608L75.0408 20.968L76.8228 22.838L79.2648 20.352V31H82.3888Z" fill="white"/>
</svg>
