<svg width="164" height="569" viewBox="0 0 164 569" fill="none" xmlns="http://www.w3.org/2000/svg">
<path d="M75.9989 31C114.166 82.3333 180.499 176 158.499 291.5C126.499 398 -14.4994 420 3.00056 568" stroke="#A6C1DC" stroke-width="2" stroke-dasharray="10 5"/>
<circle cx="75.001" cy="24" r="24" fill="#3790EC"/>
<mask id="mask0" mask-type="alpha" maskUnits="userSpaceOnUse" x="51" y="0" width="49" height="48">
<circle cx="75.001" cy="24" r="24" fill="#3790EC"/>
</mask>
<g mask="url(#mask0)">
<path d="M74.9981 60C112.997 24 85.6666 4.66667 79 -10C94.3333 -5.33333 131.4 4.4 133 6C134.6 7.6 127 42.6667 123 60C94.3331 75.3333 46.2404 87.2448 74.9981 60Z" fill="#5FAAF8"/>
<circle cx="59.501" cy="15.5" r="3.5" fill="#5FAAF8"/>
</g>
<path d="M68.0436 31.264C72.2236 31.264 74.1156 27.458 74.1156 23.674C74.1156 19.89 72.2236 16.106 68.0436 16.106C63.8416 16.106 61.9716 19.89 61.9716 23.674C61.9716 27.458 63.8416 31.264 68.0436 31.264ZM68.0436 28.492C65.9316 28.492 65.1396 26.38 65.1396 23.674C65.1396 20.968 65.9316 18.878 68.0436 18.878C70.1336 18.878 70.9256 20.968 70.9256 23.674C70.9256 26.38 70.1336 28.492 68.0436 28.492ZM81.0922 31.264C84.6122 31.264 86.8782 29.482 86.8782 26.952C86.8782 24.752 84.9422 23.586 83.4462 23.432C85.0742 23.146 86.6582 21.936 86.6582 20.088C86.6582 17.646 84.5462 16.106 81.1142 16.106C78.5402 16.106 76.6922 17.096 75.5042 18.438L77.0662 20.396C78.1002 19.406 79.3762 18.878 80.7842 18.878C82.3242 18.878 83.5122 19.45 83.5122 20.616C83.5122 21.694 82.4342 22.178 80.8062 22.178C80.2562 22.178 79.2442 22.178 78.9802 22.156V24.972C79.2002 24.95 80.1902 24.928 80.8062 24.928C82.8522 24.928 83.7542 25.456 83.7542 26.622C83.7542 27.722 82.7642 28.492 80.9822 28.492C79.5522 28.492 77.9462 27.876 76.9342 26.82L75.3062 28.91C76.3842 30.23 78.3862 31.264 81.0922 31.264Z" fill="white"/>
</svg>
