<svg width="179" height="615" viewBox="0 0 179 615" fill="none" xmlns="http://www.w3.org/2000/svg">
<path d="M103 39C137 110.5 251 246 103 412C62.4474 453.5 23.9999 540.5 24 587" stroke="#A6C1DC" stroke-width="2" stroke-dasharray="10 5"/>
<circle cx="93.001" cy="23.9995" r="24" fill="#3790EC"/>
<mask id="mask0" mask-type="alpha" maskUnits="userSpaceOnUse" x="69" y="-1" width="49" height="49">
<circle cx="93.001" cy="23.9995" r="24" fill="#3790EC"/>
</mask>
<g mask="url(#mask0)">
<path d="M92.9981 59.9995C130.997 23.9995 103.667 4.66618 97 -10.0005C112.333 -5.33382 149.4 4.39951 151 5.99951C152.6 7.59951 145 42.6662 141 59.9995C112.333 75.3328 64.2404 87.2443 92.9981 59.9995Z" fill="#5FAAF8"/>
<circle cx="77.501" cy="15.4995" r="3.5" fill="#5FAAF8"/>
</g>
<path d="M85.3073 31.2635C89.4873 31.2635 91.3793 27.4575 91.3793 23.6735C91.3793 19.8895 89.4873 16.1055 85.3073 16.1055C81.1053 16.1055 79.2353 19.8895 79.2353 23.6735C79.2353 27.4575 81.1053 31.2635 85.3073 31.2635ZM85.3073 28.4915C83.1953 28.4915 82.4033 26.3795 82.4033 23.6735C82.4033 20.9675 83.1953 18.8775 85.3073 18.8775C87.3973 18.8775 88.1893 20.9675 88.1893 23.6735C88.1893 26.3795 87.3973 28.4915 85.3073 28.4915ZM98.8619 31.2635C102.404 31.2635 104.736 29.3055 104.736 26.1815C104.736 23.2115 102.514 21.4295 100.028 21.4295C98.6859 21.4295 97.4979 21.9575 96.7939 22.6615V19.0755H103.746V16.3255H93.6699V24.7515L95.8479 25.3235C96.7279 24.4875 97.7179 24.1355 98.9279 24.1355C100.6 24.1355 101.568 25.0155 101.568 26.3135C101.568 27.5015 100.578 28.4915 98.8399 28.4915C97.2999 28.4915 95.9359 27.9195 94.9459 26.8855L93.2079 29.0635C94.4619 30.4275 96.3099 31.2635 98.8619 31.2635Z" fill="white"/>
<circle cx="24" cy="590.5" r="24" fill="#3790EC"/>
<mask id="mask1" mask-type="alpha" maskUnits="userSpaceOnUse" x="0" y="566" width="48" height="49">
<circle cx="24" cy="590.5" r="24" fill="#3790EC"/>
</mask>
<g mask="url(#mask1)">
<path d="M23.9971 626.5C61.9961 590.5 34.6657 571.166 27.999 556.5C43.3324 561.166 80.399 570.9 81.999 572.5C83.599 574.1 75.9989 609.166 71.9988 626.5C43.3322 641.833 -4.76056 653.745 23.9971 626.5Z" fill="#5FAAF8"/>
<circle cx="8.5" cy="582" r="3.5" fill="#5FAAF8"/>
</g>
<path d="M16.3063 597.764C20.4863 597.764 22.3783 593.958 22.3783 590.174C22.3783 586.39 20.4863 582.606 16.3063 582.606C12.1043 582.606 10.2343 586.39 10.2343 590.174C10.2343 593.958 12.1043 597.764 16.3063 597.764ZM16.3063 594.992C14.1943 594.992 13.4023 592.88 13.4023 590.174C13.4023 587.468 14.1943 585.378 16.3063 585.378C18.3963 585.378 19.1883 587.468 19.1883 590.174C19.1883 592.88 18.3963 594.992 16.3063 594.992ZM30.2129 597.764C33.5569 597.764 35.8229 595.586 35.8229 592.726C35.8229 589.602 33.4689 587.952 30.8289 587.952C29.2229 587.952 27.7489 588.854 27.0669 589.844C27.0449 589.734 27.0449 589.646 27.0449 589.536C27.0449 587.204 28.5629 585.378 30.7189 585.378C32.0169 585.378 32.8529 585.774 33.6449 586.522L35.0529 584.124C33.9969 583.222 32.5009 582.606 30.7189 582.606C26.3849 582.606 23.8769 585.752 23.8769 590.196C23.8769 594.332 25.7469 597.764 30.2129 597.764ZM30.0369 594.992C27.9909 594.992 27.1989 593.43 27.0669 592.022C27.7709 591.142 28.8269 590.636 29.9269 590.636C31.3349 590.636 32.6549 591.296 32.6549 592.836C32.6549 593.87 31.7309 594.992 30.0369 594.992Z" fill="white"/>
</svg>
