<svg width="19" height="25" fill="none" xmlns="http://www.w3.org/2000/svg"><path fill-rule="evenodd" clip-rule="evenodd" d="M2.242 0S0 0 0 2.273v20.454C0 25 2.242 25 2.242 25h14.016s2.242 0 2.242-2.273V2.273C18.5 0 16.258 0 16.258 0H2.242zm.179 1.25s-1.188 0-1.188 1.139V20.61c0 1.139 1.188 1.139 1.188 1.139h13.658s1.188 0 1.188-1.139V2.39c0-1.139-1.188-1.139-1.188-1.139H2.421zm6.852 22.932a.848.848 0 00.843-.852.848.848 0 00-.843-.853.848.848 0 00-.843.852c0 .471.378.853.843.853z" fill="#3790EC"/></svg>